HubotSans-BlackNarrowItalic.ufo
<glyph name="exclam" format="2">
  <advance width="229"/>
  <unicode hex="0021"/>
  <outline>
    <contour>
      <point x="70" y="247" type="line"/>
      <point x="149" y="247" type="line"/>
      <point x="263" y="545" type="line"/>
      <point x="302" y="729" type="line"/>
      <point x="121" y="729" type="line"/>
      <point x="82" y="545" type="line"/>
    </contour>
    <contour>
      <point x="-29" y="0" type="line"/>
      <point x="144" y="0" type="line"/>
      <point x="182" y="181" type="line"/>
      <point x="9" y="181" type="line"/>
    </contour>
  </outline>
</glyph>
<glyph name="numbersign" format="2">
  <advance width="580"/>
  <unicode hex="0023"/>
  <outline>
    <contour>
      <point x="42" y="0" type="line"/>
      <point x="202" y="0" type="line"/>
      <point x="233" y="146" type="line"/>
      <point x="298" y="146" type="line"/>
      <point x="267" y="0" type="line"/>
      <point x="424" y="0" type="line"/>
      <point x="455" y="146" type="line"/>
      <point x="537" y="146" type="line"/>
      <point x="567" y="288" type="line"/>
      <point x="485" y="288" type="line"/>
      <point x="517" y="440" type="line"/>
      <point x="599" y="440" type="line"/>
      <point x="629" y="583" type="line"/>
      <point x="547" y="583" type="line"/>
      <point x="578" y="729" type="line"/>
      <point x="421" y="729" type="line"/>
      <point x="390" y="583" type="line"/>
      <point x="325" y="583" type="line"/>
      <point x="356" y="729" type="line"/>
      <point x="196" y="729" type="line"/>
      <point x="165" y="583" type="line"/>
      <point x="82" y="583" type="line"/>
      <point x="52" y="440" type="line"/>
      <point x="135" y="440" type="line"/>
      <point x="103" y="288" type="line"/>
      <point x="20" y="288" type="line"/>
      <point x="-10" y="146" type="line"/>
      <point x="73" y="146" type="line"/>
    </contour>
    <contour>
      <point x="263" y="288" type="line"/>
      <point x="295" y="440" type="line"/>
      <point x="360" y="440" type="line"/>
      <point x="328" y="288" type="line"/>
    </contour>
  </outline>
</glyph>
<glyph name="percent" format="2">
  <advance width="692"/>
  <unicode hex="0025"/>
  <outline>
    <contour>
      <point x="86" y="0" type="line"/>
      <point x="201" y="0" type="line"/>
      <point x="646" y="729" type="line"/>
      <point x="531" y="729" type="line"/>
    </contour>
    <contour>
      <point x="193" y="349" type="curve" smooth="yes"/>
      <point x="269" y="349"/>
      <point x="314" y="401"/>
      <point x="330" y="479" type="curve" smooth="yes"/>
      <point x="349" y="570" type="line" smooth="yes"/>
      <point x="370" y="671"/>
      <point x="323" y="737"/>
      <point x="221" y="737" type="curve" smooth="yes"/>
      <point x="145" y="737"/>
      <point x="100" y="685"/>
      <point x="84" y="607" type="curve" smooth="yes"/>
      <point x="65" y="516" type="line" smooth="yes"/>
      <point x="44" y="415"/>
      <point x="91" y="349"/>
    </contour>
    <contour>
      <point x="191" y="447" type="curve" smooth="yes"/>
      <point x="174" y="447"/>
      <point x="165" y="460"/>
      <point x="170" y="482" type="curve" smooth="yes"/>
      <point x="197" y="611" type="line" smooth="yes"/>
      <point x="201" y="632"/>
      <point x="211" y="639"/>
      <point x="223" y="639" type="curve" smooth="yes"/>
      <point x="239" y="639"/>
      <point x="249" y="626"/>
      <point x="244" y="604" type="curve" smooth="yes"/>
      <point x="217" y="475" type="line" smooth="yes"/>
      <point x="213" y="454"/>
      <point x="203" y="447"/>
    </contour>
    <contour>
      <point x="510" y="-9" type="curve" smooth="yes"/>
      <point x="586" y="-9"/>
      <point x="631" y="43"/>
      <point x="647" y="121" type="curve" smooth="yes"/>
      <point x="666" y="212" type="line" smooth="yes"/>
      <point x="687" y="313"/>
      <point x="640" y="379"/>
      <point x="538" y="379" type="curve" smooth="yes"/>
      <point x="462" y="379"/>
      <point x="417" y="327"/>
      <point x="401" y="249" type="curve" smooth="yes"/>
      <point x="382" y="158" type="line" smooth="yes"/>
      <point x="361" y="57"/>
      <point x="408" y="-9"/>
    </contour>
    <contour>
      <point x="508" y="89" type="curve" smooth="yes"/>
      <point x="491" y="89"/>
      <point x="482" y="102"/>
      <point x="487" y="124" type="curve" smooth="yes"/>
      <point x="514" y="253" type="line" smooth="yes"/>
      <point x="518" y="274"/>
      <point x="528" y="281"/>
      <point x="540" y="281" type="curve" smooth="yes"/>
      <point x="556" y="281"/>
      <point x="566" y="268"/>
      <point x="561" y="246" type="curve" smooth="yes"/>
      <point x="534" y="117" type="line" smooth="yes"/>
      <point x="530" y="96"/>
      <point x="520" y="89"/>
    </contour>
  </outline>
</glyph>
<glyph name="ampersand" format="2">
  <advance width="604"/>
  <unicode hex="0026"/>
  <outline>
    <contour>
      <point x="166" y="-9" type="curve" smooth="yes"/>
      <point x="222" y="-9"/>
      <point x="280" y="9"/>
      <point x="319" y="49" type="curve"/>
      <point x="346" y="0" type="line"/>
      <point x="530" y="0" type="line"/>
      <point x="447" y="162" type="line"/>
      <point x="470" y="188"/>
      <point x="494" y="226"/>
      <point x="508" y="255" type="curve"/>
      <point x="567" y="255" type="line"/>
      <point x="594" y="383" type="line"/>
      <point x="429" y="383" type="line"/>
      <point x="423" y="358" type="line" smooth="yes"/>
      <point x="415" y="323"/>
      <point x="401" y="294"/>
      <point x="390" y="273" type="curve"/>
      <point x="340" y="370" type="line"/>
      <point x="424" y="402"/>
      <point x="479" y="450"/>
      <point x="495" y="514" type="curve" smooth="yes"/>
      <point x="499" y="530" type="line" smooth="yes"/>
      <point x="530" y="655"/>
      <point x="447" y="738"/>
      <point x="331" y="738" type="curve" smooth="yes"/>
      <point x="233" y="738"/>
      <point x="156" y="685"/>
      <point x="137" y="592" type="curve" smooth="yes"/>
      <point x="131" y="563" type="line" smooth="yes"/>
      <point x="120" y="508"/>
      <point x="131" y="439"/>
      <point x="159" y="390" type="curve"/>
      <point x="157" y="381" type="line"/>
      <point x="80" y="345"/>
      <point x="26" y="300"/>
      <point x="6" y="211" type="curve" smooth="yes"/>
      <point x="2" y="193" type="line" smooth="yes"/>
      <point x="-25" y="73"/>
      <point x="43" y="-9"/>
    </contour>
    <contour>
      <point x="218" y="122" type="curve" smooth="yes"/>
      <point x="181" y="122"/>
      <point x="161" y="146"/>
      <point x="169" y="188" type="curve" smooth="yes"/>
      <point x="173" y="209" type="line" smooth="yes"/>
      <point x="177" y="232"/>
      <point x="188" y="254"/>
      <point x="210" y="268" type="curve"/>
      <point x="272" y="146" type="line"/>
      <point x="258" y="130"/>
      <point x="239" y="122"/>
    </contour>
    <contour>
      <point x="301" y="451" type="curve"/>
      <point x="287" y="494"/>
      <point x="285" y="519"/>
      <point x="291" y="548" type="curve" smooth="yes"/>
      <point x="293" y="558" type="line" smooth="yes"/>
      <point x="300" y="594"/>
      <point x="312" y="609"/>
      <point x="331" y="609" type="curve" smooth="yes"/>
      <point x="357" y="609"/>
      <point x="364" y="588"/>
      <point x="356" y="551" type="curve" smooth="yes"/>
      <point x="352" y="533" type="line" smooth="yes"/>
      <point x="345" y="502"/>
      <point x="330" y="479"/>
    </contour>
  </outline>
</glyph>
<glyph name="quotesingle" format="2">
  <advance width="196"/>
  <unicode hex="0027"/>
  <anchor x="-7" y="0" name="#entry"/>
  <anchor x="209" y="0" name="#exit"/>
  <outline>
    <contour>
      <point x="75" y="350" type="line"/>
      <point x="152" y="350" type="line"/>
      <point x="242" y="552" type="line"/>
      <point x="279" y="729" type="line"/>
      <point x="110" y="729" type="line"/>
      <point x="73" y="552" type="line"/>
    </contour>
  </outline>
</glyph>
<glyph name="parenleft" format="2">
  <advance width="344"/>
  <unicode hex="0028"/>
  <outline>
    <contour>
      <point x="104" y="-167" type="curve"/>
      <point x="238" y="-167" type="line"/>
      <point x="221" y="-65"/>
      <point x="206" y="10"/>
      <point x="206" y="129" type="curve" smooth="yes"/>
      <point x="206" y="377"/>
      <point x="290" y="588"/>
      <point x="443" y="793" type="curve"/>
      <point x="282" y="793" type="line"/>
      <point x="137" y="630"/>
      <point x="47" y="389"/>
      <point x="47" y="166" type="curve" smooth="yes"/>
      <point x="47" y="46"/>
      <point x="70" y="-69"/>
    </contour>
  </outline>
</glyph>
<glyph name="asterisk" format="2">
  <advance width="251"/>
  <unicode hex="002A"/>
  <outline>
    <contour>
      <point x="142" y="477" type="line"/>
      <point x="205" y="478" type="line"/>
      <point x="212" y="516" type="line"/>
      <point x="208" y="570" type="line"/>
      <point x="242" y="529" type="line"/>
      <point x="271" y="511" type="line"/>
      <point x="311" y="568" type="line"/>
      <point x="282" y="587" type="line"/>
      <point x="232" y="604" type="line"/>
      <point x="291" y="620" type="line"/>
      <point x="324" y="639" type="line"/>
      <point x="302" y="695" type="line"/>
      <point x="267" y="675" type="line"/>
      <point x="219" y="636" type="line"/>
      <point x="243" y="693" type="line"/>
      <point x="250" y="730" type="line"/>
      <point x="187" y="729" type="line"/>
      <point x="180" y="690" type="line"/>
      <point x="184" y="635" type="line"/>
      <point x="149" y="677" type="line"/>
      <point x="121" y="695" type="line"/>
      <point x="82" y="638" type="line"/>
      <point x="111" y="619" type="line"/>
      <point x="160" y="603" type="line"/>
      <point x="102" y="586" type="line"/>
      <point x="68" y="567" type="line"/>
      <point x="90" y="511" type="line"/>
      <point x="125" y="530" type="line"/>
      <point x="174" y="570" type="line"/>
      <point x="148" y="514" type="line"/>
    </contour>
  </outline>
</glyph>
<glyph name="plus" format="2">
  <advance width="500"/>
  <unicode hex="002B"/>
  <outline>
    <contour>
      <point x="146" y="141" type="line"/>
      <point x="296" y="141" type="line"/>
      <point x="390" y="581" type="line"/>
      <point x="240" y="581" type="line"/>
    </contour>
    <contour>
      <point x="34" y="290" type="line"/>
      <point x="474" y="290" type="line"/>
      <point x="504" y="432" type="line"/>
      <point x="64" y="432" type="line"/>
    </contour>
  </outline>
</glyph>
<glyph name="comma" format="2">
  <advance width="211"/>
  <unicode hex="002C"/>
  <anchor x="-4" y="0" name="#entry"/>
  <anchor x="217" y="0" name="#exit"/>
  <anchor x="164" y="545" name="top"/>
  <outline>
    <contour>
      <point x="-84" y="-167" type="line"/>
      <point x="28" y="-167" type="line"/>
      <point x="135" y="7" type="line"/>
      <point x="172" y="181" type="line"/>
      <point x="1" y="181" type="line"/>
      <point x="-37" y="0" type="line"/>
      <point x="56" y="0" type="line"/>
    </contour>
  </outline>
</glyph>
<glyph name="hyphen" format="2">
  <advance width="357"/>
  <unicode hex="002D"/>
  <outline>
    <contour>
      <point x="13" y="240" type="line"/>
      <point x="329" y="240" type="line"/>
      <point x="365" y="405" type="line"/>
      <point x="49" y="405" type="line"/>
    </contour>
  </outline>
</glyph>
<glyph name="period" format="2">
  <advance width="210"/>
  <unicode hex="002E"/>
  <anchor x="-62" y="0" name="#entry"/>
  <anchor x="153" y="0" name="#exit"/>
  <anchor x="86" y="181" name="_top"/>
  <anchor x="163" y="545" name="top"/>
  <outline>
    <contour>
      <point x="-38" y="0" type="line"/>
      <point x="133" y="0" type="line"/>
      <point x="171" y="181" type="line"/>
      <point x="0" y="181" type="line"/>
    </contour>
  </outline>
</glyph>
<glyph name="slash" format="2">
  <advance width="379"/>
  <unicode hex="002F"/>
  <outline>
    <contour>
      <point x="-76" y="-82" type="line"/>
      <point x="96" y="-82" type="line"/>
      <point x="461" y="729" type="line"/>
      <point x="288" y="729" type="line"/>
    </contour>
  </outline>
</glyph>
<glyph name="zero" format="2">
  <advance width="495"/>
  <unicode hex="0030"/>
  <note>
zero
</note>
  <outline>
    <contour>
      <point x="215" y="-9" type="curve" smooth="yes"/>
      <point x="333" y="-9"/>
      <point x="424" y="50"/>
      <point x="456" y="202" type="curve" smooth="yes"/>
      <point x="511" y="463" type="line" smooth="yes"/>
      <point x="546" y="628"/>
      <point x="479" y="738"/>
      <point x="320" y="738" type="curve" smooth="yes"/>
      <point x="202" y="738"/>
      <point x="110" y="679"/>
      <point x="78" y="527" type="curve" smooth="yes"/>
      <point x="23" y="266" type="line" smooth="yes"/>
      <point x="-12" y="101"/>
      <point x="55" y="-9"/>
    </contour>
    <contour>
      <point x="225" y="134" type="curve" smooth="yes"/>
      <point x="190" y="134"/>
      <point x="172" y="160"/>
      <point x="182" y="205" type="curve" smooth="yes"/>
      <point x="254" y="543" type="line" smooth="yes"/>
      <point x="261" y="574"/>
      <point x="277" y="595"/>
      <point x="310" y="595" type="curve" smooth="yes"/>
      <point x="345" y="595"/>
      <point x="362" y="569"/>
      <point x="352" y="524" type="curve" smooth="yes"/>
      <point x="280" y="186" type="line" smooth="yes"/>
      <point x="273" y="155"/>
      <point x="258" y="134"/>
    </contour>
    <contour>
      <point x="117" y="303" type="line"/>
      <point x="394" y="303" type="line"/>
      <point x="420" y="426" type="line"/>
      <point x="143" y="426" type="line"/>
    </contour>
  </outline>
</glyph>
<glyph name="one" format="2">
  <advance width="345"/>
  <unicode hex="0031"/>
  <note>
one
</note>
  <outline>
    <contour>
      <point x="74" y="0" type="line"/>
      <point x="254" y="0" type="line"/>
      <point x="407" y="729" type="line"/>
      <point x="260" y="729" type="line"/>
      <point x="206" y="597" type="line"/>
      <point x="86" y="597" type="line"/>
      <point x="54" y="446" type="line"/>
      <point x="168" y="446" type="line"/>
    </contour>
  </outline>
</glyph>
<glyph name="two" format="2">
  <advance width="499"/>
  <unicode hex="0032"/>
  <note>
two
</note>
  <outline>
    <contour>
      <point x="-28" y="0" type="line"/>
      <point x="422" y="0" type="line"/>
      <point x="454" y="149" type="line"/>
      <point x="251" y="149" type="line"/>
      <point x="208" y="148" type="line"/>
      <point x="210" y="156" type="line"/>
      <point x="232" y="175" type="line"/>
      <point x="360" y="281" type="line" smooth="yes"/>
      <point x="452" y="357"/>
      <point x="530" y="435"/>
      <point x="530" y="548" type="curve" smooth="yes"/>
      <point x="530" y="667"/>
      <point x="454" y="738"/>
      <point x="326" y="738" type="curve" smooth="yes"/>
      <point x="180" y="738"/>
      <point x="79" y="648"/>
      <point x="66" y="488" type="curve"/>
      <point x="226" y="488" type="line"/>
      <point x="230" y="543"/>
      <point x="250" y="582"/>
      <point x="300" y="582" type="curve" smooth="yes"/>
      <point x="337" y="582"/>
      <point x="354" y="555"/>
      <point x="348" y="519" type="curve" smooth="yes"/>
      <point x="346" y="506" type="line" smooth="yes"/>
      <point x="341" y="479"/>
      <point x="320" y="450"/>
      <point x="285" y="417" type="curve" smooth="yes"/>
      <point x="4" y="151" type="line"/>
    </contour>
  </outline>
</glyph>
<glyph name="three" format="2">
  <advance width="514"/>
  <unicode hex="0033"/>
  <note>
three
</note>
  <outline>
    <contour>
      <point x="220" y="-9" type="curve" smooth="yes"/>
      <point x="367" y="-9"/>
      <point x="479" y="78"/>
      <point x="479" y="215" type="curve" smooth="yes"/>
      <point x="479" y="284"/>
      <point x="451" y="335"/>
      <point x="400" y="356" type="curve"/>
      <point x="403" y="367" type="line"/>
      <point x="490" y="398"/>
      <point x="541" y="471"/>
      <point x="541" y="554" type="curve" smooth="yes"/>
      <point x="541" y="666"/>
      <point x="463" y="737"/>
      <point x="339" y="737" type="curve" smooth="yes"/>
      <point x="190" y="737"/>
      <point x="87" y="642"/>
      <point x="76" y="496" type="curve"/>
      <point x="245" y="496" type="line"/>
      <point x="249" y="547"/>
      <point x="267" y="582"/>
      <point x="316" y="582" type="curve" smooth="yes"/>
      <point x="352" y="582"/>
      <point x="367" y="553"/>
      <point x="361" y="523" type="curve" smooth="yes"/>
      <point x="356" y="497" type="line" smooth="yes"/>
      <point x="351" y="469"/>
      <point x="322" y="435"/>
      <point x="267" y="435" type="curve" smooth="yes"/>
      <point x="209" y="435" type="line"/>
      <point x="185" y="313" type="line"/>
      <point x="247" y="313" type="line" smooth="yes"/>
      <point x="303" y="313"/>
      <point x="314" y="272"/>
      <point x="305" y="235" type="curve" smooth="yes"/>
      <point x="299" y="207" type="line" smooth="yes"/>
      <point x="292" y="177"/>
      <point x="271" y="152"/>
      <point x="233" y="152" type="curve" smooth="yes"/>
      <point x="172" y="152"/>
      <point x="171" y="201"/>
      <point x="181" y="243" type="curve"/>
      <point x="10" y="243" type="line"/>
      <point x="-14" y="84"/>
      <point x="61" y="-9"/>
    </contour>
  </outline>
</glyph>
<glyph name="four" format="2">
  <advance width="548"/>
  <unicode hex="0034"/>
  <note>
four
</note>
  <outline>
    <contour>
      <point x="-9" y="156" type="line"/>
      <point x="506" y="156" type="line"/>
      <point x="539" y="309" type="line"/>
      <point x="228" y="309" type="line"/>
      <point x="230" y="317" type="line"/>
      <point x="469" y="729" type="line"/>
      <point x="287" y="729" type="line"/>
      <point x="15" y="268" type="line"/>
    </contour>
    <contour>
      <point x="217" y="0" type="line"/>
      <point x="397" y="0" type="line"/>
      <point x="498" y="480" type="line"/>
      <point x="359" y="480" type="line"/>
      <point x="266" y="239" type="line"/>
    </contour>
  </outline>
</glyph>
<glyph name="five" format="2">
  <advance width="514"/>
  <unicode hex="0035"/>
  <note>
five
</note>
  <outline>
    <contour>
      <point x="220" y="-9" type="curve" smooth="yes"/>
      <point x="405" y="-9"/>
      <point x="496" y="134"/>
      <point x="496" y="308" type="curve" smooth="yes"/>
      <point x="496" y="424"/>
      <point x="442" y="488"/>
      <point x="344" y="488" type="curve" smooth="yes"/>
      <point x="301" y="488"/>
      <point x="255" y="470"/>
      <point x="233" y="444" type="curve"/>
      <point x="221" y="444" type="line"/>
      <point x="263" y="581" type="line"/>
      <point x="527" y="581" type="line"/>
      <point x="558" y="729" type="line"/>
      <point x="147" y="729" type="line"/>
      <point x="35" y="307" type="line"/>
      <point x="198" y="307" type="line"/>
      <point x="208" y="343"/>
      <point x="230" y="363"/>
      <point x="265" y="363" type="curve" smooth="yes"/>
      <point x="320" y="363"/>
      <point x="321" y="311"/>
      <point x="314" y="274" type="curve" smooth="yes"/>
      <point x="303" y="221" type="line" smooth="yes"/>
      <point x="293" y="171"/>
      <point x="269" y="150"/>
      <point x="232" y="150" type="curve" smooth="yes"/>
      <point x="172" y="151"/>
      <point x="171" y="202"/>
      <point x="181" y="243" type="curve"/>
      <point x="10" y="243" type="line"/>
      <point x="-14" y="82"/>
      <point x="62" y="-9"/>
    </contour>
  </outline>
</glyph>
<glyph name="six" format="2">
  <advance width="521"/>
  <unicode hex="0036"/>
  <note>
six
</note>
  <outline>
    <contour>
      <point x="230" y="-8" type="curve" smooth="yes"/>
      <point x="427" y="-8"/>
      <point x="501" y="166"/>
      <point x="501" y="310" type="curve" smooth="yes"/>
      <point x="501" y="401"/>
      <point x="465" y="483"/>
      <point x="352" y="483" type="curve" smooth="yes"/>
      <point x="297" y="483"/>
      <point x="257" y="463"/>
      <point x="231" y="420" type="curve"/>
      <point x="223" y="421" type="line"/>
      <point x="232" y="452"/>
      <point x="242" y="494"/>
      <point x="247" y="516" type="curve" smooth="yes"/>
      <point x="259" y="569"/>
      <point x="282" y="593"/>
      <point x="330" y="593" type="curve" smooth="yes"/>
      <point x="369" y="593"/>
      <point x="393" y="572"/>
      <point x="390" y="536" type="curve"/>
      <point x="559" y="536" type="line"/>
      <point x="558" y="662"/>
      <point x="472" y="737"/>
      <point x="337" y="737" type="curve" smooth="yes"/>
      <point x="221" y="737"/>
      <point x="111" y="687"/>
      <point x="75" y="510" type="curve" smooth="yes"/>
      <point x="28" y="287" type="line" smooth="yes"/>
      <point x="-5" y="136"/>
      <point x="41" y="-8"/>
    </contour>
    <contour>
      <point x="240" y="148" type="curve" smooth="yes"/>
      <point x="180" y="148"/>
      <point x="181" y="196"/>
      <point x="188" y="233" type="curve" smooth="yes"/>
      <point x="207" y="327" type="line"/>
      <point x="221" y="352"/>
      <point x="245" y="363"/>
      <point x="271" y="363" type="curve" smooth="yes"/>
      <point x="325" y="363"/>
      <point x="329" y="317"/>
      <point x="321" y="278" type="curve" smooth="yes"/>
      <point x="309" y="221" type="line" smooth="yes"/>
      <point x="300" y="179"/>
      <point x="284" y="148"/>
    </contour>
  </outline>
</glyph>
<glyph name="seven" format="2">
  <advance width="484"/>
  <unicode hex="0037"/>
  <note>
seven
</note>
  <outline>
    <contour>
      <point x="19" y="0" type="line"/>
      <point x="219" y="0" type="line"/>
      <point x="532" y="576" type="line"/>
      <point x="564" y="729" type="line"/>
      <point x="117" y="729" type="line"/>
      <point x="59" y="447" type="line"/>
      <point x="220" y="447" type="line"/>
      <point x="247" y="582" type="line"/>
      <point x="355" y="582" type="line"/>
      <point x="345" y="564" type="line"/>
    </contour>
  </outline>
</glyph>
<glyph name="eight" format="2">
  <advance width="534"/>
  <unicode hex="0038"/>
  <note>
eight
</note>
  <outline>
    <contour>
      <point x="237" y="-9" type="curve" smooth="yes"/>
      <point x="387" y="-9"/>
      <point x="499" y="66"/>
      <point x="499" y="204" type="curve" smooth="yes"/>
      <point x="499" y="273"/>
      <point x="465" y="331"/>
      <point x="412" y="356" type="curve"/>
      <point x="415" y="366" type="line"/>
      <point x="498" y="388"/>
      <point x="552" y="461"/>
      <point x="552" y="547" type="curve" smooth="yes"/>
      <point x="552" y="662"/>
      <point x="464" y="738"/>
      <point x="331" y="738" type="curve" smooth="yes"/>
      <point x="193" y="738"/>
      <point x="90" y="653"/>
      <point x="90" y="523" type="curve" smooth="yes"/>
      <point x="90" y="465"/>
      <point x="118" y="414"/>
      <point x="163" y="392" type="curve"/>
      <point x="161" y="382" type="line"/>
      <point x="65" y="361"/>
      <point x="1" y="281"/>
      <point x="1" y="180" type="curve" smooth="yes"/>
      <point x="1" y="67"/>
      <point x="95" y="-9"/>
    </contour>
    <contour>
      <point x="250" y="150" type="curve" smooth="yes"/>
      <point x="200" y="150"/>
      <point x="176" y="179"/>
      <point x="186" y="226" type="curve" smooth="yes"/>
      <point x="191" y="249" type="line" smooth="yes"/>
      <point x="198" y="285"/>
      <point x="225" y="309"/>
      <point x="265" y="309" type="curve" smooth="yes"/>
      <point x="311" y="309"/>
      <point x="336" y="279"/>
      <point x="329" y="234" type="curve" smooth="yes"/>
      <point x="324" y="211" type="line" smooth="yes"/>
      <point x="317" y="175"/>
      <point x="291" y="150"/>
    </contour>
    <contour>
      <point x="311" y="436" type="curve" smooth="yes"/>
      <point x="266" y="436"/>
      <point x="244" y="463"/>
      <point x="250" y="510" type="curve" smooth="yes"/>
      <point x="253" y="527" type="line" smooth="yes"/>
      <point x="259" y="558"/>
      <point x="284" y="579"/>
      <point x="319" y="579" type="curve" smooth="yes"/>
      <point x="364" y="579"/>
      <point x="388" y="551"/>
      <point x="382" y="506" type="curve" smooth="yes"/>
      <point x="377" y="485" type="line" smooth="yes"/>
      <point x="370" y="456"/>
      <point x="346" y="436"/>
    </contour>
  </outline>
</glyph>
<glyph name="equal" format="2">
  <advance width="501"/>
  <unicode hex="003D"/>
  <anchor x="269" y="361" name="center"/>
  <outline>
    <contour>
      <point x="57" y="404" type="line"/>
      <point x="499" y="404" type="line"/>
      <point x="529" y="546" type="line"/>
      <point x="87" y="546" type="line"/>
    </contour>
    <contour>
      <point x="11" y="184" type="line"/>
      <point x="453" y="184" type="line"/>
      <point x="483" y="326" type="line"/>
      <point x="41" y="326" type="line"/>
    </contour>
  </outline>
</glyph>
<glyph name="greater" format="2">
  <advance width="500"/>
  <unicode hex="003E"/>
  <outline>
    <contour>
      <point x="1" y="85" type="line"/>
      <point x="460" y="253" type="line"/>
      <point x="506" y="467" type="line"/>
      <point x="121" y="644" type="line"/>
      <point x="82" y="458" type="line"/>
      <point x="285" y="376" type="line"/>
      <point x="282" y="362" type="line"/>
      <point x="44" y="285" type="line"/>
    </contour>
  </outline>
</glyph>
<glyph name="question" format="2">
  <advance width="442"/>
  <unicode hex="003F"/>
  <outline>
    <contour>
      <point x="134" y="226" type="line"/>
      <point x="292" y="226" type="line"/>
      <point x="296" y="243" type="line" smooth="yes"/>
      <point x="315" y="324"/>
      <point x="452" y="398"/>
      <point x="479" y="523" type="curve" smooth="yes"/>
      <point x="507" y="651"/>
      <point x="432" y="737"/>
      <point x="291" y="737" type="curve" smooth="yes"/>
      <point x="172" y="737"/>
      <point x="83" y="658"/>
      <point x="70" y="519" type="curve"/>
      <point x="229" y="519" type="line"/>
      <point x="239" y="561"/>
      <point x="254" y="578"/>
      <point x="276" y="578" type="curve" smooth="yes"/>
      <point x="307" y="578"/>
      <point x="309" y="552"/>
      <point x="301" y="518" type="curve" smooth="yes"/>
      <point x="282" y="437"/>
      <point x="163" y="379"/>
      <point x="140" y="258" type="curve" smooth="yes"/>
    </contour>
    <contour>
      <point x="79" y="0" type="line"/>
      <point x="249" y="0" type="line"/>
      <point x="285" y="168" type="line"/>
      <point x="115" y="168" type="line"/>
    </contour>
  </outline>
</glyph>
<glyph name="at" format="2">
  <advance width="663"/>
  <unicode hex="0040"/>
  <outline>
    <contour>
      <point x="271" y="-101" type="curve" smooth="yes"/>
      <point x="359" y="-101"/>
      <point x="436" y="-71"/>
      <point x="488" y="-18" type="curve"/>
      <point x="446" y="56" type="line"/>
      <point x="410" y="26"/>
      <point x="368" y="6"/>
      <point x="313" y="6" type="curve" smooth="yes"/>
      <point x="194" y="6"/>
      <point x="112" y="101"/>
      <point x="150" y="316" type="curve" smooth="yes"/>
      <point x="183" y="493"/>
      <point x="268" y="631"/>
      <point x="405" y="631" type="curve" smooth="yes"/>
      <point x="508" y="631"/>
      <point x="581" y="551"/>
      <point x="545" y="349" type="curve" smooth="yes"/>
      <point x="531" y="271"/>
      <point x="508" y="209"/>
      <point x="476" y="209" type="curve" smooth="yes"/>
      <point x="457" y="209"/>
      <point x="449" y="233"/>
      <point x="469" y="311" type="curve" smooth="yes"/>
      <point x="514" y="504" type="line"/>
      <point x="445" y="504" type="line"/>
      <point x="426" y="458" type="line"/>
      <point x="419" y="458" type="line"/>
      <point x="413" y="493"/>
      <point x="396" y="514"/>
      <point x="356" y="514" type="curve" smooth="yes"/>
      <point x="285" y="514"/>
      <point x="219" y="444"/>
      <point x="194" y="304" type="curve" smooth="yes"/>
      <point x="174" y="197"/>
      <point x="187" y="108"/>
      <point x="270" y="108" type="curve" smooth="yes"/>
      <point x="322" y="108"/>
      <point x="353" y="142"/>
      <point x="365" y="175" type="curve"/>
      <point x="375" y="175" type="line"/>
      <point x="375" y="135"/>
      <point x="405" y="103"/>
      <point x="461" y="103" type="curve" smooth="yes"/>
      <point x="552" y="103"/>
      <point x="630" y="208"/>
      <point x="659" y="366" type="curve" smooth="yes"/>
      <point x="699" y="588"/>
      <point x="601" y="738"/>
      <point x="425" y="738" type="curve" smooth="yes"/>
      <point x="241" y="738"/>
      <point x="80" y="572"/>
      <point x="32" y="309" type="curve" smooth="yes"/>
      <point x="-11" y="70"/>
      <point x="68" y="-101"/>
    </contour>
    <contour>
      <point x="316" y="209" type="curve" smooth="yes"/>
      <point x="295" y="209"/>
      <point x="290" y="238"/>
      <point x="303" y="307" type="curve" smooth="yes"/>
      <point x="313" y="366"/>
      <point x="328" y="412"/>
      <point x="355" y="412" type="curve" smooth="yes"/>
      <point x="378" y="412"/>
      <point x="381" y="378"/>
      <point x="374" y="309" type="curve"/>
      <point x="358" y="248"/>
      <point x="342" y="209"/>
    </contour>
  </outline>
</glyph>
<glyph name="A" format="2">
  <advance width="469"/>
  <unicode hex="0041"/>
  <note>
A
</note>
  <anchor x="232" y="0" name="#exit"/>
  <anchor x="189" y="0" name="bottom"/>
  <anchor x="399" y="0" name="ogonek"/>
  <anchor x="330" y="729" name="top"/>
  <outline>
    <contour>
      <point x="-41" y="0" type="line"/>
      <point x="128" y="0" type="line"/>
      <point x="256" y="437" type="line"/>
      <point x="296" y="579" type="line"/>
      <point x="302" y="579" type="line"/>
      <point x="282" y="437" type="line"/>
      <point x="232" y="0" type="line"/>
      <point x="399" y="0" type="line"/>
      <point x="450" y="729" type="line"/>
      <point x="209" y="729" type="line"/>
    </contour>
    <contour>
      <point x="145" y="114" type="line"/>
      <point x="261" y="114" type="line"/>
      <point x="276" y="244" type="line"/>
      <point x="184" y="244" type="line"/>
    </contour>
  </outline>
</glyph>
<glyph name="B" format="2">
  <advance width="468"/>
  <unicode hex="0042"/>
  <note>
B
</note>
  <anchor x="192" y="0" name="bottom"/>
  <anchor x="347" y="729" name="top"/>
  <outline>
    <contour>
      <point x="-26" y="0" type="line"/>
      <point x="196" y="0" type="line" smooth="yes"/>
      <point x="347" y="0"/>
      <point x="438" y="92"/>
      <point x="438" y="243" type="curve" smooth="yes"/>
      <point x="438" y="309"/>
      <point x="408" y="359"/>
      <point x="352" y="375" type="curve"/>
      <point x="353" y="380" type="line"/>
      <point x="442" y="397"/>
      <point x="492" y="464"/>
      <point x="492" y="569" type="curve" smooth="yes"/>
      <point x="492" y="666"/>
      <point x="429" y="729"/>
      <point x="320" y="729" type="curve" smooth="yes"/>
      <point x="130" y="729" type="line"/>
    </contour>
    <contour>
      <point x="174" y="133" type="line"/>
      <point x="273" y="596" type="line"/>
      <point x="292" y="596" type="line" smooth="yes"/>
      <point x="323" y="596"/>
      <point x="334" y="573"/>
      <point x="326" y="530" type="curve" smooth="yes"/>
      <point x="318" y="494" type="line" smooth="yes"/>
      <point x="312" y="463"/>
      <point x="292" y="439"/>
      <point x="259" y="439" type="curve" smooth="yes"/>
      <point x="224" y="439" type="line"/>
      <point x="196" y="308" type="line"/>
      <point x="230" y="308" type="line" smooth="yes"/>
      <point x="266" y="308"/>
      <point x="280" y="281"/>
      <point x="268" y="227" type="curve" smooth="yes"/>
      <point x="262" y="199" type="line" smooth="yes"/>
      <point x="255" y="164"/>
      <point x="237" y="133"/>
      <point x="197" y="133" type="curve" smooth="yes"/>
    </contour>
  </outline>
</glyph>
<glyph name="C" format="2">
  <advance width="486"/>
  <unicode hex="0043"/>
  <note>
C
</note>
  <anchor x="198" y="0" name="bottom"/>
  <anchor x="340" y="729" name="top"/>
  <outline>
    <contour>
      <point x="208" y="-9" type="curve" smooth="yes"/>
      <point x="343" y="-9"/>
      <point x="440" y="75"/>
      <point x="462" y="255" type="curve"/>
      <point x="298" y="255" type="line"/>
      <point x="288" y="182"/>
      <point x="269" y="135"/>
      <point x="224" y="135" type="curve" smooth="yes"/>
      <point x="185" y="135"/>
      <point x="175" y="164"/>
      <point x="184" y="212" type="curve" smooth="yes"/>
      <point x="251" y="533" type="line" smooth="yes"/>
      <point x="258" y="570"/>
      <point x="276" y="595"/>
      <point x="312" y="595" type="curve" smooth="yes"/>
      <point x="357" y="595"/>
      <point x="368" y="557"/>
      <point x="345" y="474" type="curve"/>
      <point x="507" y="474" type="line"/>
      <point x="541" y="632"/>
      <point x="476" y="738"/>
      <point x="318" y="738" type="curve" smooth="yes"/>
      <point x="203" y="738"/>
      <point x="111" y="679"/>
      <point x="78" y="527" type="curve" smooth="yes"/>
      <point x="23" y="266" type="line" smooth="yes"/>
      <point x="-11" y="101"/>
      <point x="55" y="-9"/>
    </contour>
  </outline>
</glyph>
<glyph name="D" format="2">
  <advance width="489"/>
  <unicode hex="0044"/>
  <note>
D
</note>
  <anchor x="199" y="0" name="bottom"/>
  <anchor x="147" y="365" name="center"/>
  <anchor x="354" y="729" name="top"/>
  <outline>
    <contour>
      <point x="-23" y="0" type="line"/>
      <point x="173" y="0" type="line" smooth="yes"/>
      <point x="332" y="0"/>
      <point x="424" y="71"/>
      <point x="458" y="234" type="curve" smooth="yes"/>
      <point x="505" y="461" type="line" smooth="yes"/>
      <point x="543" y="644"/>
      <point x="462" y="729"/>
      <point x="325" y="729" type="curve" smooth="yes"/>
      <point x="129" y="729" type="line"/>
    </contour>
    <contour>
      <point x="176" y="135" type="line"/>
      <point x="274" y="598" type="line"/>
      <point x="258" y="585" type="line"/>
      <point x="299" y="585" type="line" smooth="yes"/>
      <point x="346" y="585"/>
      <point x="353" y="550"/>
      <point x="340" y="490" type="curve" smooth="yes"/>
      <point x="286" y="237" type="line" smooth="yes"/>
      <point x="270" y="162"/>
      <point x="248" y="144"/>
      <point x="208" y="144" type="curve" smooth="yes"/>
      <point x="169" y="144" type="line"/>
    </contour>
  </outline>
</glyph>
<glyph name="E" format="2">
  <advance width="389"/>
  <unicode hex="0045"/>
  <note>
E
</note>
  <anchor x="-24" y="0" name="#entry"/>
  <anchor x="147" y="0" name="bottom"/>
  <anchor x="312" y="0" name="ogonek"/>
  <anchor x="302" y="729" name="top"/>
  <anchor x="125" y="729" name="topleft"/>
  <outline>
    <contour>
      <point x="-24" y="0" type="line"/>
      <point x="312" y="0" type="line"/>
      <point x="343" y="147" type="line"/>
      <point x="179" y="147" type="line"/>
      <point x="270" y="582" type="line"/>
      <point x="428" y="582" type="line"/>
      <point x="459" y="729" type="line"/>
      <point x="129" y="729" type="line"/>
    </contour>
    <contour>
      <point x="195" y="299" type="line"/>
      <point x="335" y="299" type="line"/>
      <point x="365" y="443" type="line"/>
      <point x="225" y="443" type="line"/>
    </contour>
  </outline>
</glyph>
<glyph name="F" format="2">
  <advance width="368"/>
  <unicode hex="0046"/>
  <note>
F
</note>
  <anchor x="131" y="0" name="bottom"/>
  <anchor x="286" y="729" name="top"/>
  <outline>
    <contour>
      <point x="-24" y="0" type="line"/>
      <point x="148" y="0" type="line"/>
      <point x="270" y="582" type="line"/>
      <point x="418" y="582" type="line"/>
      <point x="449" y="729" type="line"/>
      <point x="129" y="729" type="line"/>
    </contour>
    <contour>
      <point x="193" y="292" type="line"/>
      <point x="332" y="292" type="line"/>
      <point x="362" y="436" type="line"/>
      <point x="223" y="436" type="line"/>
    </contour>
  </outline>
</glyph>
<glyph name="G" format="2">
  <advance width="493"/>
  <unicode hex="0047"/>
  <note>
G
</note>
  <anchor x="198" y="0" name="bottom"/>
  <anchor x="332" y="729" name="top"/>
  <outline>
    <contour>
      <point x="144" y="-9" type="curve" smooth="yes"/>
      <point x="201" y="-9"/>
      <point x="245" y="15"/>
      <point x="270" y="66" type="curve"/>
      <point x="277" y="66" type="line"/>
      <point x="278" y="0" type="line"/>
      <point x="409" y="0" type="line"/>
      <point x="491" y="391" type="line"/>
      <point x="268" y="391" type="line"/>
      <point x="235" y="239" type="line"/>
      <point x="292" y="239" type="line"/>
      <point x="274" y="148" type="line"/>
      <point x="263" y="138"/>
      <point x="249" y="133"/>
      <point x="231" y="133" type="curve" smooth="yes"/>
      <point x="198" y="133"/>
      <point x="173" y="156"/>
      <point x="183" y="201" type="curve" smooth="yes"/>
      <point x="254" y="530" type="line" smooth="yes"/>
      <point x="264" y="578"/>
      <point x="286" y="594"/>
      <point x="312" y="594" type="curve" smooth="yes"/>
      <point x="359" y="594"/>
      <point x="360" y="552"/>
      <point x="341" y="474" type="curve"/>
      <point x="508" y="474" type="line"/>
      <point x="547" y="632"/>
      <point x="484" y="738"/>
      <point x="324" y="738" type="curve" smooth="yes"/>
      <point x="206" y="738"/>
      <point x="116" y="679"/>
      <point x="82" y="527" type="curve" smooth="yes"/>
      <point x="11" y="206" type="line" smooth="yes"/>
      <point x="-12" y="102"/>
      <point x="6" y="-9"/>
    </contour>
  </outline>
</glyph>
<glyph name="H" format="2">
  <advance width="489"/>
  <unicode hex="0048"/>
  <note>
H
</note>
  <anchor x="197" y="0" name="bottom"/>
  <anchor x="310" y="585" name="center"/>
  <anchor x="352" y="729" name="top"/>
  <anchor x="125" y="729" name="topleft"/>
  <outline>
    <contour>
      <point x="-23" y="0" type="line"/>
      <point x="148" y="0" type="line"/>
      <point x="301" y="729" type="line"/>
      <point x="129" y="729" type="line"/>
    </contour>
    <contour>
      <point x="228" y="0" type="line"/>
      <point x="399" y="0" type="line"/>
      <point x="552" y="729" type="line"/>
      <point x="380" y="729" type="line"/>
    </contour>
    <contour>
      <point x="193" y="291" type="line"/>
      <point x="304" y="291" type="line"/>
      <point x="336" y="438" type="line"/>
      <point x="224" y="438" type="line"/>
    </contour>
  </outline>
</glyph>
<glyph name="I" format="2">
  <advance width="387"/>
  <unicode hex="0049"/>
  <note>
I
</note>
  <anchor x="136" y="0" name="bottom"/>
  <anchor x="308" y="0" name="ogonek"/>
  <anchor x="290" y="729" name="top"/>
  <anchor x="128" y="729" name="topleft"/>
  <outline>
    <contour>
      <point x="78" y="131" type="line"/>
      <point x="250" y="131" type="line"/>
      <point x="348" y="598" type="line"/>
      <point x="176" y="598" type="line"/>
    </contour>
    <contour>
      <point x="-36" y="0" type="line"/>
      <point x="308" y="0" type="line"/>
      <point x="339" y="147" type="line"/>
      <point x="-5" y="147" type="line"/>
    </contour>
    <contour>
      <point x="87" y="582" type="line"/>
      <point x="431" y="582" type="line"/>
      <point x="462" y="729" type="line"/>
      <point x="118" y="729" type="line"/>
    </contour>
  </outline>
</glyph>
<glyph name="J" format="2">
  <advance width="311"/>
  <unicode hex="004A"/>
  <note>
J
</note>
  <anchor x="113" y="0" name="bottom"/>
  <anchor x="290" y="729" name="top"/>
  <outline>
    <contour>
      <point x="-41" y="0" type="line"/>
      <point x="90" y="0" type="line" smooth="yes"/>
      <point x="170" y="0"/>
      <point x="232" y="45"/>
      <point x="252" y="140" type="curve" smooth="yes"/>
      <point x="376" y="729" type="line"/>
      <point x="204" y="729" type="line"/>
      <point x="81" y="146" type="line"/>
      <point x="-11" y="146" type="line"/>
    </contour>
  </outline>
</glyph>
<glyph name="K" format="2">
  <advance width="532"/>
  <unicode hex="004B"/>
  <note>
K
</note>
  <anchor x="213" y="0" name="bottom"/>
  <anchor x="368" y="729" name="top"/>
  <outline>
    <contour>
      <point x="-23" y="0" type="line"/>
      <point x="148" y="0" type="line"/>
      <point x="184" y="170" type="line"/>
      <point x="248" y="273" type="line"/>
      <point x="277" y="0" type="line"/>
      <point x="461" y="0" type="line"/>
      <point x="397" y="404" type="line"/>
      <point x="605" y="729" type="line"/>
      <point x="408" y="729" type="line"/>
      <point x="238" y="430" type="line"/>
      <point x="301" y="729" type="line"/>
      <point x="129" y="729" type="line"/>
    </contour>
  </outline>
</glyph>
<glyph name="L" format="2">
  <advance width="334"/>
  <unicode hex="004C"/>
  <note>
L
</note>
  <anchor x="118" y="0" name="bottom"/>
  <anchor x="138" y="365" name="center"/>
  <anchor x="215" y="729" name="top"/>
  <anchor x="301" y="729" name="topright"/>
  <outline>
    <contour>
      <point x="-24" y="0" type="line"/>
      <point x="260" y="0" type="line"/>
      <point x="291" y="148" type="line"/>
      <point x="178" y="148" type="line"/>
      <point x="302" y="729" type="line"/>
      <point x="129" y="729" type="line"/>
    </contour>
  </outline>
</glyph>
<glyph name="M" format="2">
  <advance width="646"/>
  <unicode hex="004D"/>
  <note>
M
</note>
  <anchor x="276" y="0" name="bottom"/>
  <anchor x="431" y="729" name="top"/>
  <outline>
    <contour>
      <point x="-23" y="0" type="line"/>
      <point x="126" y="0" type="line"/>
      <point x="221" y="445" type="line"/>
      <point x="238" y="535" type="line"/>
      <point x="242" y="535" type="line"/>
      <point x="234" y="448" type="line"/>
      <point x="203" y="0" type="line"/>
      <point x="328" y="0" type="line"/>
      <point x="486" y="448" type="line"/>
      <point x="517" y="535" type="line"/>
      <point x="521" y="535" type="line"/>
      <point x="500" y="445" type="line"/>
      <point x="405" y="0" type="line"/>
      <point x="556" y="0" type="line"/>
      <point x="710" y="729" type="line"/>
      <point x="460" y="729" type="line"/>
      <point x="372" y="451" type="line"/>
      <point x="348" y="374" type="line"/>
      <point x="344" y="374" type="line"/>
      <point x="355" y="451" type="line"/>
      <point x="385" y="729" type="line"/>
      <point x="129" y="729" type="line"/>
    </contour>
  </outline>
</glyph>
<glyph name="N" format="2">
  <advance width="497"/>
  <unicode hex="004E"/>
  <note>
N
</note>
  <anchor x="202" y="0" name="bottom"/>
  <anchor x="357" y="729" name="top"/>
  <outline>
    <contour>
      <point x="-24" y="0" type="line"/>
      <point x="135" y="0" type="line"/>
      <point x="208" y="348" type="line"/>
      <point x="213" y="348" type="line"/>
      <point x="212" y="302" type="line"/>
      <point x="211" y="0" type="line"/>
      <point x="407" y="0" type="line"/>
      <point x="562" y="729" type="line"/>
      <point x="402" y="729" type="line"/>
      <point x="328" y="371" type="line"/>
      <point x="321" y="371" type="line"/>
      <point x="323" y="428" type="line"/>
      <point x="322" y="729" type="line"/>
      <point x="129" y="729" type="line"/>
    </contour>
  </outline>
</glyph>
<glyph name="O" format="2">
  <advance width="495"/>
  <unicode hex="004F"/>
  <note>
O
</note>
  <anchor x="200" y="0" name="bottom"/>
  <anchor x="267" y="365" name="center"/>
  <anchor x="403" y="10" name="ogonek"/>
  <anchor x="332" y="729" name="top"/>
  <anchor x="121" y="729" name="topleft"/>
  <anchor x="430" y="709" name="topright"/>
  <outline>
    <contour>
      <point x="215" y="-9" type="curve" smooth="yes"/>
      <point x="333" y="-9"/>
      <point x="424" y="50"/>
      <point x="456" y="202" type="curve" smooth="yes"/>
      <point x="511" y="463" type="line" smooth="yes"/>
      <point x="546" y="628"/>
      <point x="479" y="738"/>
      <point x="320" y="738" type="curve" smooth="yes"/>
      <point x="202" y="738"/>
      <point x="110" y="679"/>
      <point x="78" y="527" type="curve" smooth="yes"/>
      <point x="23" y="266" type="line" smooth="yes"/>
      <point x="-12" y="101"/>
      <point x="55" y="-9"/>
    </contour>
    <contour>
      <point x="225" y="134" type="curve" smooth="yes"/>
      <point x="190" y="134"/>
      <point x="171" y="160"/>
      <point x="181" y="205" type="curve" smooth="yes"/>
      <point x="253" y="543" type="line" smooth="yes"/>
      <point x="260" y="574"/>
      <point x="277" y="595"/>
      <point x="310" y="595" type="curve" smooth="yes"/>
      <point x="345" y="595"/>
      <point x="362" y="569"/>
      <point x="352" y="524" type="curve" smooth="yes"/>
      <point x="280" y="186" type="line" smooth="yes"/>
      <point x="273" y="155"/>
      <point x="258" y="134"/>
    </contour>
  </outline>
</glyph>
<glyph name="P" format="2">
  <advance width="474"/>
  <unicode hex="0050"/>
  <note>
P
</note>
  <anchor x="188" y="0" name="bottom"/>
  <anchor x="343" y="729" name="top"/>
  <outline>
    <contour>
      <point x="-25" y="0" type="line"/>
      <point x="147" y="0" type="line"/>
      <point x="272" y="591" type="line"/>
      <point x="299" y="591" type="line" smooth="yes"/>
      <point x="336" y="591"/>
      <point x="349" y="566"/>
      <point x="339" y="517" type="curve" smooth="yes"/>
      <point x="329" y="469" type="line" smooth="yes"/>
      <point x="322" y="427"/>
      <point x="298" y="407"/>
      <point x="265" y="407" type="curve" smooth="yes"/>
      <point x="217" y="407" type="line"/>
      <point x="187" y="268" type="line"/>
      <point x="264" y="268" type="line" smooth="yes"/>
      <point x="417" y="268"/>
      <point x="502" y="374"/>
      <point x="507" y="537" type="curve" smooth="yes"/>
      <point x="510" y="665"/>
      <point x="438" y="729"/>
      <point x="316" y="729" type="curve" smooth="yes"/>
      <point x="129" y="729" type="line"/>
    </contour>
  </outline>
</glyph>
<glyph name="R" format="2">
  <advance width="476"/>
  <unicode hex="0052"/>
  <note>
R
</note>
  <anchor x="190" y="0" name="bottom"/>
  <anchor x="293" y="729" name="top"/>
  <outline>
    <contour>
      <point x="-25" y="0" type="line"/>
      <point x="147" y="0" type="line"/>
      <point x="272" y="588" type="line"/>
      <point x="286" y="588" type="line" smooth="yes"/>
      <point x="333" y="588"/>
      <point x="337" y="555"/>
      <point x="330" y="519" type="curve" smooth="yes"/>
      <point x="319" y="463" type="line" smooth="yes"/>
      <point x="310" y="417"/>
      <point x="283" y="402"/>
      <point x="242" y="402" type="curve" smooth="yes"/>
      <point x="216" y="402" type="line"/>
      <point x="187" y="263" type="line"/>
      <point x="215" y="263" type="line"/>
      <point x="226" y="0" type="line"/>
      <point x="404" y="0" type="line"/>
      <point x="381" y="311" type="line"/>
      <point x="362" y="294" type="line"/>
      <point x="364" y="294" type="line"/>
      <point x="446" y="330"/>
      <point x="498" y="423"/>
      <point x="498" y="543" type="curve" smooth="yes"/>
      <point x="498" y="669"/>
      <point x="432" y="729"/>
      <point x="304" y="729" type="curve" smooth="yes"/>
      <point x="129" y="729" type="line"/>
    </contour>
  </outline>
</glyph>
<glyph name="S" format="2">
  <advance width="458"/>
  <unicode hex="0053"/>
  <note>
S
</note>
  <anchor x="201" y="0" name="bottom"/>
  <anchor x="313" y="729" name="top"/>
  <outline>
    <contour>
      <point x="199" y="-9" type="curve" smooth="yes"/>
      <point x="333" y="-9"/>
      <point x="423" y="83"/>
      <point x="423" y="219" type="curve" smooth="yes"/>
      <point x="423" y="293"/>
      <point x="394" y="349"/>
      <point x="338" y="412" type="curve" smooth="yes"/>
      <point x="293" y="463" type="line" smooth="yes"/>
      <point x="256" y="506"/>
      <point x="249" y="516"/>
      <point x="249" y="543" type="curve" smooth="yes"/>
      <point x="249" y="579"/>
      <point x="265" y="596"/>
      <point x="292" y="596" type="curve" smooth="yes"/>
      <point x="330" y="596"/>
      <point x="327" y="543"/>
      <point x="319" y="510" type="curve"/>
      <point x="482" y="510" type="line"/>
      <point x="500" y="647"/>
      <point x="432" y="738"/>
      <point x="291" y="738" type="curve" smooth="yes"/>
      <point x="164" y="738"/>
      <point x="75" y="649"/>
      <point x="75" y="517" type="curve" smooth="yes"/>
      <point x="75" y="446"/>
      <point x="107" y="392"/>
      <point x="147" y="344" type="curve" smooth="yes"/>
      <point x="201" y="280" type="line" smooth="yes"/>
      <point x="232" y="243"/>
      <point x="242" y="225"/>
      <point x="242" y="200" type="curve" smooth="yes"/>
      <point x="242" y="160"/>
      <point x="225" y="137"/>
      <point x="199" y="137" type="curve" smooth="yes"/>
      <point x="156" y="137"/>
      <point x="167" y="191"/>
      <point x="177" y="226" type="curve"/>
      <point x="12" y="226" type="line"/>
      <point x="-7" y="85"/>
      <point x="59" y="-9"/>
    </contour>
  </outline>
</glyph>
<glyph name="T" format="2">
  <advance width="415"/>
  <unicode hex="0054"/>
  <note>
T
</note>
  <anchor x="151" y="0" name="bottom"/>
  <anchor x="229" y="365" name="center"/>
  <anchor x="304" y="729" name="top"/>
  <outline>
    <contour>
      <point x="65" y="0" type="line"/>
      <point x="237" y="0" type="line"/>
      <point x="359" y="583" type="line"/>
      <point x="465" y="583" type="line"/>
      <point x="496" y="729" type="line"/>
      <point x="113" y="729" type="line"/>
      <point x="82" y="583" type="line"/>
      <point x="187" y="583" type="line"/>
    </contour>
  </outline>
</glyph>
<glyph name="U" format="2">
  <advance width="486"/>
  <unicode hex="0055"/>
  <note>
U
</note>
  <anchor x="197" y="0" name="bottom"/>
  <anchor x="308" y="8" name="ogonek"/>
  <anchor x="340" y="729" name="top"/>
  <anchor x="450" y="729" name="topright"/>
  <outline>
    <contour>
      <point x="208" y="-9" type="curve" smooth="yes"/>
      <point x="321" y="-9"/>
      <point x="410" y="44"/>
      <point x="439" y="181" type="curve" smooth="yes"/>
      <point x="555" y="729" type="line"/>
      <point x="383" y="729" type="line"/>
      <point x="269" y="187" type="line" smooth="yes"/>
      <point x="262" y="153"/>
      <point x="249" y="137"/>
      <point x="221" y="137" type="curve" smooth="yes"/>
      <point x="191" y="137"/>
      <point x="177" y="155"/>
      <point x="185" y="194" type="curve" smooth="yes"/>
      <point x="297" y="729" type="line"/>
      <point x="125" y="729" type="line"/>
      <point x="22" y="237" type="line" smooth="yes"/>
      <point x="-9" y="89"/>
      <point x="67" y="-9"/>
    </contour>
  </outline>
</glyph>
<glyph name="V" format="2">
  <advance width="489"/>
  <unicode hex="0056"/>
  <note>
V
</note>
  <anchor x="198" y="0" name="bottom"/>
  <anchor x="353" y="729" name="top"/>
  <outline>
    <contour>
      <point x="59" y="4" type="line"/>
      <point x="315" y="4" type="line"/>
      <point x="569" y="729" type="line"/>
      <point x="387" y="729" type="line"/>
      <point x="269" y="322" type="line"/>
      <point x="223" y="151" type="line"/>
      <point x="217" y="151" type="line"/>
      <point x="237" y="323" type="line"/>
      <point x="279" y="729" type="line"/>
      <point x="111" y="729" type="line"/>
    </contour>
  </outline>
</glyph>
<glyph name="W" format="2">
  <advance width="657"/>
  <unicode hex="0057"/>
  <note>
W
</note>
  <anchor x="283" y="0" name="bottom"/>
  <anchor x="438" y="729" name="top"/>
  <outline>
    <contour>
      <point x="30" y="0" type="line"/>
      <point x="229" y="0" type="line"/>
      <point x="301" y="239" type="line"/>
      <point x="357" y="428" type="line"/>
      <point x="361" y="428" type="line"/>
      <point x="338" y="239" type="line"/>
      <point x="308" y="0" type="line"/>
      <point x="513" y="0" type="line"/>
      <point x="739" y="729" type="line"/>
      <point x="574" y="729" type="line"/>
      <point x="492" y="408" type="line"/>
      <point x="439" y="187" type="line"/>
      <point x="432" y="187" type="line"/>
      <point x="438" y="224" type="line"/>
      <point x="501" y="729" type="line"/>
      <point x="349" y="729" type="line"/>
      <point x="201" y="222" type="line"/>
      <point x="191" y="187" type="line"/>
      <point x="186" y="187" type="line"/>
      <point x="222" y="388" type="line"/>
      <point x="276" y="729" type="line"/>
      <point x="112" y="729" type="line"/>
    </contour>
  </outline>
</glyph>
<glyph name="X" format="2">
  <advance width="504"/>
  <unicode hex="0058"/>
  <note>
X
</note>
  <anchor x="204" y="0" name="bottom"/>
  <anchor x="359" y="729" name="top"/>
  <outline>
    <contour>
      <point x="-45" y="0" type="line"/>
      <point x="128" y="0" type="line"/>
      <point x="242" y="234" type="line"/>
      <point x="253" y="234" type="line"/>
      <point x="264" y="0" type="line"/>
      <point x="433" y="0" type="line"/>
      <point x="392" y="386" type="line"/>
      <point x="571" y="729" type="line"/>
      <point x="397" y="729" type="line"/>
      <point x="305" y="518" type="line"/>
      <point x="297" y="518" type="line"/>
      <point x="288" y="729" type="line"/>
      <point x="119" y="729" type="line"/>
      <point x="162" y="383" type="line"/>
    </contour>
  </outline>
</glyph>
<glyph name="Y" format="2">
  <advance width="502"/>
  <unicode hex="0059"/>
  <note>
Y
</note>
  <anchor x="193" y="0" name="bottom"/>
  <anchor x="343" y="729" name="top"/>
  <anchor x="124" y="729" name="topleft"/>
  <outline>
    <contour>
      <point x="108" y="0" type="line"/>
      <point x="278" y="0" type="line"/>
      <point x="330" y="243" type="line"/>
      <point x="591" y="729" type="line"/>
      <point x="417" y="729" type="line"/>
      <point x="323" y="521" type="line"/>
      <point x="287" y="436" type="line"/>
      <point x="277" y="436" type="line"/>
      <point x="276" y="521" type="line"/>
      <point x="269" y="729" type="line"/>
      <point x="102" y="729" type="line"/>
      <point x="158" y="243" type="line"/>
    </contour>
  </outline>
</glyph>
<glyph name="Z" format="2">
  <advance width="439"/>
  <unicode hex="005A"/>
  <note>
Z
</note>
  <anchor x="162" y="0" name="bottom"/>
  <anchor x="239" y="365" name="center"/>
  <anchor x="317" y="729" name="top"/>
  <outline>
    <contour>
      <point x="-39" y="0" type="line"/>
      <point x="361" y="0" type="line"/>
      <point x="392" y="147" type="line"/>
      <point x="184" y="147" type="line"/>
      <point x="483" y="595" type="line"/>
      <point x="511" y="729" type="line"/>
      <point x="127" y="729" type="line"/>
      <point x="96" y="583" type="line"/>
      <point x="288" y="583" type="line"/>
      <point x="-10" y="136" type="line"/>
    </contour>
  </outline>
</glyph>
<glyph name="bracketleft" format="2">
  <advance width="302"/>
  <unicode hex="005B"/>
  <outline>
    <contour>
      <point x="-60" y="-167" type="line"/>
      <point x="190" y="-167" type="line"/>
      <point x="217" y="-41" type="line"/>
      <point x="131" y="-41" type="line"/>
      <point x="279" y="657" type="line"/>
      <point x="365" y="657" type="line"/>
      <point x="394" y="793" type="line"/>
      <point x="144" y="793" type="line"/>
    </contour>
  </outline>
</glyph>
<glyph name="backslash" format="2">
  <advance width="365"/>
  <unicode hex="005C"/>
  <outline>
    <contour>
      <point x="134" y="-82" type="line"/>
      <point x="291" y="-82" type="line"/>
      <point x="271" y="729" type="line"/>
      <point x="112" y="729" type="line"/>
    </contour>
  </outline>
</glyph>
<glyph name="asciicircum" format="2">
  <advance width="500"/>
  <unicode hex="005E"/>
  <outline>
    <contour>
      <point x="57" y="468" type="line"/>
      <point x="233" y="468" type="line"/>
      <point x="327" y="581" type="line"/>
      <point x="371" y="468" type="line"/>
      <point x="530" y="468" type="line"/>
      <point x="443" y="729" type="line"/>
      <point x="258" y="729" type="line"/>
    </contour>
  </outline>
</glyph>
<glyph name="a" format="2">
  <advance width="475"/>
  <unicode hex="0061"/>
  <note>
a
</note>
  <anchor x="192" y="0" name="bottom"/>
  <anchor x="391" y="0" name="ogonek"/>
  <anchor x="308" y="545" name="top"/>
  <outline>
    <contour>
      <point x="109" y="-9" type="curve" smooth="yes"/>
      <point x="156" y="-9"/>
      <point x="200" y="17"/>
      <point x="228" y="63" type="curve"/>
      <point x="234" y="63" type="line"/>
      <point x="232" y="0" type="line"/>
      <point x="390" y="0" type="line"/>
      <point x="505" y="545" type="line"/>
      <point x="348" y="545" type="line"/>
      <point x="320" y="468" type="line"/>
      <point x="313" y="468" type="line"/>
      <point x="300" y="519"/>
      <point x="261" y="554"/>
      <point x="202" y="554" type="curve" smooth="yes"/>
      <point x="138" y="554"/>
      <point x="72" y="522"/>
      <point x="44" y="387" type="curve" smooth="yes"/>
      <point x="0" y="170" type="line" smooth="yes"/>
      <point x="-21" y="67"/>
      <point x="20" y="-9"/>
    </contour>
    <contour>
      <point x="209" y="125" type="curve" smooth="yes"/>
      <point x="169" y="125"/>
      <point x="166" y="158"/>
      <point x="176" y="204" type="curve" smooth="yes"/>
      <point x="208" y="356" type="line" smooth="yes"/>
      <point x="216" y="396"/>
      <point x="232" y="419"/>
      <point x="266" y="419" type="curve" smooth="yes"/>
      <point x="280" y="419"/>
      <point x="294" y="415"/>
      <point x="304" y="399" type="curve"/>
      <point x="250" y="142" type="line"/>
      <point x="238" y="132"/>
      <point x="224" y="125"/>
    </contour>
  </outline>
</glyph>
<glyph name="b" format="2">
  <advance width="474"/>
  <unicode hex="0062"/>
  <note>
b
</note>
  <anchor x="188" y="0" name="bottom"/>
  <anchor x="358" y="800" name="top"/>
  <outline>
    <contour>
      <point x="276" y="-9" type="curve" smooth="yes"/>
      <point x="351" y="-9"/>
      <point x="406" y="41"/>
      <point x="429" y="153" type="curve" smooth="yes"/>
      <point x="472" y="359" type="line" smooth="yes"/>
      <point x="499" y="491"/>
      <point x="440" y="554"/>
      <point x="367" y="554" type="curve" smooth="yes"/>
      <point x="319" y="554"/>
      <point x="277" y="531"/>
      <point x="248" y="482" type="curve"/>
      <point x="242" y="482" type="line"/>
      <point x="294" y="729" type="line"/>
      <point x="124" y="729" type="line"/>
      <point x="-30" y="0" type="line"/>
      <point x="127" y="0" type="line"/>
      <point x="155" y="77" type="line"/>
      <point x="162" y="77" type="line"/>
      <point x="176" y="25"/>
      <point x="214" y="-9"/>
    </contour>
    <contour>
      <point x="209" y="126" type="curve" smooth="yes"/>
      <point x="195" y="126"/>
      <point x="181" y="130"/>
      <point x="171" y="146" type="curve"/>
      <point x="225" y="403" type="line"/>
      <point x="237" y="413"/>
      <point x="251" y="420"/>
      <point x="266" y="420" type="curve" smooth="yes"/>
      <point x="306" y="420"/>
      <point x="309" y="387"/>
      <point x="299" y="341" type="curve" smooth="yes"/>
      <point x="267" y="189" type="line" smooth="yes"/>
      <point x="259" y="149"/>
      <point x="243" y="126"/>
    </contour>
  </outline>
</glyph>
<glyph name="c" format="2">
  <advance width="447"/>
  <unicode hex="0063"/>
  <note>
c
</note>
  <anchor x="183" y="0" name="bottom"/>
  <anchor x="268" y="545" name="top"/>
  <outline>
    <contour>
      <point x="201" y="-9" type="curve" smooth="yes"/>
      <point x="309" y="-9"/>
      <point x="401" y="59"/>
      <point x="418" y="205" type="curve"/>
      <point x="265" y="205" type="line"/>
      <point x="255" y="149"/>
      <point x="238" y="125"/>
      <point x="204" y="125" type="curve" smooth="yes"/>
      <point x="174" y="125"/>
      <point x="160" y="147"/>
      <point x="168" y="185" type="curve" smooth="yes"/>
      <point x="207" y="366" type="line" smooth="yes"/>
      <point x="215" y="403"/>
      <point x="231" y="420"/>
      <point x="259" y="420" type="curve" smooth="yes"/>
      <point x="293" y="420"/>
      <point x="310" y="393"/>
      <point x="296" y="335" type="curve"/>
      <point x="444" y="335" type="line"/>
      <point x="465" y="467"/>
      <point x="391" y="555"/>
      <point x="257" y="555" type="curve" smooth="yes"/>
      <point x="162" y="555"/>
      <point x="67" y="509"/>
      <point x="36" y="364" type="curve" smooth="yes"/>
      <point x="11" y="245" type="line" smooth="yes"/>
      <point x="-24" y="83"/>
      <point x="64" y="-9"/>
    </contour>
  </outline>
</glyph>
<glyph name="d" format="2">
  <advance width="474"/>
  <unicode hex="0064"/>
  <note>
d
</note>
  <anchor x="191" y="0" name="bottom"/>
  <anchor x="420" y="621" name="center"/>
  <anchor x="361" y="800" name="top"/>
  <anchor x="543" y="729" name="topright"/>
  <outline>
    <contour>
      <point x="108" y="-9" type="curve" smooth="yes"/>
      <point x="155" y="-9"/>
      <point x="200" y="14"/>
      <point x="225" y="63" type="curve"/>
      <point x="233" y="63" type="line"/>
      <point x="231" y="0" type="line"/>
      <point x="389" y="0" type="line"/>
      <point x="543" y="729" type="line"/>
      <point x="373" y="729" type="line"/>
      <point x="318" y="468" type="line"/>
      <point x="311" y="468" type="line"/>
      <point x="299" y="515"/>
      <point x="261" y="554"/>
      <point x="202" y="554" type="curve" smooth="yes"/>
      <point x="138" y="554"/>
      <point x="72" y="522"/>
      <point x="44" y="387" type="curve" smooth="yes"/>
      <point x="0" y="170" type="line" smooth="yes"/>
      <point x="-21" y="67"/>
      <point x="20" y="-9"/>
    </contour>
    <contour>
      <point x="207" y="125" type="curve" smooth="yes"/>
      <point x="168" y="125"/>
      <point x="166" y="157"/>
      <point x="176" y="204" type="curve" smooth="yes"/>
      <point x="207" y="356" type="line" smooth="yes"/>
      <point x="215" y="396"/>
      <point x="230" y="419"/>
      <point x="264" y="419" type="curve" smooth="yes"/>
      <point x="278" y="419"/>
      <point x="293" y="415"/>
      <point x="304" y="397" type="curve"/>
      <point x="250" y="144" type="line"/>
      <point x="238" y="132"/>
      <point x="222" y="125"/>
    </contour>
  </outline>
</glyph>
<glyph name="e" format="2">
  <advance width="451"/>
  <unicode hex="0065"/>
  <note>
e
</note>
  <anchor x="-41" y="0" name="#entry"/>
  <anchor x="190" y="0" name="bottom"/>
  <anchor x="303" y="4" name="ogonek"/>
  <anchor x="272" y="545" name="top"/>
  <outline>
    <contour>
      <point x="199" y="-9" type="curve" smooth="yes"/>
      <point x="306" y="-9"/>
      <point x="394" y="57"/>
      <point x="414" y="173" type="curve"/>
      <point x="253" y="173" type="line"/>
      <point x="246" y="139"/>
      <point x="226" y="126"/>
      <point x="202" y="126" type="curve" smooth="yes"/>
      <point x="166" y="126"/>
      <point x="160" y="154"/>
      <point x="167" y="187" type="curve" smooth="yes"/>
      <point x="205" y="366" type="line" smooth="yes"/>
      <point x="212" y="399"/>
      <point x="228" y="420"/>
      <point x="256" y="420" type="curve" smooth="yes"/>
      <point x="281" y="420"/>
      <point x="299" y="403"/>
      <point x="289" y="360" type="curve" smooth="yes"/>
      <point x="279" y="318" type="line"/>
      <point x="295" y="330" type="line"/>
      <point x="162" y="330" type="line"/>
      <point x="139" y="224" type="line"/>
      <point x="424" y="224" type="line"/>
      <point x="442" y="306" type="line" smooth="yes"/>
      <point x="479" y="471"/>
      <point x="394" y="555"/>
      <point x="257" y="555" type="curve" smooth="yes"/>
      <point x="162" y="555"/>
      <point x="67" y="509"/>
      <point x="36" y="364" type="curve" smooth="yes"/>
      <point x="11" y="245" type="line" smooth="yes"/>
      <point x="-24" y="83"/>
      <point x="64" y="-9"/>
    </contour>
  </outline>
</glyph>
<glyph name="f" format="2">
  <advance width="335"/>
  <unicode hex="0066"/>
  <note>
f
</note>
  <anchor x="120" y="0" name="bottom"/>
  <anchor x="290" y="800" name="top"/>
  <outline>
    <contour>
      <point x="15" y="0" type="line"/>
      <point x="185" y="0" type="line"/>
      <point x="271" y="408" type="line"/>
      <point x="351" y="408" type="line"/>
      <point x="381" y="545" type="line"/>
      <point x="300" y="545" type="line"/>
      <point x="311" y="595" type="line"/>
      <point x="391" y="595" type="line"/>
      <point x="419" y="729" type="line"/>
      <point x="277" y="729" type="line" smooth="yes"/>
      <point x="213" y="729"/>
      <point x="164" y="702"/>
      <point x="147" y="623" type="curve" smooth="yes"/>
      <point x="130" y="545" type="line"/>
      <point x="70" y="545" type="line"/>
      <point x="41" y="408" type="line"/>
      <point x="101" y="408" type="line"/>
    </contour>
  </outline>
</glyph>
<glyph name="g" format="2">
  <advance width="474"/>
  <unicode hex="0067"/>
  <note>
g
</note>
  <anchor x="144" y="-200" name="bottom"/>
  <anchor x="302" y="545" name="top"/>
  <outline>
    <contour>
      <point x="155" y="-175" type="curve" smooth="yes"/>
      <point x="284" y="-175"/>
      <point x="365" y="-111"/>
      <point x="390" y="11" type="curve" smooth="yes"/>
      <point x="503" y="545" type="line"/>
      <point x="346" y="545" type="line"/>
      <point x="320" y="468" type="line"/>
      <point x="310" y="468" type="line"/>
      <point x="301" y="520"/>
      <point x="261" y="554"/>
      <point x="203" y="554" type="curve" smooth="yes"/>
      <point x="127" y="554"/>
      <point x="68" y="502"/>
      <point x="43" y="382" type="curve" smooth="yes"/>
      <point x="10" y="223" type="line" smooth="yes"/>
      <point x="-9" y="133"/>
      <point x="6" y="32"/>
      <point x="114" y="32" type="curve" smooth="yes"/>
      <point x="161" y="32"/>
      <point x="204" y="55"/>
      <point x="233" y="104" type="curve"/>
      <point x="241" y="104" type="line"/>
      <point x="220" y="7" type="line" smooth="yes"/>
      <point x="214" y="-24"/>
      <point x="200" y="-46"/>
      <point x="162" y="-46" type="curve" smooth="yes"/>
      <point x="134" y="-46"/>
      <point x="118" y="-29"/>
      <point x="119" y="-6" type="curve"/>
      <point x="-28" y="-6" type="line"/>
      <point x="-31" y="-110"/>
      <point x="43" y="-175"/>
    </contour>
    <contour>
      <point x="216" y="166" type="curve" smooth="yes"/>
      <point x="183" y="166"/>
      <point x="173" y="192"/>
      <point x="184" y="245" type="curve" smooth="yes"/>
      <point x="207" y="356" type="line" smooth="yes"/>
      <point x="216" y="396"/>
      <point x="229" y="419"/>
      <point x="263" y="419" type="curve" smooth="yes"/>
      <point x="277" y="419"/>
      <point x="291" y="415"/>
      <point x="302" y="398" type="curve"/>
      <point x="257" y="185" type="line"/>
      <point x="245" y="173"/>
      <point x="231" y="166"/>
    </contour>
  </outline>
</glyph>
<glyph name="h" format="2">
  <advance width="477"/>
  <unicode hex="0068"/>
  <note>
h
</note>
  <anchor x="193" y="0" name="bottom"/>
  <anchor x="201" y="621" name="center"/>
  <anchor x="209" y="729" name="top"/>
  <outline>
    <contour>
      <point x="-30" y="0" type="line"/>
      <point x="140" y="0" type="line"/>
      <point x="221" y="382" type="line"/>
      <point x="239" y="405"/>
      <point x="252" y="413"/>
      <point x="270" y="413" type="curve" smooth="yes"/>
      <point x="304" y="413"/>
      <point x="307" y="385"/>
      <point x="300" y="352" type="curve" smooth="yes"/>
      <point x="226" y="0" type="line"/>
      <point x="396" y="0" type="line"/>
      <point x="470" y="353" type="line" smooth="yes"/>
      <point x="501" y="499"/>
      <point x="449" y="554"/>
      <point x="372" y="554" type="curve" smooth="yes"/>
      <point x="321" y="554"/>
      <point x="276" y="532"/>
      <point x="250" y="482" type="curve"/>
      <point x="242" y="482" type="line"/>
      <point x="294" y="729" type="line"/>
      <point x="124" y="729" type="line"/>
    </contour>
  </outline>
</glyph>
<glyph name="k" format="2">
  <advance width="478"/>
  <unicode hex="006B"/>
  <note>
k
</note>
  <anchor x="189" y="0" name="bottom"/>
  <anchor x="359" y="800" name="top"/>
  <outline>
    <contour>
      <point x="-31" y="0" type="line"/>
      <point x="139" y="0" type="line"/>
      <point x="294" y="729" type="line"/>
      <point x="124" y="729" type="line"/>
    </contour>
    <contour>
      <point x="229" y="0" type="line"/>
      <point x="412" y="0" type="line"/>
      <point x="354" y="339" type="line"/>
      <point x="198" y="283" type="line"/>
    </contour>
    <contour>
      <point x="155" y="106" type="line"/>
      <point x="244" y="231" type="line"/>
      <point x="288" y="231" type="line"/>
      <point x="523" y="545" type="line"/>
      <point x="339" y="545" type="line"/>
      <point x="203" y="323" type="line"/>
    </contour>
  </outline>
</glyph>
<glyph name="l" format="2">
  <advance width="225"/>
  <unicode hex="006C"/>
  <note>
l
</note>
  <anchor x="55" y="0" name="bottom"/>
  <anchor x="133" y="365" name="center"/>
  <anchor x="209" y="729" name="top"/>
  <anchor x="294" y="729" name="topright"/>
  <outline>
    <contour>
      <point x="-30" y="0" type="line"/>
      <point x="140" y="0" type="line"/>
      <point x="294" y="729" type="line"/>
      <point x="124" y="729" type="line"/>
    </contour>
  </outline>
</glyph>
<glyph name="m" format="2">
  <advance width="730"/>
  <unicode hex="006D"/>
  <note>
m
</note>
  <anchor x="319" y="0" name="bottom"/>
  <anchor x="435" y="545" name="top"/>
  <outline>
    <contour>
      <point x="-30" y="0" type="line"/>
      <point x="140" y="0" type="line"/>
      <point x="220" y="381" type="line"/>
      <point x="239" y="405"/>
      <point x="251" y="413"/>
      <point x="264" y="413" type="curve" smooth="yes"/>
      <point x="302" y="413"/>
      <point x="303" y="381"/>
      <point x="294" y="334" type="curve" smooth="yes"/>
      <point x="223" y="0" type="line"/>
      <point x="394" y="0" type="line"/>
      <point x="472" y="364" type="line" smooth="yes"/>
      <point x="473" y="368"/>
      <point x="474" y="374"/>
      <point x="475" y="381" type="curve"/>
      <point x="493" y="406"/>
      <point x="505" y="413"/>
      <point x="518" y="413" type="curve" smooth="yes"/>
      <point x="552" y="413"/>
      <point x="561" y="388"/>
      <point x="549" y="334" type="curve" smooth="yes"/>
      <point x="479" y="0" type="line"/>
      <point x="648" y="0" type="line"/>
      <point x="726" y="364" type="line" smooth="yes"/>
      <point x="750" y="478"/>
      <point x="722" y="554"/>
      <point x="625" y="554" type="curve" smooth="yes"/>
      <point x="568" y="554"/>
      <point x="512" y="518"/>
      <point x="483" y="467" type="curve"/>
      <point x="477" y="467" type="line"/>
      <point x="468" y="521"/>
      <point x="434" y="554"/>
      <point x="371" y="554" type="curve" smooth="yes"/>
      <point x="322" y="554"/>
      <point x="275" y="525"/>
      <point x="250" y="481" type="curve"/>
      <point x="242" y="481" type="line"/>
      <point x="243" y="545" type="line"/>
      <point x="85" y="545" type="line"/>
    </contour>
  </outline>
</glyph>
<glyph name="n" format="2">
  <advance width="476"/>
  <unicode hex="006E"/>
  <note>
n
</note>
  <anchor x="192" y="0" name="bottom"/>
  <anchor x="308" y="545" name="top"/>
  <outline>
    <contour>
      <point x="-30" y="0" type="line"/>
      <point x="139" y="0" type="line"/>
      <point x="220" y="382" type="line"/>
      <point x="238" y="405"/>
      <point x="251" y="413"/>
      <point x="269" y="413" type="curve" smooth="yes"/>
      <point x="303" y="413"/>
      <point x="306" y="385"/>
      <point x="299" y="352" type="curve" smooth="yes"/>
      <point x="225" y="0" type="line"/>
      <point x="395" y="0" type="line"/>
      <point x="469" y="353" type="line" smooth="yes"/>
      <point x="500" y="499"/>
      <point x="448" y="554"/>
      <point x="371" y="554" type="curve" smooth="yes"/>
      <point x="320" y="554"/>
      <point x="275" y="532"/>
      <point x="249" y="482" type="curve"/>
      <point x="241" y="482" type="line"/>
      <point x="241" y="545" type="line"/>
      <point x="85" y="545" type="line"/>
    </contour>
  </outline>
</glyph>
<glyph name="o" format="2">
  <advance width="461"/>
  <unicode hex="006F"/>
  <note>
o
</note>
  <anchor x="216" y="0" name="#exit"/>
  <anchor x="183" y="0" name="bottom"/>
  <anchor x="231" y="273" name="center"/>
  <anchor x="369" y="10" name="ogonek"/>
  <anchor x="278" y="545" name="top"/>
  <anchor x="345" y="516" name="topright"/>
  <outline>
    <contour>
      <point x="198" y="-9" type="curve" smooth="yes"/>
      <point x="311" y="-9"/>
      <point x="397" y="52"/>
      <point x="425" y="182" type="curve" smooth="yes"/>
      <point x="450" y="301" type="line" smooth="yes"/>
      <point x="485" y="463"/>
      <point x="398" y="555"/>
      <point x="257" y="555" type="curve" smooth="yes"/>
      <point x="162" y="555"/>
      <point x="67" y="509"/>
      <point x="36" y="364" type="curve" smooth="yes"/>
      <point x="11" y="245" type="line" smooth="yes"/>
      <point x="-24" y="83"/>
      <point x="64" y="-9"/>
    </contour>
    <contour>
      <point x="206" y="125" type="curve" smooth="yes"/>
      <point x="181" y="125"/>
      <point x="159" y="141"/>
      <point x="168" y="184" type="curve" smooth="yes"/>
      <point x="208" y="373" type="line" smooth="yes"/>
      <point x="215" y="406"/>
      <point x="228" y="421"/>
      <point x="255" y="421" type="curve" smooth="yes"/>
      <point x="280" y="421"/>
      <point x="302" y="405"/>
      <point x="293" y="362" type="curve" smooth="yes"/>
      <point x="253" y="173" type="line" smooth="yes"/>
      <point x="246" y="140"/>
      <point x="233" y="125"/>
    </contour>
  </outline>
</glyph>
<glyph name="p" format="2">
  <advance width="474"/>
  <unicode hex="0070"/>
  <note>
p
</note>
  <anchor x="21" y="22" name="bottom"/>
  <anchor x="21" y="22" name="top"/>
  <outline>
    <contour>
      <point x="-65" y="-167" type="line"/>
      <point x="105" y="-167" type="line"/>
      <point x="156" y="77" type="line"/>
      <point x="162" y="77" type="line"/>
      <point x="176" y="25"/>
      <point x="214" y="-9"/>
      <point x="276" y="-9" type="curve" smooth="yes"/>
      <point x="351" y="-9"/>
      <point x="406" y="41"/>
      <point x="429" y="153" type="curve" smooth="yes"/>
      <point x="472" y="359" type="line" smooth="yes"/>
      <point x="496" y="478"/>
      <point x="455" y="554"/>
      <point x="367" y="554" type="curve" smooth="yes"/>
      <point x="319" y="554"/>
      <point x="277" y="531"/>
      <point x="248" y="482" type="curve"/>
      <point x="241" y="482" type="line"/>
      <point x="243" y="545" type="line"/>
      <point x="85" y="545" type="line"/>
    </contour>
    <contour>
      <point x="209" y="126" type="curve" smooth="yes"/>
      <point x="195" y="126"/>
      <point x="181" y="130"/>
      <point x="171" y="146" type="curve"/>
      <point x="225" y="403" type="line"/>
      <point x="237" y="413"/>
      <point x="251" y="420"/>
      <point x="266" y="420" type="curve" smooth="yes"/>
      <point x="306" y="420"/>
      <point x="309" y="387"/>
      <point x="299" y="341" type="curve" smooth="yes"/>
      <point x="267" y="189" type="line" smooth="yes"/>
      <point x="259" y="149"/>
      <point x="243" y="126"/>
    </contour>
  </outline>
</glyph>
<glyph name="q" format="2">
  <advance width="474"/>
  <unicode hex="0071"/>
  <note>
q
</note>
  <anchor x="191" y="0" name="bottom"/>
  <anchor x="307" y="545" name="top"/>
  <outline>
    <contour>
      <point x="185" y="-167" type="line"/>
      <point x="354" y="-167" type="line"/>
      <point x="504" y="545" type="line"/>
      <point x="347" y="545" type="line"/>
      <point x="319" y="468" type="line"/>
      <point x="312" y="468" type="line"/>
      <point x="299" y="519"/>
      <point x="260" y="554"/>
      <point x="201" y="554" type="curve" smooth="yes"/>
      <point x="138" y="554"/>
      <point x="72" y="522"/>
      <point x="44" y="387" type="curve" smooth="yes"/>
      <point x="0" y="170" type="line" smooth="yes"/>
      <point x="-21" y="67"/>
      <point x="20" y="-9"/>
      <point x="108" y="-9" type="curve" smooth="yes"/>
      <point x="155" y="-9"/>
      <point x="199" y="17"/>
      <point x="227" y="63" type="curve"/>
      <point x="232" y="63" type="line"/>
    </contour>
    <contour>
      <point x="209" y="125" type="curve" smooth="yes"/>
      <point x="169" y="125"/>
      <point x="166" y="158"/>
      <point x="176" y="204" type="curve" smooth="yes"/>
      <point x="208" y="356" type="line" smooth="yes"/>
      <point x="216" y="396"/>
      <point x="232" y="419"/>
      <point x="266" y="419" type="curve" smooth="yes"/>
      <point x="280" y="419"/>
      <point x="294" y="415"/>
      <point x="304" y="399" type="curve"/>
      <point x="250" y="142" type="line"/>
      <point x="238" y="132"/>
      <point x="224" y="125"/>
    </contour>
  </outline>
</glyph>
<glyph name="r" format="2">
  <advance width="324"/>
  <unicode hex="0072"/>
  <note>
r
</note>
  <anchor x="48" y="0" name="bottom"/>
  <anchor x="217" y="545" name="top"/>
  <outline>
    <contour>
      <point x="-29" y="0" type="line"/>
      <point x="139" y="0" type="line"/>
      <point x="212" y="338" type="line"/>
      <point x="233" y="360"/>
      <point x="254" y="373"/>
      <point x="287" y="373" type="curve" smooth="yes"/>
      <point x="332" y="373" type="line"/>
      <point x="370" y="557" type="line"/>
      <point x="351" y="557" type="line" smooth="yes"/>
      <point x="309" y="557"/>
      <point x="276" y="542"/>
      <point x="250" y="478" type="curve"/>
      <point x="240" y="478" type="line"/>
      <point x="230" y="545" type="line"/>
      <point x="85" y="545" type="line"/>
    </contour>
  </outline>
</glyph>
<glyph name="s" format="2">
  <advance width="411"/>
  <unicode hex="0073"/>
  <note>
s
</note>
  <anchor x="174" y="0" name="bottom"/>
  <anchor x="252" y="545" name="top"/>
  <outline>
    <contour>
      <point x="172" y="-9" type="curve" smooth="yes"/>
      <point x="289" y="-9"/>
      <point x="373" y="56"/>
      <point x="373" y="173" type="curve" smooth="yes"/>
      <point x="373" y="249"/>
      <point x="328" y="292"/>
      <point x="280" y="328" type="curve" smooth="yes"/>
      <point x="254" y="347" type="line" smooth="yes"/>
      <point x="219" y="373"/>
      <point x="208" y="385"/>
      <point x="208" y="401" type="curve" smooth="yes"/>
      <point x="208" y="420"/>
      <point x="219" y="432"/>
      <point x="237" y="432" type="curve" smooth="yes"/>
      <point x="263" y="432"/>
      <point x="269" y="409"/>
      <point x="265" y="380" type="curve"/>
      <point x="412" y="380" type="line"/>
      <point x="415" y="485"/>
      <point x="357" y="554"/>
      <point x="232" y="554" type="curve" smooth="yes"/>
      <point x="106" y="554"/>
      <point x="41" y="472"/>
      <point x="41" y="379" type="curve" smooth="yes"/>
      <point x="41" y="328"/>
      <point x="66" y="275"/>
      <point x="120" y="233" type="curve" smooth="yes"/>
      <point x="152" y="208" type="line" smooth="yes"/>
      <point x="194" y="175"/>
      <point x="205" y="165"/>
      <point x="205" y="144" type="curve" smooth="yes"/>
      <point x="205" y="123"/>
      <point x="193" y="110"/>
      <point x="175" y="110" type="curve" smooth="yes"/>
      <point x="145" y="110"/>
      <point x="141" y="140"/>
      <point x="148" y="175" type="curve"/>
      <point x="-8" y="175" type="line"/>
      <point x="-17" y="64"/>
      <point x="55" y="-9"/>
    </contour>
  </outline>
</glyph>
<glyph name="t" format="2">
  <advance width="326"/>
  <unicode hex="0074"/>
  <note>
t
</note>
  <anchor x="153" y="0" name="bottom"/>
  <anchor x="161" y="273" name="center"/>
  <anchor x="226" y="545" name="top"/>
  <anchor x="346" y="662" name="topright"/>
  <outline>
    <contour>
      <point x="116" y="0" type="curve" smooth="yes"/>
      <point x="251" y="0" type="line"/>
      <point x="279" y="137" type="line"/>
      <point x="210" y="137" type="line"/>
      <point x="326" y="689" type="line"/>
      <point x="157" y="689" type="line"/>
      <point x="34" y="105" type="line" smooth="yes"/>
      <point x="18" y="27"/>
      <point x="55" y="0"/>
    </contour>
    <contour>
      <point x="42" y="408" type="line"/>
      <point x="337" y="408" type="line"/>
      <point x="366" y="545" type="line"/>
      <point x="70" y="545" type="line"/>
    </contour>
  </outline>
</glyph>
<glyph name="v" format="2">
  <advance width="456"/>
  <unicode hex="0076"/>
  <note>
v
</note>
  <anchor x="181" y="0" name="bottom"/>
  <anchor x="297" y="545" name="top"/>
  <outline>
    <contour>
      <point x="58" y="0" type="line"/>
      <point x="283" y="0" type="line"/>
      <point x="505" y="545" type="line"/>
      <point x="333" y="545" type="line"/>
      <point x="221" y="203" type="line"/>
      <point x="207" y="158" type="line"/>
      <point x="202" y="158" type="line"/>
      <point x="206" y="203" type="line"/>
      <point x="237" y="545" type="line"/>
      <point x="66" y="545" type="line"/>
    </contour>
  </outline>
</glyph>
<glyph name="w" format="2">
  <advance width="612"/>
  <unicode hex="0077"/>
  <note>
w
</note>
  <anchor x="259" y="0" name="bottom"/>
  <anchor x="368" y="545" name="top"/>
  <outline>
    <contour>
      <point x="21" y="0" type="line"/>
      <point x="228" y="0" type="line"/>
      <point x="308" y="298" type="line"/>
      <point x="324" y="358" type="line"/>
      <point x="329" y="358" type="line"/>
      <point x="318" y="298" type="line"/>
      <point x="272" y="0" type="line"/>
      <point x="478" y="0" type="line"/>
      <point x="660" y="545" type="line"/>
      <point x="500" y="545" type="line"/>
      <point x="407" y="207" type="line"/>
      <point x="398" y="162" type="line"/>
      <point x="392" y="162" type="line"/>
      <point x="399" y="207" type="line"/>
      <point x="447" y="545" type="line"/>
      <point x="288" y="545" type="line"/>
      <point x="193" y="209" type="line"/>
      <point x="182" y="162" type="line"/>
      <point x="176" y="162" type="line"/>
      <point x="184" y="209" type="line"/>
      <point x="235" y="545" type="line"/>
      <point x="68" y="545" type="line"/>
    </contour>
  </outline>
</glyph>
<glyph name="x" format="2">
  <advance width="471"/>
  <unicode hex="0078"/>
  <note>
x
</note>
  <anchor x="188" y="0" name="bottom"/>
  <anchor x="304" y="545" name="top"/>
  <outline>
    <contour>
      <point x="-50" y="0" type="line"/>
      <point x="121" y="0" type="line"/>
      <point x="210" y="162" type="line"/>
      <point x="214" y="162" type="line"/>
      <point x="235" y="0" type="line"/>
      <point x="405" y="0" type="line"/>
      <point x="347" y="302" type="line"/>
      <point x="507" y="545" type="line"/>
      <point x="335" y="545" type="line"/>
      <point x="264" y="409" type="line"/>
      <point x="260" y="409" type="line"/>
      <point x="247" y="545" type="line"/>
      <point x="77" y="545" type="line"/>
      <point x="130" y="291" type="line"/>
    </contour>
  </outline>
</glyph>
<glyph name="y" format="2">
  <advance width="467"/>
  <unicode hex="0079"/>
  <note>
y
</note>
  <anchor x="374" y="0" name="bottom"/>
  <anchor x="280" y="545" name="top"/>
  <outline>
    <contour>
      <point x="-56" y="-167" type="line"/>
      <point x="112" y="-167" type="line" smooth="yes"/>
      <point x="182" y="-167"/>
      <point x="235" y="-134"/>
      <point x="250" y="-63" type="curve" smooth="yes"/>
      <point x="273" y="42" type="line"/>
      <point x="517" y="545" type="line"/>
      <point x="337" y="545" type="line"/>
      <point x="250" y="310" type="line"/>
      <point x="221" y="220" type="line"/>
      <point x="216" y="220" type="line"/>
      <point x="219" y="310" type="line"/>
      <point x="223" y="545" type="line"/>
      <point x="66" y="545" type="line"/>
      <point x="101" y="35" type="line"/>
      <point x="89" y="-24" type="line"/>
      <point x="-26" y="-24" type="line"/>
    </contour>
  </outline>
</glyph>
<glyph name="z" format="2">
  <advance width="387"/>
  <unicode hex="007A"/>
  <note>
z
</note>
  <anchor x="146" y="0" name="bottom"/>
  <anchor x="204" y="273" name="center"/>
  <anchor x="262" y="545" name="top"/>
  <outline>
    <contour>
      <point x="-41" y="0" type="line"/>
      <point x="312" y="0" type="line"/>
      <point x="342" y="138" type="line"/>
      <point x="179" y="138" type="line"/>
      <point x="395" y="420" type="line"/>
      <point x="421" y="545" type="line"/>
      <point x="83" y="545" type="line"/>
      <point x="53" y="408" type="line"/>
      <point x="201" y="408" type="line"/>
      <point x="-15" y="125" type="line"/>
    </contour>
  </outline>
</glyph>
<glyph name="braceleft" format="2">
  <advance width="338"/>
  <unicode hex="007B"/>
  <outline>
    <contour>
      <point x="126" y="-167" type="curve" smooth="yes"/>
      <point x="226" y="-167" type="line"/>
      <point x="253" y="-41" type="line"/>
      <point x="182" y="-41" type="line"/>
      <point x="228" y="178" type="line" smooth="yes"/>
      <point x="243" y="245"/>
      <point x="239" y="295"/>
      <point x="157" y="315" type="curve"/>
      <point x="159" y="322" type="line"/>
      <point x="244" y="331"/>
      <point x="273" y="386"/>
      <point x="287" y="456" type="curve" smooth="yes"/>
      <point x="332" y="667" type="line"/>
      <point x="403" y="667" type="line"/>
      <point x="430" y="793" type="line"/>
      <point x="330" y="793" type="line" smooth="yes"/>
      <point x="239" y="793"/>
      <point x="185" y="737"/>
      <point x="169" y="663" type="curve" smooth="yes"/>
      <point x="125" y="454" type="line" smooth="yes"/>
      <point x="115" y="407"/>
      <point x="86" y="376"/>
      <point x="45" y="376" type="curve" smooth="yes"/>
      <point x="36" y="376" type="line"/>
      <point x="9" y="249" type="line"/>
      <point x="18" y="249" type="line" smooth="yes"/>
      <point x="56" y="249"/>
      <point x="76" y="222"/>
      <point x="66" y="175" type="curve" smooth="yes"/>
      <point x="21" y="-37" type="line" smooth="yes"/>
      <point x="5" y="-111"/>
      <point x="35" y="-167"/>
    </contour>
  </outline>
</glyph>
<glyph name="bar" format="2">
  <advance width="271"/>
  <unicode hex="007C"/>
  <outline>
    <contour>
      <point x="-16" y="-67" type="line"/>
      <point x="142" y="-67" type="line"/>
      <point x="312" y="729" type="line"/>
      <point x="154" y="729" type="line"/>
    </contour>
  </outline>
</glyph>
<glyph name="asciitilde" format="2">
  <advance width="502"/>
  <unicode hex="007E"/>
  <outline>
    <contour>
      <point x="47" y="271" type="curve"/>
      <point x="126" y="271" type="line"/>
      <point x="127" y="294"/>
      <point x="145" y="330"/>
      <point x="178" y="330" type="curve" smooth="yes"/>
      <point x="226" y="330"/>
      <point x="252" y="264"/>
      <point x="339" y="264" type="curve" smooth="yes"/>
      <point x="399" y="264"/>
      <point x="478" y="313"/>
      <point x="496" y="464" type="curve"/>
      <point x="417" y="464" type="line"/>
      <point x="411" y="431"/>
      <point x="388" y="403"/>
      <point x="352" y="403" type="curve" smooth="yes"/>
      <point x="295" y="403"/>
      <point x="273" y="467"/>
      <point x="199" y="467" type="curve" smooth="yes"/>
      <point x="137" y="467"/>
      <point x="64" y="417"/>
    </contour>
  </outline>
</glyph>
<glyph name="cent" format="2">
  <advance width="455"/>
  <unicode hex="00A2"/>
  <anchor x="206" y="125" name="bottom"/>
  <anchor x="298" y="604" name="top"/>
  <outline>
    <contour>
      <point x="243" y="575" type="line"/>
      <point x="359" y="575" type="line"/>
      <point x="403" y="729" type="line"/>
      <point x="263" y="729" type="line"/>
    </contour>
    <contour>
      <point x="101" y="0" type="line"/>
      <point x="241" y="0" type="line"/>
      <point x="261" y="154" type="line"/>
      <point x="145" y="154" type="line"/>
    </contour>
    <contour>
      <point x="225" y="117" type="curve" smooth="yes"/>
      <point x="332" y="117"/>
      <point x="424" y="177"/>
      <point x="441" y="305" type="curve"/>
      <point x="288" y="305" type="line"/>
      <point x="278" y="256"/>
      <point x="261" y="235"/>
      <point x="227" y="235" type="curve" smooth="yes"/>
      <point x="197" y="235"/>
      <point x="183" y="254"/>
      <point x="191" y="287" type="curve" smooth="yes"/>
      <point x="230" y="446" type="line" smooth="yes"/>
      <point x="238" y="479"/>
      <point x="254" y="494"/>
      <point x="282" y="494" type="curve" smooth="yes"/>
      <point x="316" y="494"/>
      <point x="333" y="470"/>
      <point x="319" y="419" type="curve"/>
      <point x="467" y="419" type="line"/>
      <point x="488" y="535"/>
      <point x="414" y="612"/>
      <point x="281" y="612" type="curve" smooth="yes"/>
      <point x="187" y="612"/>
      <point x="92" y="572"/>
      <point x="61" y="445" type="curve" smooth="yes"/>
      <point x="36" y="340" type="line" smooth="yes"/>
      <point x="1" y="198"/>
      <point x="89" y="117"/>
    </contour>
  </outline>
</glyph>
<glyph name="sterling" format="2">
  <advance width="561"/>
  <unicode hex="00A3"/>
  <outline>
    <contour>
      <point x="-34" y="0" type="line"/>
      <point x="479" y="0" type="line"/>
      <point x="524" y="216" type="line"/>
      <point x="371" y="216" type="line"/>
      <point x="358" y="152" type="line"/>
      <point x="237" y="152" type="line"/>
      <point x="266" y="290" type="line"/>
      <point x="394" y="290" type="line"/>
      <point x="422" y="422" type="line"/>
      <point x="293" y="422" type="line"/>
      <point x="314" y="521" type="line" smooth="yes"/>
      <point x="325" y="572"/>
      <point x="346" y="588"/>
      <point x="373" y="588" type="curve" smooth="yes"/>
      <point x="427" y="588"/>
      <point x="421" y="531"/>
      <point x="408" y="483" type="curve" smooth="yes"/>
      <point x="403" y="464" type="line"/>
      <point x="577" y="464" type="line"/>
      <point x="581" y="483" type="line" smooth="yes"/>
      <point x="613" y="636"/>
      <point x="545" y="738"/>
      <point x="386" y="738" type="curve" smooth="yes"/>
      <point x="263" y="738"/>
      <point x="169" y="677"/>
      <point x="134" y="518" type="curve" smooth="yes"/>
      <point x="113" y="422" type="line"/>
      <point x="51" y="405" type="line"/>
      <point x="27" y="290" type="line"/>
      <point x="85" y="290" type="line"/>
      <point x="55" y="152" type="line"/>
      <point x="-2" y="152" type="line"/>
    </contour>
  </outline>
</glyph>
<glyph name="currency" format="2">
  <advance width="647"/>
  <unicode hex="00A4"/>
  <outline>
    <contour>
      <point x="115" y="86" type="line"/>
      <point x="226" y="183" type="line"/>
      <point x="250" y="173"/>
      <point x="275" y="167"/>
      <point x="306" y="167" type="curve" smooth="yes"/>
      <point x="339" y="167"/>
      <point x="366" y="173"/>
      <point x="394" y="183" type="curve"/>
      <point x="469" y="86" type="line"/>
      <point x="576" y="179" type="line"/>
      <point x="505" y="269" type="line"/>
      <point x="525" y="297"/>
      <point x="537" y="327"/>
      <point x="542" y="360" type="curve" smooth="yes"/>
      <point x="549" y="395"/>
      <point x="546" y="425"/>
      <point x="537" y="454" type="curve"/>
      <point x="641" y="543" type="line"/>
      <point x="567" y="636" type="line"/>
      <point x="456" y="539" type="line"/>
      <point x="433" y="548"/>
      <point x="402" y="554"/>
      <point x="375" y="554" type="curve" smooth="yes"/>
      <point x="350" y="554"/>
      <point x="318" y="548"/>
      <point x="291" y="539" type="curve"/>
      <point x="215" y="636" type="line"/>
      <point x="108" y="543" type="line"/>
      <point x="180" y="454" type="line"/>
      <point x="160" y="426"/>
      <point x="147" y="393"/>
      <point x="141" y="360" type="curve" smooth="yes"/>
      <point x="135" y="329"/>
      <point x="137" y="298"/>
      <point x="145" y="269" type="curve"/>
      <point x="42" y="179" type="line"/>
    </contour>
    <contour>
      <point x="329" y="294" type="curve" smooth="yes"/>
      <point x="292" y="294"/>
      <point x="267" y="320"/>
      <point x="275" y="360" type="curve" smooth="yes"/>
      <point x="282" y="400"/>
      <point x="318" y="427"/>
      <point x="353" y="427" type="curve" smooth="yes"/>
      <point x="391" y="427"/>
      <point x="416" y="400"/>
      <point x="407" y="360" type="curve" smooth="yes"/>
      <point x="400" y="320"/>
      <point x="365" y="294"/>
    </contour>
  </outline>
</glyph>
<glyph name="brokenbar" format="2">
  <advance width="271"/>
  <unicode hex="00A6"/>
  <outline>
    <contour>
      <point x="79" y="377" type="line"/>
      <point x="237" y="377" type="line"/>
      <point x="312" y="729" type="line"/>
      <point x="154" y="729" type="line"/>
    </contour>
    <contour>
      <point x="-16" y="-67" type="line"/>
      <point x="142" y="-67" type="line"/>
      <point x="217" y="285" type="line"/>
      <point x="59" y="285" type="line"/>
    </contour>
  </outline>
</glyph>
<glyph name="section" format="2">
  <advance width="437"/>
  <unicode hex="00A7"/>
  <outline>
    <contour>
      <point x="178" y="-10" type="curve" smooth="yes"/>
      <point x="296" y="-10"/>
      <point x="386" y="60"/>
      <point x="386" y="165" type="curve" smooth="yes"/>
      <point x="386" y="208"/>
      <point x="379" y="229"/>
      <point x="364" y="248" type="curve"/>
      <point x="408" y="274"/>
      <point x="433" y="314"/>
      <point x="433" y="372" type="curve" smooth="yes"/>
      <point x="433" y="457"/>
      <point x="380" y="491"/>
      <point x="326" y="522" type="curve" smooth="yes"/>
      <point x="281" y="548"/>
      <point x="263" y="561"/>
      <point x="263" y="588" type="curve" smooth="yes"/>
      <point x="263" y="611"/>
      <point x="273" y="630"/>
      <point x="296" y="630" type="curve" smooth="yes"/>
      <point x="325" y="630"/>
      <point x="328" y="609"/>
      <point x="321" y="565" type="curve"/>
      <point x="471" y="565" type="line"/>
      <point x="484" y="683"/>
      <point x="413" y="739"/>
      <point x="290" y="739" type="curve" smooth="yes"/>
      <point x="183" y="739"/>
      <point x="105" y="672"/>
      <point x="105" y="585" type="curve" smooth="yes"/>
      <point x="105" y="548"/>
      <point x="117" y="513"/>
      <point x="140" y="493" type="curve"/>
      <point x="83" y="469"/>
      <point x="49" y="418"/>
      <point x="49" y="367" type="curve" smooth="yes"/>
      <point x="49" y="299"/>
      <point x="90" y="255"/>
      <point x="142" y="222" type="curve" smooth="yes"/>
      <point x="200" y="186"/>
      <point x="209" y="180"/>
      <point x="209" y="150" type="curve" smooth="yes"/>
      <point x="209" y="123"/>
      <point x="204" y="102"/>
      <point x="177" y="102" type="curve" smooth="yes"/>
      <point x="146" y="102"/>
      <point x="145" y="134"/>
      <point x="153" y="169" type="curve"/>
      <point x="-4" y="169" type="line"/>
      <point x="-16" y="46"/>
      <point x="52" y="-10"/>
    </contour>
    <contour>
      <point x="264" y="321" type="curve"/>
      <point x="258" y="325"/>
      <point x="253" y="328"/>
      <point x="242" y="334" type="curve" smooth="yes"/>
      <point x="209" y="351"/>
      <point x="197" y="364"/>
      <point x="197" y="383" type="curve" smooth="yes"/>
      <point x="197" y="396"/>
      <point x="204" y="407"/>
      <point x="215" y="417" type="curve"/>
      <point x="222" y="412"/>
      <point x="227" y="409"/>
      <point x="235" y="405" type="curve" smooth="yes"/>
      <point x="260" y="391"/>
      <point x="279" y="378"/>
      <point x="279" y="357" type="curve" smooth="yes"/>
      <point x="279" y="351"/>
      <point x="277" y="334"/>
    </contour>
  </outline>
</glyph>
<glyph name="ordfeminine" format="2">
  <advance width="360"/>
  <unicode hex="00AA"/>
  <outline>
    <contour>
      <point x="165" y="385" type="curve" smooth="yes"/>
      <point x="205" y="385"/>
      <point x="238" y="406"/>
      <point x="243" y="444" type="curve"/>
      <point x="247" y="444" type="line"/>
      <point x="252" y="392" type="line"/>
      <point x="367" y="392" type="line"/>
      <point x="367" y="617" type="line" smooth="yes"/>
      <point x="367" y="732"/>
      <point x="304" y="755"/>
      <point x="229" y="755" type="curve" smooth="yes"/>
      <point x="143" y="755"/>
      <point x="89" y="712"/>
      <point x="91" y="623" type="curve"/>
      <point x="200" y="623" type="line"/>
      <point x="200" y="643"/>
      <point x="205" y="652"/>
      <point x="220" y="652" type="curve" smooth="yes"/>
      <point x="236" y="652"/>
      <point x="239" y="642"/>
      <point x="239" y="621" type="curve" smooth="yes"/>
      <point x="239" y="588" type="line"/>
      <point x="254" y="601" type="line"/>
      <point x="203" y="601" type="line" smooth="yes"/>
      <point x="122" y="601"/>
      <point x="80" y="557"/>
      <point x="80" y="494" type="curve" smooth="yes"/>
      <point x="80" y="476" type="line" smooth="yes"/>
      <point x="80" y="416"/>
      <point x="114" y="385"/>
    </contour>
    <contour>
      <point x="223" y="479" type="curve" smooth="yes"/>
      <point x="211" y="479"/>
      <point x="205" y="488"/>
      <point x="205" y="503" type="curve" smooth="yes"/>
      <point x="205" y="509" type="line" smooth="yes"/>
      <point x="205" y="523"/>
      <point x="210" y="532"/>
      <point x="226" y="532" type="curve" smooth="yes"/>
      <point x="239" y="532" type="line"/>
      <point x="239" y="502" type="line" smooth="yes"/>
      <point x="239" y="486"/>
      <point x="235" y="479"/>
    </contour>
  </outline>
</glyph>
<glyph name="logicalnot" format="2">
  <advance width="500"/>
  <unicode hex="00AC"/>
  <outline>
    <contour>
      <point x="307" y="142" type="line"/>
      <point x="454" y="142" type="line"/>
      <point x="514" y="428" type="line"/>
      <point x="41" y="428" type="line"/>
      <point x="10" y="278" type="line"/>
      <point x="336" y="278" type="line"/>
    </contour>
  </outline>
</glyph>
<glyph name="registered" format="2">
  <advance width="488"/>
  <unicode hex="00AE"/>
  <outline>
    <contour>
      <point x="261" y="224" type="curve" smooth="yes"/>
      <point x="439" y="224"/>
      <point x="514" y="406"/>
      <point x="514" y="531" type="curve" smooth="yes"/>
      <point x="514" y="655"/>
      <point x="442" y="738"/>
      <point x="317" y="738" type="curve" smooth="yes"/>
      <point x="154" y="738"/>
      <point x="63" y="578"/>
      <point x="63" y="431" type="curve" smooth="yes"/>
      <point x="63" y="307"/>
      <point x="135" y="224"/>
    </contour>
    <contour>
      <point x="267" y="277" type="curve" smooth="yes"/>
      <point x="171" y="277"/>
      <point x="122" y="335"/>
      <point x="122" y="430" type="curve" smooth="yes"/>
      <point x="122" y="527"/>
      <point x="169" y="685"/>
      <point x="310" y="685" type="curve" smooth="yes"/>
      <point x="406" y="685"/>
      <point x="455" y="626"/>
      <point x="455" y="532" type="curve" smooth="yes"/>
      <point x="455" y="431"/>
      <point x="406" y="277"/>
    </contour>
    <contour>
      <point x="179" y="338" type="line"/>
      <point x="250" y="338" type="line"/>
      <point x="300" y="573" type="line"/>
      <point x="306" y="573" type="line" smooth="yes"/>
      <point x="322" y="573"/>
      <point x="327" y="563"/>
      <point x="324" y="547" type="curve" smooth="yes"/>
      <point x="319" y="523" type="line" smooth="yes"/>
      <point x="316" y="509"/>
      <point x="310" y="501"/>
      <point x="292" y="501" type="curve" smooth="yes"/>
      <point x="279" y="501" type="line"/>
      <point x="266" y="442" type="line"/>
      <point x="279" y="442" type="line"/>
      <point x="281" y="338" type="line"/>
      <point x="356" y="338" type="line"/>
      <point x="346" y="462" type="line"/>
      <point x="345" y="455" type="line"/>
      <point x="346" y="455" type="line"/>
      <point x="377" y="469"/>
      <point x="399" y="505"/>
      <point x="399" y="555" type="curve" smooth="yes"/>
      <point x="399" y="602"/>
      <point x="370" y="633"/>
      <point x="319" y="633" type="curve" smooth="yes"/>
      <point x="241" y="633" type="line"/>
    </contour>
  </outline>
</glyph>
<glyph name="degree" format="2">
  <advance width="463"/>
  <unicode hex="00B0"/>
  <outline>
    <contour>
      <point x="286" y="386" type="curve" smooth="yes"/>
      <point x="396" y="386"/>
      <point x="478" y="457"/>
      <point x="482" y="563" type="curve" smooth="yes"/>
      <point x="486" y="669"/>
      <point x="408" y="739"/>
      <point x="298" y="739" type="curve" smooth="yes"/>
      <point x="188" y="739"/>
      <point x="106" y="669"/>
      <point x="102" y="563" type="curve" smooth="yes"/>
      <point x="98" y="457"/>
      <point x="176" y="386"/>
    </contour>
    <contour>
      <point x="290" y="506" type="curve" smooth="yes"/>
      <point x="258" y="506"/>
      <point x="233" y="527"/>
      <point x="235" y="563" type="curve" smooth="yes"/>
      <point x="236" y="599"/>
      <point x="262" y="619"/>
      <point x="294" y="619" type="curve" smooth="yes"/>
      <point x="326" y="619"/>
      <point x="351" y="599"/>
      <point x="349" y="563" type="curve" smooth="yes"/>
      <point x="348" y="527"/>
      <point x="322" y="506"/>
    </contour>
  </outline>
</glyph>
<glyph name="plusminus" format="2">
  <advance width="500"/>
  <unicode hex="00B1"/>
  <outline>
    <contour>
      <point x="157" y="188" type="line"/>
      <point x="307" y="188" type="line"/>
      <point x="333" y="307" type="line"/>
      <point x="477" y="307" type="line"/>
      <point x="507" y="450" type="line"/>
      <point x="363" y="450" type="line"/>
      <point x="388" y="569" type="line"/>
      <point x="238" y="569" type="line"/>
      <point x="213" y="450" type="line"/>
      <point x="68" y="450" type="line"/>
      <point x="38" y="307" type="line"/>
      <point x="183" y="307" type="line"/>
    </contour>
    <contour>
      <point x="-27" y="0" type="line"/>
      <point x="412" y="0" type="line"/>
      <point x="440" y="136" type="line"/>
      <point x="1" y="136" type="line"/>
    </contour>
  </outline>
</glyph>
<glyph name="paragraph" format="2">
  <advance width="727"/>
  <unicode hex="00B6"/>
  <outline>
    <contour>
      <point x="161" y="-151" type="line"/>
      <point x="334" y="-151" type="line"/>
      <point x="464" y="568" type="line"/>
      <point x="528" y="568" type="line"/>
      <point x="398" y="-151" type="line"/>
      <point x="573" y="-151" type="line"/>
      <point x="703" y="568" type="line"/>
      <point x="762" y="568" type="line"/>
      <point x="790" y="729" type="line"/>
      <point x="315" y="729" type="line" smooth="yes"/>
      <point x="180" y="729"/>
      <point x="88" y="657"/>
      <point x="64" y="528" type="curve" smooth="yes"/>
      <point x="42" y="408"/>
      <point x="111" y="332"/>
      <point x="249" y="337" type="curve"/>
    </contour>
  </outline>
</glyph>
<glyph name="ordmasculine" format="2">
  <advance width="347"/>
  <unicode hex="00BA"/>
  <outline>
    <contour>
      <point x="237" y="385" type="curve" smooth="yes"/>
      <point x="336" y="385"/>
      <point x="388" y="439"/>
      <point x="388" y="549" type="curve" smooth="yes"/>
      <point x="388" y="592" type="line" smooth="yes"/>
      <point x="388" y="697"/>
      <point x="340" y="755"/>
      <point x="237" y="755" type="curve" smooth="yes"/>
      <point x="138" y="755"/>
      <point x="85" y="704"/>
      <point x="85" y="592" type="curve" smooth="yes"/>
      <point x="85" y="549" type="line" smooth="yes"/>
      <point x="85" y="444"/>
      <point x="132" y="385"/>
    </contour>
    <contour>
      <point x="237" y="490" type="curve" smooth="yes"/>
      <point x="224" y="490"/>
      <point x="211" y="493"/>
      <point x="211" y="525" type="curve" smooth="yes"/>
      <point x="211" y="617" type="line" smooth="yes"/>
      <point x="211" y="648"/>
      <point x="224" y="652"/>
      <point x="237" y="652" type="curve" smooth="yes"/>
      <point x="251" y="652"/>
      <point x="263" y="646"/>
      <point x="263" y="617" type="curve" smooth="yes"/>
      <point x="263" y="525" type="line" smooth="yes"/>
      <point x="263" y="496"/>
      <point x="252" y="490"/>
    </contour>
  </outline>
</glyph>
<glyph name="multiply" format="2">
  <advance width="500"/>
  <unicode hex="00D7"/>
  <outline>
    <contour>
      <point x="104" y="140" type="line"/>
      <point x="516" y="480" type="line"/>
      <point x="434" y="582" type="line"/>
      <point x="23" y="244" type="line"/>
    </contour>
    <contour>
      <point x="346" y="146" type="line"/>
      <point x="459" y="238" type="line"/>
      <point x="192" y="577" type="line"/>
      <point x="80" y="486" type="line"/>
    </contour>
  </outline>
</glyph>
<glyph name="Thorn" format="2">
  <advance width="492"/>
  <unicode hex="00DE"/>
  <outline>
    <contour>
      <point x="1" y="0" type="line"/>
      <point x="180" y="0" type="line"/>
      <point x="308" y="729" type="line"/>
      <point x="129" y="729" type="line"/>
    </contour>
    <contour>
      <point x="188" y="138" type="line"/>
      <point x="245" y="138" type="line" smooth="yes"/>
      <point x="369" y="138"/>
      <point x="464" y="189"/>
      <point x="496" y="371" type="curve" smooth="yes"/>
      <point x="522" y="517"/>
      <point x="459" y="591"/>
      <point x="302" y="591" type="curve" smooth="yes"/>
      <point x="268" y="591" type="line"/>
      <point x="244" y="458" type="line"/>
      <point x="285" y="458" type="line" smooth="yes"/>
      <point x="317" y="458"/>
      <point x="336" y="449"/>
      <point x="328" y="403" type="curve" smooth="yes"/>
      <point x="315" y="329" type="line" smooth="yes"/>
      <point x="308" y="291"/>
      <point x="295" y="267"/>
      <point x="252" y="267" type="curve" smooth="yes"/>
      <point x="211" y="267" type="line"/>
    </contour>
  </outline>
</glyph>
<glyph name="germandbls" format="2">
  <advance width="574"/>
  <unicode hex="00DF"/>
  <outline>
    <contour>
      <point x="29" y="0" type="line"/>
      <point x="199" y="0" type="line"/>
      <point x="304" y="510" type="line" smooth="yes"/>
      <point x="314" y="558"/>
      <point x="333" y="585"/>
      <point x="370" y="585" type="curve" smooth="yes"/>
      <point x="415" y="585"/>
      <point x="429" y="545"/>
      <point x="417" y="501" type="curve" smooth="yes"/>
      <point x="406" y="461"/>
      <point x="378" y="433"/>
      <point x="332" y="433" type="curve" smooth="yes"/>
      <point x="322" y="433" type="line"/>
      <point x="298" y="317" type="line"/>
      <point x="324" y="317" type="line" smooth="yes"/>
      <point x="373" y="317"/>
      <point x="390" y="286"/>
      <point x="381" y="232" type="curve" smooth="yes"/>
      <point x="378" y="214" type="line" smooth="yes"/>
      <point x="370" y="166"/>
      <point x="343" y="140"/>
      <point x="284" y="140" type="curve" smooth="yes"/>
      <point x="264" y="140" type="line"/>
      <point x="235" y="0" type="line"/>
      <point x="291" y="0" type="line" smooth="yes"/>
      <point x="415" y="0"/>
      <point x="515" y="54"/>
      <point x="542" y="172" type="curve" smooth="yes"/>
      <point x="563" y="264"/>
      <point x="528" y="351"/>
      <point x="455" y="375" type="curve"/>
      <point x="456" y="383" type="line"/>
      <point x="515" y="401"/>
      <point x="563" y="447"/>
      <point x="576" y="518" type="curve" smooth="yes"/>
      <point x="600" y="650"/>
      <point x="506" y="738"/>
      <point x="377" y="738" type="curve" smooth="yes"/>
      <point x="261" y="738"/>
      <point x="168" y="672"/>
      <point x="142" y="546" type="curve" smooth="yes"/>
    </contour>
    <contour>
      <point x="41" y="409" type="line"/>
      <point x="193" y="409" type="line"/>
      <point x="223" y="546" type="line"/>
      <point x="71" y="546" type="line"/>
    </contour>
  </outline>
</glyph>
<glyph name="ae" format="2">
  <advance width="691"/>
  <unicode hex="00E6"/>
  <outline>
    <contour>
      <point x="101" y="-9" type="curve" smooth="yes"/>
      <point x="160" y="-9"/>
      <point x="216" y="19"/>
      <point x="249" y="80" type="curve"/>
      <point x="257" y="80" type="line"/>
      <point x="285" y="24"/>
      <point x="343" y="-9"/>
      <point x="423" y="-9" type="curve" smooth="yes"/>
      <point x="537" y="-9"/>
      <point x="629" y="56"/>
      <point x="651" y="173" type="curve"/>
      <point x="490" y="173" type="line"/>
      <point x="483" y="139"/>
      <point x="463" y="126"/>
      <point x="439" y="126" type="curve" smooth="yes"/>
      <point x="403" y="126"/>
      <point x="397" y="154"/>
      <point x="404" y="187" type="curve" smooth="yes"/>
      <point x="442" y="366" type="line" smooth="yes"/>
      <point x="449" y="399"/>
      <point x="465" y="420"/>
      <point x="493" y="420" type="curve" smooth="yes"/>
      <point x="518" y="420"/>
      <point x="536" y="403"/>
      <point x="526" y="360" type="curve" smooth="yes"/>
      <point x="516" y="318" type="line"/>
      <point x="536" y="330" type="line"/>
      <point x="418" y="330" type="line"/>
      <point x="396" y="224" type="line"/>
      <point x="664" y="224" type="line"/>
      <point x="681" y="301" type="line" smooth="yes"/>
      <point x="715" y="453"/>
      <point x="642" y="554"/>
      <point x="503" y="554" type="curve" smooth="yes"/>
      <point x="462" y="554"/>
      <point x="422" y="545"/>
      <point x="388" y="527" type="curve"/>
      <point x="358" y="549"/>
      <point x="318" y="555"/>
      <point x="278" y="555" type="curve" smooth="yes"/>
      <point x="159" y="555"/>
      <point x="69" y="492"/>
      <point x="47" y="360" type="curve"/>
      <point x="201" y="360" type="line"/>
      <point x="208" y="397"/>
      <point x="220" y="411"/>
      <point x="243" y="411" type="curve" smooth="yes"/>
      <point x="270" y="411"/>
      <point x="280" y="395"/>
      <point x="274" y="366" type="curve" smooth="yes"/>
      <point x="265" y="324" type="line" smooth="yes"/>
      <point x="254" y="273"/>
      <point x="244" y="223"/>
      <point x="233" y="172" type="curve" smooth="yes"/>
      <point x="226" y="139"/>
      <point x="213" y="122"/>
      <point x="189" y="122" type="curve" smooth="yes"/>
      <point x="173" y="122"/>
      <point x="163" y="134"/>
      <point x="164" y="154" type="curve" smooth="yes"/>
      <point x="166" y="201"/>
      <point x="186" y="232"/>
      <point x="226" y="232" type="curve" smooth="yes"/>
      <point x="262" y="232" type="line"/>
      <point x="283" y="331" type="line"/>
      <point x="209" y="331" type="line" smooth="yes"/>
      <point x="95" y="331"/>
      <point x="4" y="273"/>
      <point x="-13" y="150" type="curve" smooth="yes"/>
      <point x="-26" y="55"/>
      <point x="20" y="-9"/>
    </contour>
  </outline>
</glyph>
<glyph name="eth" format="2">
  <advance width="475"/>
  <unicode hex="00F0"/>
  <outline>
    <contour>
      <point x="198" y="-7" type="curve" smooth="yes"/>
      <point x="318" y="-7"/>
      <point x="411" y="52"/>
      <point x="443" y="202" type="curve" smooth="yes"/>
      <point x="461" y="286" type="line" smooth="yes"/>
      <point x="491" y="428"/>
      <point x="457" y="600"/>
      <point x="374" y="729" type="curve"/>
      <point x="217" y="729" type="line"/>
      <point x="267" y="619"/>
      <point x="299" y="506"/>
      <point x="300" y="432" type="curve"/>
      <point x="291" y="433" type="line"/>
      <point x="275" y="470"/>
      <point x="238" y="495"/>
      <point x="192" y="495" type="curve" smooth="yes"/>
      <point x="115" y="495"/>
      <point x="53" y="445"/>
      <point x="25" y="317" type="curve" smooth="yes"/>
      <point x="11" y="253" type="line" smooth="yes"/>
      <point x="-24" y="92"/>
      <point x="61" y="-7"/>
    </contour>
    <contour>
      <point x="214" y="127" type="curve" smooth="yes"/>
      <point x="182" y="127"/>
      <point x="167" y="148"/>
      <point x="176" y="190" type="curve" smooth="yes"/>
      <point x="203" y="319" type="line" smooth="yes"/>
      <point x="208" y="344"/>
      <point x="223" y="361"/>
      <point x="247" y="361" type="curve" smooth="yes"/>
      <point x="264" y="361"/>
      <point x="284" y="354"/>
      <point x="293" y="334" type="curve"/>
      <point x="289" y="316"/>
      <point x="286" y="299"/>
      <point x="282" y="281" type="curve" smooth="yes"/>
      <point x="258" y="168" type="line" smooth="yes"/>
      <point x="253" y="143"/>
      <point x="237" y="127"/>
    </contour>
    <contour>
      <point x="141" y="501" type="line"/>
      <point x="499" y="576" type="line"/>
      <point x="525" y="696" type="line"/>
      <point x="167" y="621" type="line"/>
    </contour>
  </outline>
</glyph>
<glyph name="divide" format="2">
  <advance width="500"/>
  <unicode hex="00F7"/>
  <outline>
    <contour>
      <point x="34" y="294" type="line"/>
      <point x="476" y="294" type="line"/>
      <point x="506" y="436" type="line"/>
      <point x="64" y="436" type="line"/>
    </contour>
    <contour>
      <point x="210" y="484" type="line"/>
      <point x="381" y="484" type="line"/>
      <point x="413" y="635" type="line"/>
      <point x="242" y="635" type="line"/>
    </contour>
    <contour>
      <point x="128" y="94" type="line"/>
      <point x="299" y="94" type="line"/>
      <point x="331" y="245" type="line"/>
      <point x="160" y="245" type="line"/>
    </contour>
  </outline>
</glyph>
<glyph name="idotless" format="2">
  <advance width="225"/>
  <unicode hex="0131"/>
  <anchor x="55" y="0" name="bottom"/>
  <anchor x="140" y="0" name="ogonek"/>
  <anchor x="170" y="545" name="top"/>
  <outline>
    <contour>
      <point x="-30" y="0" type="line"/>
      <point x="140" y="0" type="line"/>
      <point x="255" y="545" type="line"/>
      <point x="85" y="545" type="line"/>
    </contour>
  </outline>
</glyph>
<glyph name="Eng" format="2">
  <advance width="497"/>
  <unicode hex="014A"/>
  <outline>
    <contour>
      <point x="130" y="-168" type="line"/>
      <point x="237" y="-168" type="line" smooth="yes"/>
      <point x="322" y="-168"/>
      <point x="379" y="-127"/>
      <point x="398" y="-40" type="curve" smooth="yes"/>
      <point x="562" y="729" type="line"/>
      <point x="402" y="729" type="line"/>
      <point x="328" y="371" type="line"/>
      <point x="321" y="371" type="line"/>
      <point x="323" y="428" type="line"/>
      <point x="322" y="729" type="line"/>
      <point x="129" y="729" type="line"/>
      <point x="-24" y="0" type="line"/>
      <point x="135" y="0" type="line"/>
      <point x="208" y="348" type="line"/>
      <point x="213" y="348" type="line"/>
      <point x="212" y="302" type="line"/>
      <point x="211" y="0" type="line"/>
      <point x="230" y="0" type="line"/>
      <point x="224" y="-34" type="line"/>
      <point x="159" y="-34" type="line"/>
    </contour>
  </outline>
</glyph>
<glyph name="eng" format="2">
  <advance width="477"/>
  <unicode hex="014B"/>
  <outline>
    <contour>
      <point x="127" y="-167" type="line"/>
      <point x="216" y="-167" type="line" smooth="yes"/>
      <point x="301" y="-167"/>
      <point x="371" y="-119"/>
      <point x="393" y="-15" type="curve" smooth="yes"/>
      <point x="470" y="353" type="line" smooth="yes"/>
      <point x="501" y="499"/>
      <point x="449" y="554"/>
      <point x="372" y="554" type="curve" smooth="yes"/>
      <point x="321" y="554"/>
      <point x="276" y="532"/>
      <point x="250" y="482" type="curve"/>
      <point x="242" y="482" type="line"/>
      <point x="242" y="545" type="line"/>
      <point x="85" y="545" type="line"/>
      <point x="-30" y="0" type="line"/>
      <point x="140" y="0" type="line"/>
      <point x="220" y="382" type="line"/>
      <point x="238" y="405"/>
      <point x="252" y="413"/>
      <point x="270" y="413" type="curve" smooth="yes"/>
      <point x="304" y="413"/>
      <point x="307" y="385"/>
      <point x="300" y="352" type="curve" smooth="yes"/>
      <point x="221" y="-25" type="line"/>
      <point x="157" y="-25" type="line"/>
    </contour>
  </outline>
</glyph>
<glyph name="florin" format="2">
  <advance width="537"/>
  <unicode hex="0192"/>
  <outline>
    <contour>
      <point x="292" y="79" type="curve" smooth="yes"/>
      <point x="462" y="571" type="line"/>
      <point x="580" y="571" type="line"/>
      <point x="614" y="729" type="line"/>
      <point x="487" y="729" type="line" smooth="yes"/>
      <point x="389" y="729"/>
      <point x="309" y="689"/>
      <point x="265" y="563" type="curve" smooth="yes"/>
      <point x="91" y="74" type="line"/>
      <point x="-22" y="74" type="line"/>
      <point x="-56" y="-85" type="line"/>
      <point x="69" y="-85" type="line" smooth="yes"/>
      <point x="170" y="-85"/>
      <point x="252" y="-39"/>
    </contour>
    <contour>
      <point x="111" y="337" type="line"/>
      <point x="512" y="337" type="line"/>
      <point x="545" y="493" type="line"/>
      <point x="144" y="493" type="line"/>
    </contour>
  </outline>
</glyph>
<glyph name="jdotless" format="2">
  <advance width="224"/>
  <unicode hex="0237"/>
  <anchor x="170" y="545" name="top"/>
  <outline>
    <contour>
      <point x="-131" y="-168" type="line"/>
      <point x="-5" y="-168" type="line" smooth="yes"/>
      <point x="65" y="-168"/>
      <point x="112" y="-129"/>
      <point x="127" y="-59" type="curve" smooth="yes"/>
      <point x="254" y="545" type="line"/>
      <point x="85" y="545" type="line"/>
      <point x="-35" y="-24" type="line"/>
      <point x="-100" y="-24" type="line"/>
    </contour>
  </outline>
</glyph>
<glyph name="gravecomb" format="2">
  <unicode hex="0300"/>
  <anchor x="240" y="545" name="_top"/>
  <outline>
    <contour>
      <point x="176" y="585" type="line"/>
      <point x="322" y="585" type="line"/>
      <point x="304" y="728" type="line"/>
      <point x="137" y="728" type="line"/>
    </contour>
  </outline>
</glyph>
<glyph name="acutecomb" format="2">
  <unicode hex="0301"/>
  <anchor x="180" y="545" name="_top"/>
  <outline>
    <contour>
      <point x="106" y="585" type="line"/>
      <point x="272" y="585" type="line"/>
      <point x="371" y="728" type="line"/>
      <point x="185" y="728" type="line"/>
    </contour>
  </outline>
</glyph>
<glyph name="circumflexcomb" format="2">
  <unicode hex="0302"/>
  <anchor x="294" y="545" name="_top"/>
  <outline>
    <contour>
      <point x="106" y="585" type="line"/>
      <point x="277" y="585" type="line"/>
      <point x="322" y="647" type="line"/>
      <point x="336" y="585" type="line"/>
      <point x="484" y="585" type="line"/>
      <point x="439" y="728" type="line"/>
      <point x="228" y="728" type="line"/>
    </contour>
  </outline>
</glyph>
<glyph name="tildecomb" format="2">
  <unicode hex="0303"/>
  <anchor x="264" y="546" name="_top"/>
  <outline>
    <contour>
      <point x="347" y="604" type="curve" smooth="yes"/>
      <point x="396" y="604"/>
      <point x="460" y="642"/>
      <point x="478" y="758" type="curve"/>
      <point x="414" y="758" type="line"/>
      <point x="408" y="733"/>
      <point x="391" y="712"/>
      <point x="361" y="712" type="curve" smooth="yes"/>
      <point x="315" y="712"/>
      <point x="299" y="761"/>
      <point x="239" y="761" type="curve" smooth="yes"/>
      <point x="191" y="761"/>
      <point x="130" y="723"/>
      <point x="112" y="609" type="curve"/>
      <point x="177" y="609" type="line"/>
      <point x="178" y="628"/>
      <point x="193" y="655"/>
      <point x="221" y="655" type="curve" smooth="yes"/>
      <point x="259" y="655"/>
      <point x="278" y="604"/>
    </contour>
  </outline>
</glyph>
<glyph name="macroncomb" format="2">
  <unicode hex="0304"/>
  <anchor x="285" y="545" name="_top"/>
  <outline>
    <contour>
      <point x="106" y="585" type="line"/>
      <point x="481" y="585" type="line"/>
      <point x="512" y="730" type="line"/>
      <point x="137" y="730" type="line"/>
    </contour>
  </outline>
</glyph>
<glyph name="brevecomb" format="2">
  <unicode hex="0306"/>
  <anchor x="252" y="545" name="_top"/>
  <outline>
    <contour>
      <point x="266" y="580" type="curve" smooth="yes"/>
      <point x="359" y="580"/>
      <point x="426" y="632"/>
      <point x="439" y="728" type="curve"/>
      <point x="317" y="728" type="line"/>
      <point x="314" y="696"/>
      <point x="301" y="675"/>
      <point x="276" y="675" type="curve" smooth="yes"/>
      <point x="249" y="675"/>
      <point x="244" y="699"/>
      <point x="249" y="728" type="curve"/>
      <point x="137" y="728" type="line"/>
      <point x="129" y="638"/>
      <point x="179" y="580"/>
    </contour>
  </outline>
</glyph>
<glyph name="dotaccentcomb" format="2">
  <unicode hex="0307"/>
  <anchor x="186" y="545" name="_top"/>
  <outline>
    <contour>
      <point x="107" y="585" type="line"/>
      <point x="283" y="585" type="line"/>
      <point x="313" y="728" type="line"/>
      <point x="137" y="728" type="line"/>
    </contour>
  </outline>
</glyph>
<glyph name="dieresiscomb" format="2">
  <unicode hex="0308"/>
  <anchor x="283" y="545" name="_top"/>
  <outline>
    <contour>
      <point x="107" y="585" type="line"/>
      <point x="272" y="585" type="line"/>
      <point x="302" y="728" type="line"/>
      <point x="137" y="728" type="line"/>
    </contour>
    <contour>
      <point x="312" y="585" type="line"/>
      <point x="476" y="585" type="line"/>
      <point x="506" y="728" type="line"/>
      <point x="342" y="728" type="line"/>
    </contour>
  </outline>
</glyph>
<glyph name="hookabovecomb" format="2">
  <unicode hex="0309"/>
  <anchor x="205" y="545" name="_top"/>
  <outline>
    <contour>
      <point x="194" y="589" type="line"/>
      <point x="298" y="623"/>
      <point x="358" y="682"/>
      <point x="358" y="753" type="curve" smooth="yes"/>
      <point x="358" y="820"/>
      <point x="305" y="858"/>
      <point x="225" y="858" type="curve" smooth="yes"/>
      <point x="205" y="858"/>
      <point x="183" y="855"/>
      <point x="162" y="848" type="curve"/>
      <point x="144" y="754" type="line"/>
      <point x="152" y="759"/>
      <point x="166" y="761"/>
      <point x="178" y="761" type="curve" smooth="yes"/>
      <point x="201" y="761"/>
      <point x="219" y="752"/>
      <point x="219" y="731" type="curve" smooth="yes"/>
      <point x="219" y="705"/>
      <point x="201" y="690"/>
      <point x="155" y="674" type="curve"/>
    </contour>
  </outline>
</glyph>
<glyph name="ringcomb" format="2">
  <unicode hex="030A"/>
  <anchor x="212" y="545" name="_top"/>
  <outline>
    <contour>
      <point x="234" y="580" type="curve" smooth="yes"/>
      <point x="295" y="580"/>
      <point x="342" y="622"/>
      <point x="355" y="682" type="curve" smooth="yes"/>
      <point x="373" y="769"/>
      <point x="330" y="824"/>
      <point x="257" y="824" type="curve" smooth="yes"/>
      <point x="195" y="824"/>
      <point x="149" y="782"/>
      <point x="136" y="722" type="curve" smooth="yes"/>
      <point x="118" y="635"/>
      <point x="160" y="580"/>
    </contour>
    <contour>
      <point x="240" y="659" type="curve" smooth="yes"/>
      <point x="224" y="659"/>
      <point x="216" y="672"/>
      <point x="223" y="705" type="curve" smooth="yes"/>
      <point x="229" y="731"/>
      <point x="238" y="744"/>
      <point x="251" y="745" type="curve" smooth="yes"/>
      <point x="266" y="745"/>
      <point x="274" y="732"/>
      <point x="267" y="699" type="curve" smooth="yes"/>
      <point x="262" y="673"/>
      <point x="253" y="660"/>
    </contour>
  </outline>
</glyph>
<glyph name="hungarumlautcomb" format="2">
  <unicode hex="030B"/>
  <anchor x="275" y="545" name="_top"/>
  <outline>
    <contour>
      <point x="106" y="585" type="line"/>
      <point x="259" y="585" type="line"/>
      <point x="366" y="728" type="line"/>
      <point x="190" y="728" type="line"/>
    </contour>
    <contour>
      <point x="308" y="585" type="line"/>
      <point x="461" y="585" type="line"/>
      <point x="569" y="728" type="line"/>
      <point x="393" y="728" type="line"/>
    </contour>
  </outline>
</glyph>
<glyph name="caroncomb" format="2">
  <unicode hex="030C"/>
  <anchor x="279" y="545" name="_top"/>
  <outline>
    <contour>
      <point x="182" y="585" type="line"/>
      <point x="393" y="585" type="line"/>
      <point x="515" y="728" type="line"/>
      <point x="344" y="728" type="line"/>
      <point x="299" y="667" type="line"/>
      <point x="285" y="728" type="line"/>
      <point x="137" y="728" type="line"/>
    </contour>
  </outline>
</glyph>
<glyph name="commaturnedabovecomb" format="2">
  <unicode hex="0312"/>
  <anchor x="174" y="545" name="_top"/>
  <outline>
    <contour>
      <point x="110" y="600" type="line"/>
      <point x="262" y="600" type="line"/>
      <point x="291" y="737" type="line"/>
      <point x="225" y="737" type="line"/>
      <point x="335" y="874" type="line"/>
      <point x="231" y="874" type="line"/>
      <point x="134" y="715" type="line"/>
    </contour>
  </outline>
</glyph>
<glyph name="horncomb" format="2">
  <unicode hex="031B"/>
  <anchor x="94" y="526" name="_topright"/>
  <outline>
    <contour>
      <point x="78" y="451" type="line"/>
      <point x="200" y="451"/>
      <point x="263" y="492"/>
      <point x="283" y="585" type="curve" smooth="yes"/>
      <point x="289" y="615" type="line"/>
      <point x="172" y="615" type="line"/>
      <point x="168" y="596" type="line" smooth="yes"/>
      <point x="157" y="544"/>
      <point x="138" y="528"/>
      <point x="94" y="526" type="curve"/>
    </contour>
  </outline>
</glyph>
<glyph name="dotbelowcomb" format="2">
  <unicode hex="0323"/>
  <anchor x="67" y="0" name="_bottom"/>
  <outline>
    <contour>
      <point x="-53" y="-167" type="line"/>
      <point x="116" y="-167" type="line"/>
      <point x="142" y="-45" type="line"/>
      <point x="-27" y="-45" type="line"/>
    </contour>
  </outline>
</glyph>
<glyph name="commaaccentcomb" format="2">
  <unicode hex="0326"/>
  <anchor x="75" y="0" name="_bottom"/>
  <outline>
    <contour>
      <point x="-86" y="-319" type="line"/>
      <point x="22" y="-319" type="line"/>
      <point x="120" y="-178" type="line"/>
      <point x="148" y="-46" type="line"/>
      <point x="-18" y="-46" type="line"/>
      <point x="-47" y="-184" type="line"/>
      <point x="34" y="-184" type="line"/>
    </contour>
  </outline>
</glyph>
<glyph name="cedillacomb" format="2">
  <unicode hex="0327"/>
  <anchor x="136" y="0" name="_bottom"/>
  <outline>
    <contour>
      <point x="96" y="-250" type="curve" smooth="yes"/>
      <point x="172" y="-250"/>
      <point x="234" y="-206"/>
      <point x="234" y="-125" type="curve" smooth="yes"/>
      <point x="234" y="-52"/>
      <point x="176" y="-8"/>
      <point x="101" y="-21" type="curve"/>
      <point x="162" y="-50" type="line"/>
      <point x="182" y="9" type="line"/>
      <point x="80" y="9" type="line"/>
      <point x="57" y="-57" type="line"/>
      <point x="83" y="-72" type="line"/>
      <point x="108" y="-64"/>
      <point x="126" y="-80"/>
      <point x="115" y="-121" type="curve" smooth="yes"/>
      <point x="111" y="-137"/>
      <point x="104" y="-150"/>
      <point x="87" y="-150" type="curve" smooth="yes"/>
      <point x="67" y="-150"/>
      <point x="61" y="-133"/>
      <point x="65" y="-112" type="curve"/>
      <point x="-42" y="-112" type="line"/>
      <point x="-47" y="-195"/>
      <point x="8" y="-250"/>
    </contour>
  </outline>
</glyph>
<glyph name="ogonekcomb" format="2">
  <unicode hex="0328"/>
  <anchor x="154" y="0" name="_ogonek"/>
  <outline>
    <contour>
      <point x="43" y="-224" type="curve" smooth="yes"/>
      <point x="70" y="-224"/>
      <point x="105" y="-217"/>
      <point x="124" y="-204" type="curve"/>
      <point x="140" y="-124" type="line"/>
      <point x="132" y="-129"/>
      <point x="120" y="-132"/>
      <point x="110" y="-132" type="curve" smooth="yes"/>
      <point x="91" y="-132"/>
      <point x="81" y="-122"/>
      <point x="81" y="-107" type="curve" smooth="yes"/>
      <point x="81" y="-79"/>
      <point x="107" y="-48"/>
      <point x="154" y="0" type="curve"/>
      <point x="146" y="16" type="line"/>
      <point x="128" y="33" type="line"/>
      <point x="13" y="-34"/>
      <point x="-47" y="-87"/>
      <point x="-47" y="-148" type="curve" smooth="yes"/>
      <point x="-47" y="-194"/>
      <point x="-11" y="-224"/>
    </contour>
  </outline>
</glyph>
<glyph name="strokeshortcomb" format="2">
  <unicode hex="0335"/>
  <anchor x="259" y="621" name="_center"/>
  <outline>
    <contour>
      <point x="100" y="556" type="line"/>
      <point x="389" y="556" type="line"/>
      <point x="417" y="685" type="line"/>
      <point x="128" y="685" type="line"/>
    </contour>
  </outline>
</glyph>
<glyph name="strokelongcomb" format="2">
  <unicode hex="0336"/>
  <anchor x="295" y="285" name="_center"/>
  <outline>
    <contour>
      <point x="29" y="220" type="line"/>
      <point x="533" y="220" type="line"/>
      <point x="560" y="349" type="line"/>
      <point x="56" y="349" type="line"/>
    </contour>
  </outline>
</glyph>
<glyph name="slashshortcomb" format="2">
  <unicode hex="0337"/>
  <anchor x="182" y="365" name="_center"/>
  <outline>
    <contour>
      <point x="30" y="224" type="line"/>
      <point x="303" y="362" type="line"/>
      <point x="334" y="506" type="line"/>
      <point x="61" y="368" type="line"/>
    </contour>
  </outline>
</glyph>
<glyph name="slashlongcomb" format="2">
  <unicode hex="0338"/>
  <anchor x="253" y="278" name="_center"/>
  <outline>
    <contour>
      <point x="-22" y="-20" type="line"/>
      <point x="64" y="-20" type="line"/>
      <point x="526" y="577" type="line"/>
      <point x="440" y="577" type="line"/>
    </contour>
  </outline>
</glyph>
<glyph name="mu" format="2">
  <advance width="477"/>
  <unicode hex="03BC"/>
  <outline>
    <contour>
      <point x="-62" y="-132" type="line"/>
      <point x="108" y="-132" type="line"/>
      <point x="151" y="68" type="line"/>
      <point x="85" y="0" type="line"/>
      <point x="98" y="-4"/>
      <point x="110" y="-5"/>
      <point x="122" y="-5" type="curve" smooth="yes"/>
      <point x="165" y="-5"/>
      <point x="203" y="18"/>
      <point x="227" y="63" type="curve"/>
      <point x="235" y="63" type="line"/>
      <point x="235" y="0" type="line"/>
      <point x="392" y="0" type="line"/>
      <point x="507" y="545" type="line"/>
      <point x="337" y="545" type="line"/>
      <point x="256" y="163" type="line"/>
      <point x="239" y="142"/>
      <point x="224" y="132"/>
      <point x="207" y="132" type="curve" smooth="yes"/>
      <point x="177" y="132"/>
      <point x="167" y="152"/>
      <point x="177" y="193" type="curve" smooth="yes"/>
      <point x="251" y="545" type="line"/>
      <point x="81" y="545" type="line"/>
    </contour>
  </outline>
</glyph>
<glyph name="pi" format="2">
  <advance width="525"/>
  <unicode hex="03C0"/>
  <outline>
    <contour>
      <point x="-6" y="0" type="line"/>
      <point x="185" y="0" type="line"/>
      <point x="267" y="386" type="line"/>
      <point x="310" y="386" type="line"/>
      <point x="256" y="131" type="line" smooth="yes"/>
      <point x="239" y="51"/>
      <point x="258" y="0"/>
      <point x="364" y="0" type="curve" smooth="yes"/>
      <point x="450" y="0" type="line"/>
      <point x="478" y="134" type="line"/>
      <point x="439" y="134" type="line"/>
      <point x="493" y="386" type="line"/>
      <point x="532" y="386" type="line"/>
      <point x="566" y="546" type="line"/>
      <point x="70" y="546" type="line"/>
      <point x="36" y="386" type="line"/>
      <point x="76" y="386" type="line"/>
    </contour>
  </outline>
</glyph>
<glyph name="Germandbls" format="2">
  <advance width="550"/>
  <unicode hex="1E9E"/>
  <outline>
    <contour>
      <point x="-23" y="0" type="line"/>
      <point x="156" y="0" type="line"/>
      <point x="276" y="577" type="line"/>
      <point x="387" y="577" type="line"/>
      <point x="295" y="441" type="line"/>
      <point x="272" y="331" type="line"/>
      <point x="286" y="331" type="line" smooth="yes"/>
      <point x="333" y="331"/>
      <point x="365" y="315"/>
      <point x="356" y="266" type="curve" smooth="yes"/>
      <point x="348" y="220" type="line" smooth="yes"/>
      <point x="340" y="176"/>
      <point x="314" y="147"/>
      <point x="255" y="147" type="curve" smooth="yes"/>
      <point x="239" y="147" type="line"/>
      <point x="209" y="0" type="line"/>
      <point x="263" y="0" type="line" smooth="yes"/>
      <point x="395" y="0"/>
      <point x="494" y="60"/>
      <point x="522" y="215" type="curve" smooth="yes"/>
      <point x="542" y="332"/>
      <point x="499" y="411"/>
      <point x="397" y="411" type="curve" smooth="yes"/>
      <point x="379" y="411" type="line"/>
      <point x="430" y="376" type="line"/>
      <point x="437" y="417" type="line"/>
      <point x="554" y="580" type="line"/>
      <point x="585" y="729" type="line"/>
      <point x="129" y="729" type="line"/>
    </contour>
  </outline>
</glyph>
<glyph name="endash" format="2">
  <advance width="455"/>
  <unicode hex="2013"/>
  <outline>
    <contour>
      <point x="13" y="240" type="line"/>
      <point x="427" y="240" type="line"/>
      <point x="463" y="405" type="line"/>
      <point x="49" y="405" type="line"/>
    </contour>
  </outline>
</glyph>
<glyph name="bullet" format="2">
  <advance width="299"/>
  <unicode hex="2022"/>
  <outline>
    <contour>
      <point x="10" y="277" type="curve" smooth="yes"/>
      <point x="10" y="197"/>
      <point x="71" y="138"/>
      <point x="150" y="138" type="curve" smooth="yes"/>
      <point x="234" y="138"/>
      <point x="290" y="197"/>
      <point x="290" y="277" type="curve" smooth="yes"/>
      <point x="290" y="357"/>
      <point x="234" y="416"/>
      <point x="150" y="416" type="curve" smooth="yes"/>
      <point x="71" y="416"/>
      <point x="10" y="357"/>
    </contour>
  </outline>
</glyph>
<glyph name="guilsinglleft" format="2">
  <advance width="342"/>
  <unicode hex="2039"/>
  <anchor x="9" y="0" name="#entry"/>
  <anchor x="259" y="0" name="#exit"/>
  <outline>
    <contour>
      <point x="128" y="57" type="line"/>
      <point x="276" y="57" type="line"/>
      <point x="210" y="301" type="line"/>
      <point x="366" y="545" type="line"/>
      <point x="199" y="545" type="line"/>
      <point x="38" y="301" type="line"/>
    </contour>
  </outline>
</glyph>
<glyph name="zeroinferior" format="2">
  <advance width="337"/>
  <unicode hex="2080"/>
  <outline>
    <contour>
      <point x="119" y="-65" type="curve" smooth="yes"/>
      <point x="195" y="-65"/>
      <point x="255" y="-26"/>
      <point x="278" y="85" type="curve" smooth="yes"/>
      <point x="301" y="196" type="line" smooth="yes"/>
      <point x="326" y="317"/>
      <point x="276" y="382"/>
      <point x="171" y="382" type="curve" smooth="yes"/>
      <point x="95" y="382"/>
      <point x="34" y="344"/>
      <point x="11" y="233" type="curve" smooth="yes"/>
      <point x="-12" y="122" type="line" smooth="yes"/>
      <point x="-37" y="1"/>
      <point x="13" y="-65"/>
    </contour>
    <contour>
      <point x="124" y="35" type="curve" smooth="yes"/>
      <point x="108" y="35"/>
      <point x="93" y="41"/>
      <point x="99" y="70" type="curve" smooth="yes"/>
      <point x="138" y="258" type="line" smooth="yes"/>
      <point x="141" y="272"/>
      <point x="149" y="282"/>
      <point x="165" y="282" type="curve" smooth="yes"/>
      <point x="182" y="282"/>
      <point x="196" y="276"/>
      <point x="190" y="247" type="curve" smooth="yes"/>
      <point x="151" y="59" type="line" smooth="yes"/>
      <point x="148" y="45"/>
      <point x="139" y="35"/>
    </contour>
  </outline>
</glyph>
<glyph name="oneinferior" format="2">
  <advance width="231"/>
  <unicode hex="2081"/>
  <outline>
    <contour>
      <point x="133" y="-60" type="line"/>
      <point x="224" y="377" type="line"/>
      <point x="126" y="377" type="line"/>
      <point x="91" y="296" type="line"/>
      <point x="17" y="296" type="line"/>
      <point x="-4" y="195" type="line"/>
      <point x="66" y="195" type="line"/>
      <point x="12" y="-60" type="line"/>
    </contour>
  </outline>
</glyph>
<glyph name="twoinferior" format="2">
  <advance width="321"/>
  <unicode hex="2082"/>
  <outline>
    <contour>
      <point x="-48" y="-60" type="line"/>
      <point x="233" y="-60" type="line"/>
      <point x="254" y="40" type="line"/>
      <point x="127" y="40" type="line"/>
      <point x="111" y="38" type="line"/>
      <point x="112" y="44" type="line"/>
      <point x="126" y="56" type="line"/>
      <point x="192" y="104" type="line" smooth="yes"/>
      <point x="270" y="160"/>
      <point x="299" y="205"/>
      <point x="299" y="266" type="curve" smooth="yes"/>
      <point x="299" y="332"/>
      <point x="255" y="383"/>
      <point x="170" y="383" type="curve" smooth="yes"/>
      <point x="79" y="383"/>
      <point x="14" y="330"/>
      <point x="7" y="230" type="curve"/>
      <point x="114" y="230" type="line"/>
      <point x="115" y="257"/>
      <point x="124" y="279"/>
      <point x="152" y="279" type="curve" smooth="yes"/>
      <point x="167" y="279"/>
      <point x="180" y="269"/>
      <point x="177" y="248" type="curve" smooth="yes"/>
      <point x="176" y="241" type="line" smooth="yes"/>
      <point x="174" y="227"/>
      <point x="163" y="212"/>
      <point x="145" y="196" type="curve" smooth="yes"/>
      <point x="-27" y="40" type="line"/>
    </contour>
  </outline>
</glyph>
<glyph name="threeinferior" format="2">
  <advance width="328"/>
  <unicode hex="2083"/>
  <outline>
    <contour>
      <point x="106" y="-66" type="curve" smooth="yes"/>
      <point x="196" y="-66"/>
      <point x="262" y="-15"/>
      <point x="269" y="60" type="curve" smooth="yes"/>
      <point x="273" y="103"/>
      <point x="249" y="140"/>
      <point x="219" y="153" type="curve"/>
      <point x="221" y="160" type="line"/>
      <point x="275" y="180"/>
      <point x="304" y="224"/>
      <point x="304" y="271" type="curve" smooth="yes"/>
      <point x="304" y="337"/>
      <point x="254" y="382"/>
      <point x="176" y="382" type="curve" smooth="yes"/>
      <point x="85" y="382"/>
      <point x="16" y="326"/>
      <point x="11" y="235" type="curve"/>
      <point x="125" y="235" type="line"/>
      <point x="125" y="257"/>
      <point x="133" y="278"/>
      <point x="161" y="278" type="curve" smooth="yes"/>
      <point x="178" y="278"/>
      <point x="185" y="266"/>
      <point x="183" y="252" type="curve" smooth="yes"/>
      <point x="181" y="238" type="line" smooth="yes"/>
      <point x="179" y="224"/>
      <point x="162" y="205"/>
      <point x="132" y="205" type="curve" smooth="yes"/>
      <point x="97" y="205" type="line"/>
      <point x="81" y="124" type="line"/>
      <point x="120" y="124" type="line" smooth="yes"/>
      <point x="143" y="124"/>
      <point x="159" y="110"/>
      <point x="152" y="84" type="curve" smooth="yes"/>
      <point x="148" y="69" type="line" smooth="yes"/>
      <point x="144" y="54"/>
      <point x="132" y="42"/>
      <point x="114" y="42" type="curve" smooth="yes"/>
      <point x="84" y="42"/>
      <point x="82" y="66"/>
      <point x="88" y="89" type="curve"/>
      <point x="-27" y="89" type="line"/>
      <point x="-43" y="-5"/>
      <point x="5" y="-66"/>
    </contour>
  </outline>
</glyph>
<glyph name="fourinferior" format="2">
  <advance width="347"/>
  <unicode hex="2084"/>
  <outline>
    <contour>
      <point x="98" y="-60" type="line"/>
      <point x="219" y="-60" type="line"/>
      <point x="237" y="30" type="line"/>
      <point x="283" y="30" type="line"/>
      <point x="305" y="132" type="line"/>
      <point x="259" y="132" type="line"/>
      <point x="281" y="237" type="line"/>
      <point x="188" y="237" type="line"/>
      <point x="146" y="132" type="line"/>
      <point x="119" y="132" type="line"/>
      <point x="120" y="137" type="line"/>
      <point x="256" y="377" type="line"/>
      <point x="135" y="377" type="line"/>
      <point x="-24" y="103" type="line"/>
      <point x="-40" y="30" type="line"/>
      <point x="116" y="30" type="line"/>
    </contour>
  </outline>
</glyph>
<glyph name="fiveinferior" format="2">
  <advance width="331"/>
  <unicode hex="2085"/>
  <outline>
    <contour>
      <point x="110" y="-66" type="curve" smooth="yes"/>
      <point x="210" y="-66"/>
      <point x="264" y="-5"/>
      <point x="279" y="93" type="curve" smooth="yes"/>
      <point x="293" y="184"/>
      <point x="255" y="234"/>
      <point x="187" y="234" type="curve" smooth="yes"/>
      <point x="162" y="234"/>
      <point x="134" y="224"/>
      <point x="121" y="210" type="curve"/>
      <point x="113" y="210" type="line"/>
      <point x="134" y="278" type="line"/>
      <point x="294" y="278" type="line"/>
      <point x="315" y="377" type="line"/>
      <point x="57" y="377" type="line"/>
      <point x="-11" y="121" type="line"/>
      <point x="99" y="121" type="line"/>
      <point x="103" y="139"/>
      <point x="113" y="150"/>
      <point x="133" y="150" type="curve" smooth="yes"/>
      <point x="160" y="150"/>
      <point x="165" y="131"/>
      <point x="160" y="106" type="curve" smooth="yes"/>
      <point x="154" y="76" type="line" smooth="yes"/>
      <point x="149" y="51"/>
      <point x="137" y="41"/>
      <point x="118" y="41" type="curve" smooth="yes"/>
      <point x="95" y="41"/>
      <point x="82" y="56"/>
      <point x="91" y="89" type="curve"/>
      <point x="-24" y="89" type="line"/>
      <point x="-40" y="-8"/>
      <point x="12" y="-66"/>
    </contour>
  </outline>
</glyph>
<glyph name="sixinferior" format="2">
  <advance width="335"/>
  <unicode hex="2086"/>
  <outline>
    <contour>
      <point x="115" y="-65" type="curve" smooth="yes"/>
      <point x="193" y="-65"/>
      <point x="262" y="-27"/>
      <point x="281" y="93" type="curve" smooth="yes"/>
      <point x="295" y="181"/>
      <point x="261" y="231"/>
      <point x="192" y="231" type="curve" smooth="yes"/>
      <point x="159" y="231"/>
      <point x="136" y="220"/>
      <point x="121" y="196" type="curve"/>
      <point x="116" y="197" type="line"/>
      <point x="121" y="214"/>
      <point x="126" y="235"/>
      <point x="129" y="249" type="curve" smooth="yes"/>
      <point x="134" y="273"/>
      <point x="146" y="286"/>
      <point x="173" y="286" type="curve" smooth="yes"/>
      <point x="191" y="286"/>
      <point x="207" y="278"/>
      <point x="206" y="262" type="curve"/>
      <point x="319" y="262" type="line"/>
      <point x="317" y="339"/>
      <point x="259" y="382"/>
      <point x="177" y="382" type="curve" smooth="yes"/>
      <point x="111" y="382"/>
      <point x="37" y="358"/>
      <point x="14" y="248" type="curve" smooth="yes"/>
      <point x="-14" y="114" type="line" smooth="yes"/>
      <point x="-38" y="-1"/>
      <point x="16" y="-65"/>
    </contour>
    <contour>
      <point x="122" y="40" type="curve" smooth="yes"/>
      <point x="99" y="40"/>
      <point x="87" y="50"/>
      <point x="93" y="79" type="curve" smooth="yes"/>
      <point x="105" y="137" type="line"/>
      <point x="112" y="148"/>
      <point x="125" y="151"/>
      <point x="137" y="151" type="curve" smooth="yes"/>
      <point x="162" y="151"/>
      <point x="170" y="134"/>
      <point x="164" y="109" type="curve" smooth="yes"/>
      <point x="156" y="75" type="line" smooth="yes"/>
      <point x="152" y="58"/>
      <point x="146" y="40"/>
    </contour>
  </outline>
</glyph>
<glyph name="seveninferior" format="2">
  <advance width="330"/>
  <unicode hex="2087"/>
  <outline>
    <contour>
      <point x="136" y="-60" type="line"/>
      <point x="318" y="275" type="line"/>
      <point x="339" y="377" type="line"/>
      <point x="37" y="377" type="line"/>
      <point x="1" y="201" type="line"/>
      <point x="109" y="201" type="line"/>
      <point x="125" y="279" type="line"/>
      <point x="199" y="279" type="line"/>
      <point x="192" y="267" type="line"/>
      <point x="2" y="-60" type="line"/>
    </contour>
  </outline>
</glyph>
<glyph name="eightinferior" format="2">
  <advance width="345"/>
  <unicode hex="2088"/>
  <outline>
    <contour>
      <point x="120" y="-66" type="curve" smooth="yes"/>
      <point x="210" y="-66"/>
      <point x="285" y="-24"/>
      <point x="285" y="63" type="curve" smooth="yes"/>
      <point x="285" y="101"/>
      <point x="266" y="137"/>
      <point x="230" y="153" type="curve"/>
      <point x="232" y="159" type="line"/>
      <point x="281" y="172"/>
      <point x="316" y="215"/>
      <point x="316" y="266" type="curve" smooth="yes"/>
      <point x="316" y="337"/>
      <point x="257" y="383"/>
      <point x="174" y="383" type="curve" smooth="yes"/>
      <point x="85" y="383"/>
      <point x="22" y="329"/>
      <point x="22" y="254" type="curve" smooth="yes"/>
      <point x="22" y="220"/>
      <point x="42" y="189"/>
      <point x="68" y="176" type="curve"/>
      <point x="67" y="170" type="line"/>
      <point x="13" y="158"/>
      <point x="-31" y="114"/>
      <point x="-31" y="51" type="curve" smooth="yes"/>
      <point x="-31" y="-23"/>
      <point x="34" y="-66"/>
    </contour>
    <contour>
      <point x="128" y="41" type="curve" smooth="yes"/>
      <point x="103" y="41"/>
      <point x="89" y="57"/>
      <point x="93" y="79" type="curve" smooth="yes"/>
      <point x="95" y="90" type="line" smooth="yes"/>
      <point x="98" y="107"/>
      <point x="111" y="121"/>
      <point x="135" y="121" type="curve" smooth="yes"/>
      <point x="160" y="121"/>
      <point x="178" y="106"/>
      <point x="171" y="83" type="curve" smooth="yes"/>
      <point x="168" y="73" type="line" smooth="yes"/>
      <point x="162" y="53"/>
      <point x="147" y="41"/>
    </contour>
    <contour>
      <point x="163" y="206" type="curve" smooth="yes"/>
      <point x="146" y="206"/>
      <point x="127" y="215"/>
      <point x="130" y="242" type="curve" smooth="yes"/>
      <point x="131" y="251" type="line" smooth="yes"/>
      <point x="133" y="269"/>
      <point x="151" y="276"/>
      <point x="166" y="276" type="curve" smooth="yes"/>
      <point x="192" y="276"/>
      <point x="207" y="262"/>
      <point x="201" y="240" type="curve" smooth="yes"/>
      <point x="198" y="229" type="line" smooth="yes"/>
      <point x="194" y="214"/>
      <point x="179" y="206"/>
    </contour>
  </outline>
</glyph>
<glyph name="sheqel" format="2">
  <advance width="719"/>
  <unicode hex="20AA"/>
  <outline>
    <contour>
      <point x="169" y="0" type="line"/>
      <point x="491" y="0" type="line" smooth="yes"/>
      <point x="593" y="0"/>
      <point x="640" y="57"/>
      <point x="656" y="134" type="curve" smooth="yes"/>
      <point x="782" y="729" type="line"/>
      <point x="617" y="729" type="line"/>
      <point x="496" y="156" type="line"/>
      <point x="325" y="156" type="line"/>
      <point x="408" y="550" type="line"/>
      <point x="285" y="550" type="line"/>
    </contour>
    <contour>
      <point x="-21" y="0" type="line"/>
      <point x="145" y="0" type="line"/>
      <point x="266" y="573" type="line"/>
      <point x="438" y="573" type="line"/>
      <point x="355" y="179" type="line"/>
      <point x="476" y="179" type="line"/>
      <point x="564" y="595" type="line" smooth="yes"/>
      <point x="580" y="672"/>
      <point x="557" y="729"/>
      <point x="454" y="729" type="curve" smooth="yes"/>
      <point x="133" y="729" type="line"/>
    </contour>
  </outline>
</glyph>
<glyph name="rupeeIndian" format="2">
  <advance width="455"/>
  <unicode hex="20B9"/>
  <outline>
    <contour>
      <point x="149" y="0" type="line"/>
      <point x="337" y="0" type="line"/>
      <point x="226" y="314" type="line"/>
      <point x="193" y="281" type="line"/>
      <point x="197" y="281" type="line" smooth="yes"/>
      <point x="321" y="281"/>
      <point x="407" y="374"/>
      <point x="411" y="514" type="curve" smooth="yes"/>
      <point x="412" y="553"/>
      <point x="403" y="587"/>
      <point x="384" y="616" type="curve"/>
      <point x="384" y="607" type="line"/>
      <point x="503" y="607" type="line"/>
      <point x="529" y="729" type="line"/>
      <point x="123" y="729" type="line"/>
      <point x="93" y="588" type="line"/>
      <point x="169" y="588" type="line" smooth="yes"/>
      <point x="221" y="588"/>
      <point x="251" y="563"/>
      <point x="239" y="499" type="curve" smooth="yes"/>
      <point x="236" y="483" type="line" smooth="yes"/>
      <point x="227" y="434"/>
      <point x="196" y="402"/>
      <point x="135" y="402" type="curve" smooth="yes"/>
      <point x="53" y="402" type="line"/>
      <point x="40" y="341" type="line"/>
    </contour>
    <contour>
      <point x="61" y="442" type="line"/>
      <point x="323" y="442" type="line"/>
      <point x="345" y="544" type="line"/>
      <point x="83" y="544" type="line"/>
    </contour>
    <contour>
      <point x="319" y="424" type="line"/>
      <point x="463" y="424" type="line"/>
      <point x="493" y="562" type="line"/>
      <point x="349" y="562" type="line"/>
    </contour>
  </outline>
</glyph>
<glyph name="liraTurkish" format="2">
  <advance width="594"/>
  <unicode hex="20BA"/>
  <outline>
    <contour>
      <point x="15" y="0" type="line"/>
      <point x="164" y="0" type="line" smooth="yes"/>
      <point x="379" y="0"/>
      <point x="546" y="126"/>
      <point x="590" y="340" type="curve"/>
      <point x="399" y="340" type="line"/>
      <point x="379" y="243"/>
      <point x="309" y="178"/>
      <point x="238" y="176" type="curve"/>
      <point x="355" y="729" type="line"/>
      <point x="169" y="729" type="line"/>
    </contour>
    <contour>
      <point x="8" y="197" type="line"/>
      <point x="362" y="342" type="line"/>
      <point x="391" y="478" type="line"/>
      <point x="37" y="333" type="line"/>
    </contour>
    <contour>
      <point x="50" y="395" type="line"/>
      <point x="405" y="541" type="line"/>
      <point x="433" y="676" type="line"/>
      <point x="79" y="531" type="line"/>
    </contour>
  </outline>
</glyph>
<glyph name="literSign" format="2">
  <advance width="484"/>
  <unicode hex="2113"/>
  <outline>
    <contour>
      <point x="226" y="-10" type="curve" smooth="yes"/>
      <point x="304" y="-10"/>
      <point x="378" y="30"/>
      <point x="422" y="114" type="curve"/>
      <point x="310" y="177" type="line"/>
      <point x="288" y="138"/>
      <point x="270" y="124"/>
      <point x="248" y="124" type="curve" smooth="yes"/>
      <point x="184" y="124"/>
      <point x="206" y="249"/>
      <point x="231" y="377" type="curve" smooth="yes"/>
      <point x="262" y="538"/>
      <point x="290" y="582"/>
      <point x="321" y="582" type="curve" smooth="yes"/>
      <point x="342" y="582"/>
      <point x="345" y="559"/>
      <point x="338" y="525" type="curve" smooth="yes"/>
      <point x="321" y="445"/>
      <point x="236" y="283"/>
      <point x="17" y="255" type="curve"/>
      <point x="-5" y="141" type="line"/>
      <point x="271" y="165"/>
      <point x="450" y="352"/>
      <point x="483" y="509" type="curve" smooth="yes"/>
      <point x="511" y="646"/>
      <point x="457" y="737"/>
      <point x="349" y="737" type="curve" smooth="yes"/>
      <point x="212" y="737"/>
      <point x="119" y="615"/>
      <point x="79" y="404" type="curve" smooth="yes"/>
      <point x="32" y="156"/>
      <point x="63" y="-10"/>
    </contour>
  </outline>
</glyph>
<glyph name="numero" format="2">
  <advance width="848"/>
  <unicode hex="2116"/>
  <outline>
    <contour>
      <point x="-24" y="0" type="line"/>
      <point x="135" y="0" type="line"/>
      <point x="208" y="348" type="line"/>
      <point x="213" y="348" type="line"/>
      <point x="212" y="302" type="line"/>
      <point x="211" y="0" type="line"/>
      <point x="407" y="0" type="line"/>
      <point x="562" y="729" type="line"/>
      <point x="402" y="729" type="line"/>
      <point x="328" y="371" type="line"/>
      <point x="321" y="371" type="line"/>
      <point x="323" y="428" type="line"/>
      <point x="322" y="729" type="line"/>
      <point x="129" y="729" type="line"/>
    </contour>
    <contour>
      <point x="512" y="144" type="line"/>
      <point x="781" y="144" type="line"/>
      <point x="805" y="260" type="line"/>
      <point x="536" y="260" type="line"/>
    </contour>
    <contour>
      <point x="690" y="291" type="curve" smooth="yes"/>
      <point x="776" y="291"/>
      <point x="842" y="334"/>
      <point x="878" y="506" type="curve" smooth="yes"/>
      <point x="908" y="654"/>
      <point x="866" y="738"/>
      <point x="741" y="738" type="curve" smooth="yes"/>
      <point x="655" y="738"/>
      <point x="589" y="696"/>
      <point x="554" y="528" type="curve" smooth="yes"/>
      <point x="525" y="386"/>
      <point x="557" y="291"/>
    </contour>
    <contour>
      <point x="698" y="406" type="curve" smooth="yes"/>
      <point x="674" y="406"/>
      <point x="673" y="422"/>
      <point x="691" y="514" type="curve" smooth="yes"/>
      <point x="710" y="607"/>
      <point x="717" y="623"/>
      <point x="736" y="623" type="curve" smooth="yes"/>
      <point x="759" y="623"/>
      <point x="760" y="607"/>
      <point x="741" y="517" type="curve" smooth="yes"/>
      <point x="722" y="423"/>
      <point x="715" y="406"/>
    </contour>
  </outline>
</glyph>
<glyph name="trademark" format="2">
  <advance width="605"/>
  <unicode hex="2122"/>
  <outline>
    <contour>
      <point x="282" y="414" type="line"/>
      <point x="379" y="414" type="line"/>
      <point x="401" y="518" type="line"/>
      <point x="416" y="604" type="line"/>
      <point x="418" y="604" type="line"/>
      <point x="413" y="414" type="line"/>
      <point x="478" y="414" type="line"/>
      <point x="554" y="604" type="line"/>
      <point x="557" y="604" type="line"/>
      <point x="536" y="518" type="line"/>
      <point x="515" y="414" type="line"/>
      <point x="610" y="414" type="line"/>
      <point x="676" y="729" type="line"/>
      <point x="537" y="729" type="line"/>
      <point x="481" y="566" type="line"/>
      <point x="477" y="566" type="line"/>
      <point x="487" y="729" type="line"/>
      <point x="347" y="729" type="line"/>
    </contour>
    <contour>
      <point x="97" y="414" type="line"/>
      <point x="202" y="414" type="line"/>
      <point x="249" y="639" type="line"/>
      <point x="299" y="639" type="line"/>
      <point x="318" y="729" type="line"/>
      <point x="112" y="729" type="line"/>
      <point x="93" y="639" type="line"/>
      <point x="144" y="639" type="line"/>
    </contour>
  </outline>
</glyph>
<glyph name="arrowup" format="2">
  <advance width="489"/>
  <unicode hex="2191"/>
  <outline>
    <contour>
      <point x="196" y="98" type="line"/>
      <point x="347" y="98" type="line"/>
      <point x="347" y="401" type="line"/>
      <point x="462" y="313" type="line"/>
      <point x="462" y="482" type="line"/>
      <point x="271" y="631" type="line"/>
      <point x="81" y="482" type="line"/>
      <point x="81" y="313" type="line"/>
      <point x="196" y="401" type="line"/>
    </contour>
  </outline>
</glyph>
<glyph name="leftRightArrow" format="2">
  <advance width="743"/>
  <unicode hex="2194"/>
  <outline>
    <contour>
      <point x="199" y="174" type="line"/>
      <point x="368" y="174" type="line"/>
      <point x="280" y="289" type="line"/>
      <point x="503" y="289" type="line"/>
      <point x="415" y="174" type="line"/>
      <point x="584" y="174" type="line"/>
      <point x="733" y="365" type="line"/>
      <point x="584" y="555" type="line"/>
      <point x="415" y="555" type="line"/>
      <point x="503" y="440" type="line"/>
      <point x="280" y="440" type="line"/>
      <point x="368" y="555" type="line"/>
      <point x="199" y="555" type="line"/>
      <point x="50" y="365" type="line"/>
    </contour>
  </outline>
</glyph>
<glyph name="emptyset" format="2">
  <advance width="758"/>
  <unicode hex="2205"/>
  <outline>
    <contour>
      <point x="640" y="560" type="line"/>
      <point x="120" y="241" type="line"/>
      <point x="140" y="170" type="line"/>
      <point x="677" y="498" type="line"/>
    </contour>
    <contour>
      <point x="399" y="0" type="curve" smooth="yes"/>
      <point x="603" y="0"/>
      <point x="757" y="149"/>
      <point x="757" y="366" type="curve" smooth="yes"/>
      <point x="757" y="579"/>
      <point x="603" y="729"/>
      <point x="399" y="729" type="curve" smooth="yes"/>
      <point x="194" y="729"/>
      <point x="40" y="580"/>
      <point x="40" y="366" type="curve" smooth="yes"/>
      <point x="40" y="149"/>
      <point x="194" y="0"/>
    </contour>
    <contour>
      <point x="399" y="75" type="curve" smooth="yes"/>
      <point x="243" y="75"/>
      <point x="120" y="195"/>
      <point x="120" y="366" type="curve" smooth="yes"/>
      <point x="120" y="536"/>
      <point x="243" y="654"/>
      <point x="399" y="654" type="curve" smooth="yes"/>
      <point x="557" y="654"/>
      <point x="678" y="535"/>
      <point x="678" y="366" type="curve" smooth="yes"/>
      <point x="678" y="195"/>
      <point x="557" y="75"/>
    </contour>
  </outline>
</glyph>
<glyph name="product" format="2">
  <advance width="470"/>
  <unicode hex="220F"/>
  <outline>
    <contour>
      <point x="-49" y="-91" type="line"/>
      <point x="138" y="-91" type="line"/>
      <point x="276" y="560" type="line"/>
      <point x="314" y="560" type="line"/>
      <point x="176" y="-91" type="line"/>
      <point x="365" y="-91" type="line"/>
      <point x="539" y="729" type="line"/>
      <point x="125" y="729" type="line"/>
    </contour>
  </outline>
</glyph>
<glyph name="summation" format="2">
  <advance width="404"/>
  <unicode hex="2211"/>
  <outline>
    <contour>
      <point x="-61" y="-91" type="line"/>
      <point x="312" y="-91" type="line"/>
      <point x="344" y="62" type="line"/>
      <point x="174" y="62" type="line"/>
      <point x="176" y="68" type="line"/>
      <point x="368" y="319" type="line"/>
      <point x="282" y="570" type="line"/>
      <point x="284" y="576" type="line"/>
      <point x="454" y="576" type="line"/>
      <point x="486" y="729" type="line"/>
      <point x="113" y="729" type="line"/>
      <point x="76" y="555" type="line"/>
      <point x="162" y="330" type="line"/>
      <point x="158" y="308" type="line"/>
      <point x="-24" y="83" type="line"/>
    </contour>
  </outline>
</glyph>
<glyph name="minus" format="2">
  <advance width="500"/>
  <unicode hex="2212"/>
  <outline>
    <contour>
      <point x="34" y="290" type="line"/>
      <point x="474" y="290" type="line"/>
      <point x="504" y="432" type="line"/>
      <point x="64" y="432" type="line"/>
    </contour>
  </outline>
</glyph>
<glyph name="radical" format="2">
  <advance width="536"/>
  <unicode hex="221A"/>
  <outline>
    <contour>
      <point x="93" y="-91" type="line"/>
      <point x="298" y="-91" type="line"/>
      <point x="625" y="729" type="line"/>
      <point x="442" y="729" type="line"/>
      <point x="207" y="105" type="line"/>
      <point x="199" y="105" type="line"/>
      <point x="193" y="391" type="line"/>
      <point x="36" y="391" type="line"/>
      <point x="0" y="222" type="line"/>
      <point x="77" y="222" type="line"/>
    </contour>
  </outline>
</glyph>
<glyph name="infinity" format="2">
  <advance width="867"/>
  <unicode hex="221E"/>
  <outline>
    <contour>
      <point x="216" y="120" type="curve" smooth="yes"/>
      <point x="300" y="120"/>
      <point x="377" y="164"/>
      <point x="428" y="231" type="curve"/>
      <point x="457" y="164"/>
      <point x="515" y="120"/>
      <point x="602" y="120" type="curve" smooth="yes"/>
      <point x="726" y="120"/>
      <point x="846" y="215"/>
      <point x="873" y="362" type="curve" smooth="yes"/>
      <point x="899" y="505"/>
      <point x="815" y="609"/>
      <point x="688" y="609" type="curve" smooth="yes"/>
      <point x="602" y="609"/>
      <point x="526" y="557"/>
      <point x="474" y="492" type="curve"/>
      <point x="449" y="557"/>
      <point x="389" y="609"/>
      <point x="305" y="609" type="curve" smooth="yes"/>
      <point x="177" y="609"/>
      <point x="57" y="505"/>
      <point x="32" y="362" type="curve" smooth="yes"/>
      <point x="5" y="215"/>
      <point x="90" y="120"/>
    </contour>
    <contour>
      <point x="260" y="299" type="curve" smooth="yes"/>
      <point x="220" y="299"/>
      <point x="202" y="330"/>
      <point x="209" y="366" type="curve" smooth="yes"/>
      <point x="216" y="401"/>
      <point x="245" y="431"/>
      <point x="284" y="431" type="curve" smooth="yes"/>
      <point x="328" y="431"/>
      <point x="355" y="395"/>
      <point x="369" y="366" type="curve"/>
      <point x="345" y="337"/>
      <point x="303" y="299"/>
    </contour>
    <contour>
      <point x="620" y="299" type="curve" smooth="yes"/>
      <point x="579" y="299"/>
      <point x="551" y="334"/>
      <point x="538" y="366" type="curve"/>
      <point x="561" y="395"/>
      <point x="602" y="431"/>
      <point x="643" y="431" type="curve" smooth="yes"/>
      <point x="684" y="431"/>
      <point x="702" y="401"/>
      <point x="696" y="366" type="curve" smooth="yes"/>
      <point x="689" y="330"/>
      <point x="659" y="299"/>
    </contour>
  </outline>
</glyph>
<glyph name="integral" format="2">
  <advance width="381"/>
  <unicode hex="222B"/>
  <outline>
    <contour>
      <point x="-66" y="-91" type="line"/>
      <point x="41" y="-91" type="line" smooth="yes"/>
      <point x="139" y="-91"/>
      <point x="218" y="-32"/>
      <point x="240" y="72" type="curve" smooth="yes"/>
      <point x="347" y="573" type="line"/>
      <point x="434" y="573" type="line"/>
      <point x="467" y="729" type="line"/>
      <point x="349" y="729" type="line" smooth="yes"/>
      <point x="251" y="729"/>
      <point x="173" y="671"/>
      <point x="151" y="566" type="curve" smooth="yes"/>
      <point x="44" y="64" type="line"/>
      <point x="-33" y="64" type="line"/>
    </contour>
  </outline>
</glyph>
<glyph name="approxequal" format="2">
  <advance width="500"/>
  <unicode hex="2248"/>
  <outline>
    <contour>
      <point x="65" y="380" type="curve"/>
      <point x="145" y="380" type="line"/>
      <point x="146" y="403"/>
      <point x="164" y="438"/>
      <point x="198" y="438" type="curve" smooth="yes"/>
      <point x="246" y="438"/>
      <point x="272" y="373"/>
      <point x="357" y="373" type="curve" smooth="yes"/>
      <point x="418" y="373"/>
      <point x="497" y="421"/>
      <point x="514" y="573" type="curve"/>
      <point x="436" y="573" type="line"/>
      <point x="430" y="540"/>
      <point x="408" y="512"/>
      <point x="372" y="512" type="curve" smooth="yes"/>
      <point x="313" y="512"/>
      <point x="291" y="576"/>
      <point x="217" y="576" type="curve" smooth="yes"/>
      <point x="157" y="576"/>
      <point x="84" y="526"/>
    </contour>
    <contour>
      <point x="26" y="161" type="curve"/>
      <point x="106" y="161" type="line"/>
      <point x="107" y="184"/>
      <point x="124" y="220"/>
      <point x="159" y="220" type="curve" smooth="yes"/>
      <point x="207" y="220"/>
      <point x="233" y="155"/>
      <point x="318" y="155" type="curve" smooth="yes"/>
      <point x="379" y="155"/>
      <point x="456" y="203"/>
      <point x="475" y="354" type="curve"/>
      <point x="397" y="354" type="line"/>
      <point x="391" y="322"/>
      <point x="369" y="294"/>
      <point x="333" y="294" type="curve" smooth="yes"/>
      <point x="274" y="294"/>
      <point x="252" y="358"/>
      <point x="178" y="358" type="curve" smooth="yes"/>
      <point x="118" y="358"/>
      <point x="45" y="308"/>
    </contour>
  </outline>
</glyph>
<glyph name="notequal" format="2">
  <advance width="501"/>
  <unicode hex="2260"/>
  <outline>
    <contour>
      <point x="32" y="93" type="line"/>
      <point x="127" y="93" type="line"/>
      <point x="497" y="630" type="line"/>
      <point x="402" y="630" type="line"/>
    </contour>
    <contour>
      <point x="11" y="184" type="line"/>
      <point x="453" y="184" type="line"/>
      <point x="483" y="326" type="line"/>
      <point x="41" y="326" type="line"/>
    </contour>
    <contour>
      <point x="57" y="404" type="line"/>
      <point x="499" y="404" type="line"/>
      <point x="529" y="546" type="line"/>
      <point x="87" y="546" type="line"/>
    </contour>
  </outline>
</glyph>
<glyph name="lessequal" format="2">
  <advance width="500"/>
  <unicode hex="2264"/>
  <outline>
    <contour>
      <point x="438" y="162" type="line"/>
      <point x="478" y="350" type="line"/>
      <point x="261" y="408" type="line"/>
      <point x="264" y="422" type="line"/>
      <point x="505" y="475" type="line"/>
      <point x="548" y="677" type="line"/>
      <point x="86" y="531" type="line"/>
      <point x="40" y="316" type="line"/>
    </contour>
    <contour>
      <point x="-27" y="0" type="line"/>
      <point x="404" y="0" type="line"/>
      <point x="436" y="146" type="line"/>
      <point x="4" y="146" type="line"/>
    </contour>
  </outline>
</glyph>
<glyph name="greaterequal" format="2">
  <advance width="500"/>
  <unicode hex="2265"/>
  <outline>
    <contour>
      <point x="19" y="162" type="line"/>
      <point x="481" y="308" type="line"/>
      <point x="527" y="523" type="line"/>
      <point x="129" y="677" type="line"/>
      <point x="89" y="489" type="line"/>
      <point x="306" y="431" type="line"/>
      <point x="303" y="417" type="line"/>
      <point x="62" y="364" type="line"/>
    </contour>
    <contour>
      <point x="-15" y="0" type="line"/>
      <point x="416" y="0" type="line"/>
      <point x="448" y="146" type="line"/>
      <point x="16" y="146" type="line"/>
    </contour>
  </outline>
</glyph>
<glyph name="whiteCircle" format="2">
  <advance width="618"/>
  <unicode hex="25CB"/>
  <anchor x="329" y="365" name="center"/>
  <outline>
    <contour>
      <point x="302" y="-30" type="curve" smooth="yes"/>
      <point x="438" y="-30"/>
      <point x="546" y="48"/>
      <point x="580" y="207" type="curve" smooth="yes"/>
      <point x="596" y="285"/>
      <point x="613" y="363"/>
      <point x="629" y="441" type="curve" smooth="yes"/>
      <point x="670" y="638"/>
      <point x="555" y="759"/>
      <point x="356" y="759" type="curve" smooth="yes"/>
      <point x="218" y="759"/>
      <point x="110" y="678"/>
      <point x="76" y="519" type="curve" smooth="yes"/>
      <point x="60" y="441"/>
      <point x="43" y="363"/>
      <point x="27" y="285" type="curve" smooth="yes"/>
      <point x="-13" y="92"/>
      <point x="104" y="-30"/>
    </contour>
    <contour>
      <point x="307" y="38" type="curve" smooth="yes"/>
      <point x="154" y="38"/>
      <point x="67" y="122"/>
      <point x="100" y="277" type="curve" smooth="yes"/>
      <point x="116" y="355"/>
      <point x="133" y="432"/>
      <point x="149" y="510" type="curve" smooth="yes"/>
      <point x="172" y="620"/>
      <point x="237" y="691"/>
      <point x="351" y="691" type="curve" smooth="yes"/>
      <point x="504" y="691"/>
      <point x="590" y="608"/>
      <point x="558" y="454" type="curve" smooth="yes"/>
      <point x="542" y="376"/>
      <point x="525" y="298"/>
      <point x="509" y="220" type="curve" smooth="yes"/>
      <point x="486" y="109"/>
      <point x="422" y="38"/>
    </contour>
  </outline>
</glyph>
<glyph name="blackCircle" format="2">
  <advance width="618"/>
  <unicode hex="25CF"/>
  <anchor x="329" y="365" name="center"/>
  <outline>
    <contour>
      <point x="302" y="-30" type="curve" smooth="yes"/>
      <point x="104" y="-30"/>
      <point x="-13" y="92"/>
      <point x="27" y="285" type="curve" smooth="yes"/>
      <point x="43" y="363"/>
      <point x="60" y="441"/>
      <point x="76" y="519" type="curve" smooth="yes"/>
      <point x="110" y="678"/>
      <point x="218" y="759"/>
      <point x="356" y="759" type="curve" smooth="yes"/>
      <point x="555" y="759"/>
      <point x="670" y="638"/>
      <point x="629" y="441" type="curve" smooth="yes"/>
      <point x="613" y="363"/>
      <point x="596" y="285"/>
      <point x="580" y="207" type="curve" smooth="yes"/>
      <point x="546" y="48"/>
      <point x="438" y="-30"/>
    </contour>
  </outline>
</glyph>
<glyph name="whiteFrowningFace" format="2">
  <advance width="796"/>
  <unicode hex="2639"/>
  <outline>
    <contour>
      <point x="418" y="-10" type="curve" smooth="yes"/>
      <point x="636" y="-10"/>
      <point x="797" y="143"/>
      <point x="797" y="367" type="curve" smooth="yes"/>
      <point x="797" y="585"/>
      <point x="636" y="739"/>
      <point x="418" y="739" type="curve" smooth="yes"/>
      <point x="200" y="739"/>
      <point x="38" y="585"/>
      <point x="38" y="367" type="curve" smooth="yes"/>
      <point x="38" y="143"/>
      <point x="200" y="-10"/>
    </contour>
    <contour>
      <point x="264" y="203" type="line"/>
      <point x="292" y="239"/>
      <point x="350" y="264"/>
      <point x="418" y="264" type="curve" smooth="yes"/>
      <point x="486" y="264"/>
      <point x="544" y="239"/>
      <point x="572" y="203" type="curve"/>
      <point x="627" y="223" type="line"/>
      <point x="598" y="286"/>
      <point x="519" y="333"/>
      <point x="418" y="333" type="curve" smooth="yes"/>
      <point x="317" y="333"/>
      <point x="238" y="286"/>
      <point x="209" y="223" type="curve"/>
    </contour>
    <contour>
      <point x="418" y="65" type="curve" smooth="yes"/>
      <point x="238" y="65"/>
      <point x="118" y="187"/>
      <point x="118" y="367" type="curve" smooth="yes"/>
      <point x="118" y="544"/>
      <point x="238" y="664"/>
      <point x="418" y="664" type="curve" smooth="yes"/>
      <point x="597" y="664"/>
      <point x="718" y="544"/>
      <point x="718" y="367" type="curve" smooth="yes"/>
      <point x="718" y="187"/>
      <point x="597" y="65"/>
    </contour>
    <contour>
      <point x="339" y="391" type="curve" smooth="yes"/>
      <point x="364" y="391"/>
      <point x="380" y="407"/>
      <point x="380" y="436" type="curve" smooth="yes"/>
      <point x="380" y="481" type="line" smooth="yes"/>
      <point x="380" y="510"/>
      <point x="364" y="526"/>
      <point x="339" y="526" type="curve" smooth="yes"/>
      <point x="315" y="526"/>
      <point x="299" y="510"/>
      <point x="299" y="481" type="curve" smooth="yes"/>
      <point x="299" y="436" type="line" smooth="yes"/>
      <point x="299" y="407"/>
      <point x="315" y="391"/>
    </contour>
    <contour>
      <point x="495" y="391" type="curve" smooth="yes"/>
      <point x="520" y="391"/>
      <point x="536" y="407"/>
      <point x="536" y="436" type="curve" smooth="yes"/>
      <point x="536" y="481" type="line" smooth="yes"/>
      <point x="536" y="510"/>
      <point x="520" y="526"/>
      <point x="495" y="526" type="curve" smooth="yes"/>
      <point x="471" y="526"/>
      <point x="455" y="510"/>
      <point x="455" y="481" type="curve" smooth="yes"/>
      <point x="455" y="436" type="line" smooth="yes"/>
      <point x="455" y="407"/>
      <point x="471" y="391"/>
    </contour>
  </outline>
</glyph>
<glyph name="whiteSmilingFace" format="2">
  <advance width="796"/>
  <unicode hex="263A"/>
  <outline>
    <contour>
      <point x="418" y="-10" type="curve" smooth="yes"/>
      <point x="636" y="-10"/>
      <point x="797" y="143"/>
      <point x="797" y="367" type="curve" smooth="yes"/>
      <point x="797" y="585"/>
      <point x="636" y="739"/>
      <point x="418" y="739" type="curve" smooth="yes"/>
      <point x="200" y="739"/>
      <point x="38" y="585"/>
      <point x="38" y="367" type="curve" smooth="yes"/>
      <point x="38" y="143"/>
      <point x="200" y="-10"/>
    </contour>
    <contour>
      <point x="418" y="125" type="curve" smooth="yes"/>
      <point x="534" y="125"/>
      <point x="627" y="195"/>
      <point x="646" y="296" type="curve"/>
      <point x="670" y="296" type="line"/>
      <point x="670" y="333" type="line"/>
      <point x="544" y="333" type="line"/>
      <point x="544" y="296" type="line"/>
      <point x="576" y="296" type="line"/>
      <point x="556" y="234"/>
      <point x="497" y="194"/>
      <point x="418" y="194" type="curve" smooth="yes"/>
      <point x="339" y="194"/>
      <point x="280" y="234"/>
      <point x="261" y="296" type="curve"/>
      <point x="293" y="296" type="line"/>
      <point x="293" y="333" type="line"/>
      <point x="165" y="333" type="line"/>
      <point x="165" y="296" type="line"/>
      <point x="190" y="296" type="line"/>
      <point x="209" y="195"/>
      <point x="302" y="125"/>
    </contour>
    <contour>
      <point x="418" y="65" type="curve" smooth="yes"/>
      <point x="238" y="65"/>
      <point x="118" y="187"/>
      <point x="118" y="367" type="curve" smooth="yes"/>
      <point x="118" y="544"/>
      <point x="238" y="664"/>
      <point x="418" y="664" type="curve" smooth="yes"/>
      <point x="597" y="664"/>
      <point x="718" y="544"/>
      <point x="718" y="367" type="curve" smooth="yes"/>
      <point x="718" y="187"/>
      <point x="597" y="65"/>
    </contour>
    <contour>
      <point x="339" y="391" type="curve" smooth="yes"/>
      <point x="364" y="391"/>
      <point x="380" y="407"/>
      <point x="380" y="436" type="curve" smooth="yes"/>
      <point x="380" y="481" type="line" smooth="yes"/>
      <point x="380" y="510"/>
      <point x="364" y="526"/>
      <point x="339" y="526" type="curve" smooth="yes"/>
      <point x="315" y="526"/>
      <point x="299" y="510"/>
      <point x="299" y="481" type="curve" smooth="yes"/>
      <point x="299" y="436" type="line" smooth="yes"/>
      <point x="299" y="407"/>
      <point x="315" y="391"/>
    </contour>
    <contour>
      <point x="495" y="391" type="curve" smooth="yes"/>
      <point x="520" y="391"/>
      <point x="536" y="407"/>
      <point x="536" y="436" type="curve" smooth="yes"/>
      <point x="536" y="481" type="line" smooth="yes"/>
      <point x="536" y="510"/>
      <point x="520" y="526"/>
      <point x="495" y="526" type="curve" smooth="yes"/>
      <point x="471" y="526"/>
      <point x="455" y="510"/>
      <point x="455" y="481" type="curve" smooth="yes"/>
      <point x="455" y="436" type="line" smooth="yes"/>
      <point x="455" y="407"/>
      <point x="471" y="391"/>
    </contour>
  </outline>
</glyph>
<glyph name="checkmark" format="2">
  <advance width="776"/>
  <unicode hex="2713"/>
  <outline>
    <contour>
      <point x="300" y="64" type="line"/>
      <point x="796" y="531" type="line"/>
      <point x="685" y="661" type="line"/>
      <point x="313" y="305" type="line"/>
      <point x="173" y="466" type="line"/>
      <point x="52" y="354" type="line"/>
    </contour>
  </outline>
</glyph>
<glyph name="fi" format="2">
  <advance width="506"/>
  <unicode hex="FB01"/>
  <anchor x="253" y="0" name="caret_1"/>
  <outline>
    <contour>
      <point x="15" y="0" type="line"/>
      <point x="185" y="0" type="line"/>
      <point x="271" y="408" type="line"/>
      <point x="337" y="408" type="line"/>
      <point x="251" y="0" type="line"/>
      <point x="421" y="0" type="line"/>
      <point x="536" y="545" type="line"/>
      <point x="300" y="545" type="line"/>
      <point x="311" y="595" type="line"/>
      <point x="547" y="595" type="line"/>
      <point x="575" y="729" type="line"/>
      <point x="277" y="729" type="line" smooth="yes"/>
      <point x="213" y="729"/>
      <point x="164" y="702"/>
      <point x="147" y="623" type="curve" smooth="yes"/>
      <point x="130" y="545" type="line"/>
      <point x="70" y="545" type="line"/>
      <point x="41" y="408" type="line"/>
      <point x="101" y="408" type="line"/>
    </contour>
  </outline>
</glyph>
<glyph name="fl" format="2">
  <advance width="576"/>
  <unicode hex="FB02"/>
  <anchor x="288" y="0" name="caret_1"/>
  <outline>
    <contour>
      <point x="15" y="0" type="line"/>
      <point x="185" y="0" type="line"/>
      <point x="271" y="408" type="line"/>
      <point x="351" y="408" type="line"/>
      <point x="381" y="545" type="line"/>
      <point x="300" y="545" type="line"/>
      <point x="311" y="595" type="line"/>
      <point x="447" y="595" type="line"/>
      <point x="321" y="0" type="line"/>
      <point x="491" y="0" type="line"/>
      <point x="645" y="729" type="line"/>
      <point x="277" y="729" type="line" smooth="yes"/>
      <point x="213" y="729"/>
      <point x="164" y="702"/>
      <point x="147" y="623" type="curve" smooth="yes"/>
      <point x="130" y="545" type="line"/>
      <point x="70" y="545" type="line"/>
      <point x="41" y="408" type="line"/>
      <point x="101" y="408" type="line"/>
    </contour>
  </outline>
</glyph>
<glyph name="I.ss04" format="2">
  <advance width="238"/>
  <note>
I
</note>
  <anchor x="63" y="0" name="bottom"/>
  <anchor x="148" y="0" name="ogonek"/>
  <anchor x="215" y="729" name="top"/>
  <anchor x="131" y="729" name="topleft"/>
  <outline>
    <contour>
      <point x="-23" y="0" type="line"/>
      <point x="148" y="0" type="line"/>
      <point x="301" y="729" type="line"/>
      <point x="129" y="729" type="line"/>
    </contour>
  </outline>
</glyph>
<glyph name="_AE.E" format="2">
  <advance width="307"/>
  <anchor x="-18" y="0" name="#entry"/>
  <outline>
    <contour>
      <point x="174" y="582" type="line"/>
      <point x="346" y="582" type="line"/>
      <point x="377" y="729" type="line"/>
      <point x="174" y="729" type="line"/>
    </contour>
    <contour>
      <point x="-18" y="0" type="line"/>
      <point x="230" y="0" type="line"/>
      <point x="261" y="147" type="line"/>
      <point x="89" y="147" type="line"/>
    </contour>
    <contour>
      <point x="148" y="299" type="line"/>
      <point x="253" y="299" type="line"/>
      <point x="283" y="443" type="line"/>
      <point x="148" y="443" type="line"/>
    </contour>
  </outline>
</glyph>
<glyph name="_Euro.bars" format="2">
  <advance width="380"/>
  <anchor x="262" y="0" name="_bottom"/>
  <outline>
    <contour>
      <point x="334" y="247" type="line"/>
      <point x="356" y="350" type="line"/>
      <point x="186" y="341" type="line"/>
      <point x="168" y="256" type="line"/>
    </contour>
    <contour>
      <point x="35" y="247" type="line"/>
      <point x="168" y="256" type="line"/>
      <point x="186" y="341" type="line"/>
      <point x="57" y="350" type="line"/>
    </contour>
    <contour>
      <point x="62" y="373" type="line"/>
      <point x="195" y="382" type="line"/>
      <point x="212" y="464" type="line"/>
      <point x="83" y="473" type="line"/>
    </contour>
    <contour>
      <point x="361" y="373" type="line"/>
      <point x="382" y="473" type="line"/>
      <point x="212" y="464" type="line"/>
      <point x="195" y="382" type="line"/>
    </contour>
  </outline>
</glyph>
<glyph name="_OE.O" format="2">
  <advance width="508"/>
  <anchor x="252" y="0" name="#exit"/>
  <outline>
    <contour>
      <point x="203" y="0" type="curve" smooth="yes"/>
      <point x="334" y="0" type="line"/>
      <point x="334" y="144" type="line"/>
      <point x="229" y="144" type="line" smooth="yes"/>
      <point x="182" y="144"/>
      <point x="175" y="179"/>
      <point x="188" y="239" type="curve" smooth="yes"/>
      <point x="242" y="492" type="line" smooth="yes"/>
      <point x="258" y="567"/>
      <point x="280" y="585"/>
      <point x="320" y="585" type="curve" smooth="yes"/>
      <point x="534" y="585" type="line"/>
      <point x="534" y="729" type="line"/>
      <point x="355" y="729" type="line" smooth="yes"/>
      <point x="196" y="729"/>
      <point x="104" y="658"/>
      <point x="70" y="495" type="curve" smooth="yes"/>
      <point x="23" y="268" type="line" smooth="yes"/>
      <point x="-15" y="85"/>
      <point x="66" y="0"/>
    </contour>
  </outline>
</glyph>
<glyph name="_Stem.Uppercase" format="2">
  <advance width="257"/>
  <outline>
    <contour>
      <point x="-1" y="0" type="line"/>
      <point x="170" y="0" type="line"/>
      <point x="298" y="729" type="line"/>
      <point x="126" y="729" type="line"/>
    </contour>
  </outline>
</glyph>
<glyph name="_bitcoin.bars" format="2">
  <advance width="338"/>
  <anchor x="158" y="0" name="_bottom"/>
  <outline>
    <contour>
      <point x="279" y="688" type="line"/>
      <point x="376" y="688" type="line"/>
      <point x="420" y="850" type="line"/>
      <point x="303" y="850" type="line"/>
    </contour>
    <contour>
      <point x="-43" y="-121" type="line"/>
      <point x="75" y="-121" type="line"/>
      <point x="99" y="41" type="line"/>
      <point x="1" y="41" type="line"/>
    </contour>
    <contour>
      <point x="97" y="-121" type="line"/>
      <point x="214" y="-121" type="line"/>
      <point x="238" y="41" type="line"/>
      <point x="141" y="41" type="line"/>
    </contour>
    <contour>
      <point x="139" y="688" type="line"/>
      <point x="237" y="688" type="line"/>
      <point x="281" y="850" type="line"/>
      <point x="163" y="850" type="line"/>
    </contour>
  </outline>
</glyph>
<glyph name="_copyright.C" format="2">
  <advance width="448"/>
  <anchor x="244" y="365" name="_center"/>
  <outline>
    <contour>
      <point x="216" y="69" type="curve" smooth="yes"/>
      <point x="321" y="69"/>
      <point x="379" y="121"/>
      <point x="404" y="253" type="curve"/>
      <point x="270" y="271" type="line"/>
      <point x="259" y="209"/>
      <point x="245" y="184"/>
      <point x="214" y="184" type="curve" smooth="yes"/>
      <point x="178" y="184"/>
      <point x="169" y="207"/>
      <point x="177" y="247" type="curve" smooth="yes"/>
      <point x="229" y="496" type="line" smooth="yes"/>
      <point x="237" y="532"/>
      <point x="252" y="544"/>
      <point x="273" y="544" type="curve" smooth="yes"/>
      <point x="322" y="544"/>
      <point x="322" y="511"/>
      <point x="308" y="445" type="curve"/>
      <point x="440" y="426" type="line"/>
      <point x="473" y="566"/>
      <point x="413" y="660"/>
      <point x="275" y="660" type="curve" smooth="yes"/>
      <point x="174" y="660"/>
      <point x="113" y="612"/>
      <point x="86" y="488" type="curve" smooth="yes"/>
      <point x="45" y="294" type="line" smooth="yes"/>
      <point x="17" y="159"/>
      <point x="78" y="69"/>
    </contour>
  </outline>
</glyph>
<glyph name="_dollar.bar" format="2">
  <advance width="242"/>
  <anchor x="79" y="0" name="_bottom"/>
  <outline>
    <contour>
      <point x="-32" y="-121" type="line"/>
      <point x="118" y="-121" type="line"/>
      <point x="137" y="25" type="line"/>
      <point x="11" y="25" type="line"/>
    </contour>
    <contour>
      <point x="148" y="721" type="line"/>
      <point x="274" y="721" type="line"/>
      <point x="313" y="850" type="line"/>
      <point x="163" y="850" type="line"/>
    </contour>
  </outline>
</glyph>
<glyph name="_published.P" format="2">
  <advance width="380"/>
  <anchor x="187" y="365" name="_center"/>
  <outline>
    <contour>
      <point x="5" y="102" type="line"/>
      <point x="129" y="102" type="line"/>
      <point x="218" y="528" type="line"/>
      <point x="225" y="528" type="line" smooth="yes"/>
      <point x="260" y="528"/>
      <point x="267" y="507"/>
      <point x="254" y="443" type="curve" smooth="yes"/>
      <point x="242" y="384"/>
      <point x="224" y="371"/>
      <point x="186" y="371" type="curve" smooth="yes"/>
      <point x="173" y="371" type="line"/>
      <point x="152" y="271" type="line"/>
      <point x="206" y="271" type="line" smooth="yes"/>
      <point x="304" y="271"/>
      <point x="373" y="339"/>
      <point x="378" y="477" type="curve" smooth="yes"/>
      <point x="381" y="560"/>
      <point x="346" y="627"/>
      <point x="249" y="627" type="curve" smooth="yes"/>
      <point x="115" y="627" type="line"/>
    </contour>
  </outline>
</glyph>
<glyph name="_tail.Q" format="2">
  <advance width="327"/>
  <anchor x="55" y="0" name="_bottom"/>
  <outline>
    <contour>
      <point x="57" y="-165" type="curve" smooth="yes"/>
      <point x="194" y="-165" type="line"/>
      <point x="218" y="-46" type="line"/>
      <point x="125" y="-46" type="line"/>
      <point x="142" y="33" type="line"/>
      <point x="-11" y="33" type="line"/>
      <point x="-33" y="-69" type="line" smooth="yes"/>
      <point x="-46" y="-129"/>
      <point x="-5" y="-165"/>
    </contour>
  </outline>
</glyph>
<glyph name="_tail.Q.ss01" format="2">
  <advance width="350"/>
  <anchor x="-9" y="0" name="_bottom"/>
  <outline>
    <contour>
      <point x="250" y="-9" type="line"/>
      <point x="284" y="153" type="line"/>
      <point x="50" y="318" type="line"/>
      <point x="16" y="156" type="line"/>
    </contour>
  </outline>
</glyph>
<glyph name="_yen.bars" format="2">
  <advance width="460"/>
  <anchor x="172" y="0" name="_bottom"/>
  <outline>
    <contour>
      <point x="35" y="245" type="line"/>
      <point x="414" y="245" type="line"/>
      <point x="443" y="382" type="line"/>
      <point x="64" y="382" type="line"/>
    </contour>
    <contour>
      <point x="-2" y="73" type="line"/>
      <point x="377" y="73" type="line"/>
      <point x="406" y="209" type="line"/>
      <point x="27" y="209" type="line"/>
    </contour>
  </outline>
</glyph>
<glyph name="a.ss01" format="2">
  <advance width="462"/>
  <note>
a
</note>
  <anchor x="153" y="0" name="bottom"/>
  <anchor x="376" y="0" name="ogonek"/>
  <anchor x="269" y="545" name="top"/>
  <outline>
    <contour>
      <point x="100" y="-9" type="curve" smooth="yes"/>
      <point x="152" y="-9"/>
      <point x="192" y="17"/>
      <point x="212" y="58" type="curve"/>
      <point x="220" y="58" type="line"/>
      <point x="219" y="0" type="line"/>
      <point x="376" y="0" type="line"/>
      <point x="446" y="326" type="line" smooth="yes"/>
      <point x="474" y="473"/>
      <point x="405" y="555"/>
      <point x="264" y="555" type="curve" smooth="yes"/>
      <point x="140" y="555"/>
      <point x="54" y="483"/>
      <point x="38" y="367" type="curve"/>
      <point x="195" y="367" type="line"/>
      <point x="198" y="403"/>
      <point x="220" y="420"/>
      <point x="246" y="420" type="curve" smooth="yes"/>
      <point x="277" y="420"/>
      <point x="291" y="401"/>
      <point x="284" y="368" type="curve" smooth="yes"/>
      <point x="235" y="134" type="line"/>
      <point x="227" y="123"/>
      <point x="216" y="117"/>
      <point x="202" y="117" type="curve" smooth="yes"/>
      <point x="181" y="117"/>
      <point x="168" y="134"/>
      <point x="173" y="164" type="curve" smooth="yes"/>
      <point x="175" y="176" type="line" smooth="yes"/>
      <point x="183" y="224"/>
      <point x="208" y="240"/>
      <point x="242" y="240" type="curve" smooth="yes"/>
      <point x="274" y="240" type="line"/>
      <point x="293" y="335" type="line"/>
      <point x="231" y="335" type="line" smooth="yes"/>
      <point x="96" y="335"/>
      <point x="2" y="265"/>
      <point x="2" y="106" type="curve" smooth="yes"/>
      <point x="2" y="35"/>
      <point x="41" y="-9"/>
    </contour>
  </outline>
</glyph>
<glyph name="braceleft.case" format="2">
  <advance width="340"/>
  <outline>
    <contour>
      <point x="148" y="-63" type="curve" smooth="yes"/>
      <point x="250" y="-63" type="line"/>
      <point x="277" y="64" type="line"/>
      <point x="205" y="64" type="line"/>
      <point x="241" y="231" type="line" smooth="yes"/>
      <point x="253" y="290"/>
      <point x="249" y="340"/>
      <point x="180" y="369" type="curve"/>
      <point x="180" y="372" type="line"/>
      <point x="257" y="388"/>
      <point x="286" y="443"/>
      <point x="299" y="506" type="curve" smooth="yes"/>
      <point x="333" y="666" type="line"/>
      <point x="405" y="666" type="line"/>
      <point x="432" y="793" type="line"/>
      <point x="330" y="793" type="line" smooth="yes"/>
      <point x="240" y="793"/>
      <point x="186" y="737"/>
      <point x="170" y="663" type="curve" smooth="yes"/>
      <point x="137" y="504" type="line" smooth="yes"/>
      <point x="127" y="457"/>
      <point x="98" y="426"/>
      <point x="57" y="426" type="curve" smooth="yes"/>
      <point x="48" y="426" type="line"/>
      <point x="21" y="299" type="line"/>
      <point x="30" y="299" type="line" smooth="yes"/>
      <point x="68" y="299"/>
      <point x="88" y="274"/>
      <point x="77" y="226" type="curve" smooth="yes"/>
      <point x="44" y="67" type="line" smooth="yes"/>
      <point x="28" y="-7"/>
      <point x="58" y="-63"/>
    </contour>
  </outline>
</glyph>
<glyph name="bracketleft.case" format="2">
  <advance width="323"/>
  <outline>
    <contour>
      <point x="-38" y="-63" type="line"/>
      <point x="232" y="-63" type="line"/>
      <point x="259" y="63" type="line"/>
      <point x="152" y="63" type="line"/>
      <point x="280" y="667" type="line"/>
      <point x="387" y="667" type="line"/>
      <point x="414" y="793" type="line"/>
      <point x="144" y="793" type="line"/>
    </contour>
  </outline>
</glyph>
<glyph name="brevecomb_gravecomb" format="2">
  <anchor x="254" y="545" name="_top"/>
  <outline>
    <contour>
      <point x="267" y="576" type="curve" smooth="yes"/>
      <point x="358" y="576"/>
      <point x="425" y="619"/>
      <point x="435" y="712" type="curve"/>
      <point x="319" y="712" type="line"/>
      <point x="316" y="680"/>
      <point x="302" y="663"/>
      <point x="277" y="663" type="curve" smooth="yes"/>
      <point x="255" y="663"/>
      <point x="243" y="681"/>
      <point x="247" y="712" type="curve"/>
      <point x="133" y="712" type="line"/>
      <point x="129" y="630"/>
      <point x="183" y="576"/>
    </contour>
    <contour>
      <point x="235" y="741" type="line"/>
      <point x="351" y="741" type="line"/>
      <point x="327" y="852" type="line"/>
      <point x="195" y="852" type="line"/>
    </contour>
  </outline>
</glyph>
<glyph name="brevecomb_hookabovecomb" format="2">
  <anchor x="255" y="545" name="_top"/>
  <outline>
    <contour>
      <point x="267" y="576" type="curve" smooth="yes"/>
      <point x="358" y="576"/>
      <point x="425" y="619"/>
      <point x="435" y="712" type="curve"/>
      <point x="319" y="712" type="line"/>
      <point x="316" y="680"/>
      <point x="302" y="663"/>
      <point x="277" y="663" type="curve" smooth="yes"/>
      <point x="255" y="663"/>
      <point x="243" y="681"/>
      <point x="247" y="712" type="curve"/>
      <point x="133" y="712" type="line"/>
      <point x="129" y="630"/>
      <point x="183" y="576"/>
    </contour>
    <contour>
      <point x="272" y="719" type="line"/>
      <point x="366" y="741"/>
      <point x="397" y="776"/>
      <point x="397" y="814" type="curve" smooth="yes"/>
      <point x="397" y="855"/>
      <point x="359" y="878"/>
      <point x="292" y="878" type="curve" smooth="yes"/>
      <point x="268" y="878"/>
      <point x="250" y="876"/>
      <point x="230" y="871" type="curve"/>
      <point x="220" y="821" type="line"/>
      <point x="225" y="822"/>
      <point x="235" y="823"/>
      <point x="244" y="823" type="curve" smooth="yes"/>
      <point x="261" y="823"/>
      <point x="271" y="816"/>
      <point x="271" y="804" type="curve" smooth="yes"/>
      <point x="271" y="793"/>
      <point x="260" y="783"/>
      <point x="245" y="776" type="curve"/>
    </contour>
  </outline>
</glyph>
<glyph name="brevecomb_tildecomb" format="2">
  <anchor x="266" y="545" name="_top"/>
  <outline>
    <contour>
      <point x="278" y="576" type="curve" smooth="yes"/>
      <point x="369" y="576"/>
      <point x="436" y="619"/>
      <point x="446" y="712" type="curve"/>
      <point x="330" y="712" type="line"/>
      <point x="327" y="680"/>
      <point x="313" y="663"/>
      <point x="288" y="663" type="curve" smooth="yes"/>
      <point x="266" y="663"/>
      <point x="254" y="681"/>
      <point x="258" y="712" type="curve"/>
      <point x="144" y="712" type="line"/>
      <point x="140" y="630"/>
      <point x="194" y="576"/>
    </contour>
    <contour>
      <point x="359" y="740" type="curve" smooth="yes"/>
      <point x="422" y="740"/>
      <point x="466" y="783"/>
      <point x="476" y="855" type="curve"/>
      <point x="416" y="855" type="line"/>
      <point x="413" y="836"/>
      <point x="400" y="826"/>
      <point x="378" y="826" type="curve" smooth="yes"/>
      <point x="337" y="826"/>
      <point x="306" y="858"/>
      <point x="254" y="858" type="curve" smooth="yes"/>
      <point x="194" y="858"/>
      <point x="152" y="816"/>
      <point x="140" y="744" type="curve"/>
      <point x="201" y="744" type="line"/>
      <point x="204" y="762"/>
      <point x="217" y="774"/>
      <point x="235" y="774" type="curve" smooth="yes"/>
      <point x="269" y="774"/>
      <point x="301" y="740"/>
    </contour>
  </outline>
</glyph>
<glyph name="caroncomb.alt" format="2">
  <anchor x="116" y="729" name="_topright"/>
  <outline>
    <contour>
      <point x="92" y="515" type="line"/>
      <point x="247" y="515" type="line"/>
      <point x="333" y="729" type="line"/>
      <point x="178" y="729" type="line"/>
    </contour>
  </outline>
</glyph>
<glyph name="caroncomb.alt.t" format="2">
  <anchor x="99" y="548" name="_topright"/>
  <outline>
    <contour>
      <point x="79" y="457" type="line"/>
      <point x="221" y="457" type="line"/>
      <point x="301" y="615" type="line"/>
      <point x="139" y="615" type="line"/>
    </contour>
  </outline>
</glyph>
<glyph name="circumflexcomb_acutecomb" format="2">
  <anchor x="299" y="545" name="_top"/>
  <outline>
    <contour>
      <point x="107" y="586" type="line"/>
      <point x="278" y="586" type="line"/>
      <point x="323" y="648" type="line"/>
      <point x="337" y="586" type="line"/>
      <point x="485" y="586" type="line"/>
      <point x="444" y="716" type="line"/>
      <point x="218" y="716" type="line"/>
    </contour>
    <contour>
      <point x="268" y="741" type="line"/>
      <point x="393" y="741" type="line"/>
      <point x="480" y="852" type="line"/>
      <point x="339" y="852" type="line"/>
    </contour>
  </outline>
</glyph>
<glyph name="circumflexcomb_gravecomb" format="2">
  <anchor x="299" y="545" name="_top"/>
  <outline>
    <contour>
      <point x="107" y="586" type="line"/>
      <point x="278" y="586" type="line"/>
      <point x="323" y="648" type="line"/>
      <point x="337" y="586" type="line"/>
      <point x="485" y="586" type="line"/>
      <point x="444" y="716" type="line"/>
      <point x="218" y="716" type="line"/>
    </contour>
    <contour>
      <point x="277" y="741" type="line"/>
      <point x="393" y="741" type="line"/>
      <point x="369" y="852" type="line"/>
      <point x="237" y="852" type="line"/>
    </contour>
  </outline>
</glyph>
